<?xml version="1.0" encoding="utf-8"?>
<!-- Generator: Adobe Illustrator 25.2.3, SVG Export Plug-In . SVG Version: 6.00 Build 0)  -->
<svg version="1.1" id="Layer_1" xmlns:serif="http://www.serif.com/"
	 xmlns="http://www.w3.org/2000/svg" xmlns:xlink="http://www.w3.org/1999/xlink" x="0px" y="0px" viewBox="0 0 595.3 334.8"
	 style="enable-background:new 0 0 595.3 334.8;" xml:space="preserve">
<style type="text/css">
	.st0{fill-rule:evenodd;clip-rule:evenodd;fill:#FFFFFF;}
	.st1{opacity:0.4;}
	.st2{fill:none;stroke:#C8EEFC;stroke-width:1.861;stroke-linecap:round;stroke-linejoin:round;stroke-miterlimit:10;}
	.st3{fill:none;stroke:#C8EEFC;stroke-width:1.3945;stroke-linecap:round;stroke-linejoin:round;stroke-miterlimit:10;}
	.st4{opacity:0.25;}
	.st5{fill:none;stroke:#C8EEFC;stroke-width:1.8625;stroke-linecap:round;stroke-linejoin:round;stroke-miterlimit:1.0871;}
	.st6{fill:none;stroke:#C8EEFC;stroke-width:1.3928;stroke-linecap:round;stroke-linejoin:round;stroke-miterlimit:1.6581;}
	.st7{fill:none;stroke:#C8EEFC;stroke-width:1.3935;stroke-linecap:round;stroke-linejoin:round;stroke-miterlimit:1.2902;}
	.st8{fill:none;stroke:#C8EEFC;stroke-width:1.8599;stroke-linecap:round;stroke-linejoin:round;stroke-miterlimit:1.1159;}
	.st9{fill:none;stroke:#C8EEFC;stroke-width:1.3957;stroke-linecap:round;stroke-linejoin:round;stroke-miterlimit:1.7021;}
	.st10{fill:none;stroke:#C8EEFC;stroke-width:1.8583;stroke-linecap:round;stroke-linejoin:round;stroke-miterlimit:10;}
	.st11{fill:none;stroke:#C8EEFC;stroke-width:1.3972;stroke-linecap:round;stroke-linejoin:round;stroke-miterlimit:10;}
	.st12{fill:none;stroke:#C8EEFC;stroke-width:1.8613;stroke-linecap:round;stroke-linejoin:round;stroke-miterlimit:10;}
	.st13{fill:none;stroke:#C8EEFC;stroke-width:1.3962;stroke-linecap:round;stroke-linejoin:round;stroke-miterlimit:10;}
	.st14{fill:none;stroke:#C8EEFC;stroke-width:1.8625;stroke-linecap:round;stroke-linejoin:round;stroke-miterlimit:10;}
	.st15{fill:none;stroke:#C8EEFC;stroke-width:1.3908;stroke-linecap:round;stroke-linejoin:round;stroke-miterlimit:1.4796;}
	.st16{fill:none;stroke:#C8EEFC;stroke-width:1.8603;stroke-linecap:round;stroke-linejoin:round;stroke-miterlimit:10;}
	.st17{fill:none;stroke:#C8EEFC;stroke-width:1.3947;stroke-linecap:round;stroke-linejoin:round;stroke-miterlimit:1.0305;}
	.st18{fill:none;stroke:#C8EEFC;stroke-width:1.8608;stroke-linecap:round;stroke-linejoin:round;stroke-miterlimit:10;}
	.st19{fill:none;stroke:#C8EEFC;stroke-width:1.3982;stroke-linecap:round;stroke-linejoin:round;stroke-miterlimit:1.2559;}
	.st20{fill:none;stroke:#C8EEFC;stroke-width:1.863;stroke-linecap:round;stroke-linejoin:round;stroke-miterlimit:1.2588;}
	.st21{fill:none;stroke:#C8EEFC;stroke-width:1.3952;stroke-linecap:round;stroke-linejoin:round;stroke-miterlimit:1.92;}
	.st22{fill:none;stroke:#C8EEFC;stroke-width:1.8586;stroke-linecap:round;stroke-linejoin:round;stroke-miterlimit:10;}
	.st23{fill:none;stroke:#C8EEFC;stroke-width:1.3916;stroke-linecap:round;stroke-linejoin:round;stroke-miterlimit:1.1045;}
	.st24{fill:none;stroke:#C8EEFC;stroke-width:1.8611;stroke-linecap:round;stroke-linejoin:round;stroke-miterlimit:10;}
	.st25{fill:none;stroke:#C8EEFC;stroke-width:1.3958;stroke-linecap:round;stroke-linejoin:round;stroke-miterlimit:10;}
	.st26{fill:none;stroke:#C8EEFC;stroke-width:1.8604;stroke-linecap:round;stroke-linejoin:round;stroke-miterlimit:10;}
	.st27{fill:none;stroke:#C8EEFC;stroke-width:1.3963;stroke-linecap:round;stroke-linejoin:round;stroke-miterlimit:10;}
	.st28{fill:none;stroke:#C8EEFC;stroke-width:1.8596;stroke-linecap:round;stroke-linejoin:round;stroke-miterlimit:10;}
	.st29{fill:none;stroke:#C8EEFC;stroke-width:1.394;stroke-linecap:round;stroke-linejoin:round;stroke-miterlimit:10;}
	.st30{fill:none;stroke:#C8EEFC;stroke-width:1.8605;stroke-linecap:round;stroke-linejoin:round;stroke-miterlimit:10;}
	.st31{fill:none;stroke:#C8EEFC;stroke-width:1.3967;stroke-linecap:round;stroke-linejoin:round;stroke-miterlimit:10;}
	.st32{fill:none;stroke:#C8EEFC;stroke-width:1.8597;stroke-linecap:round;stroke-linejoin:round;stroke-miterlimit:10;}
	.st33{fill:none;stroke:#C8EEFC;stroke-width:1.3923;stroke-linecap:round;stroke-linejoin:round;stroke-miterlimit:1.2972;}
	.st34{fill-rule:evenodd;clip-rule:evenodd;fill:#C8EEFC;}
	.st35{fill:none;stroke:#C8EEFC;stroke-width:2.3203;stroke-linecap:round;stroke-linejoin:round;stroke-miterlimit:1.7667;}
	.st36{fill-rule:evenodd;clip-rule:evenodd;fill:#C8EEFC;fill-opacity:0.6;}
	.st37{fill:none;stroke:#C8EEFC;stroke-width:2.3213;stroke-linecap:round;stroke-linejoin:round;stroke-miterlimit:2.232;}
</style>
<rect y="0" class="st0" width="595.3" height="334.8"/>
<g transform="matrix(0.367785,0,0,0.367785,285.016,82.2237)">
	<g class="st1">
		<g transform="matrix(1.26663,0,0,1.26663,-568.381,88.8857)">
			<circle class="st2" cx="570.1" cy="-23" r="1.3"/>
		</g>
		<g transform="matrix(1.26663,0,0,1.26663,-740.408,88.8857)">
			<circle class="st2" cx="769.1" cy="-23" r="1.3"/>
		</g>
		<g transform="matrix(0.633315,-1.09693,1.09693,0.633315,-229.893,1268.45)">
			<circle class="st2" cx="1009.5" cy="-214.9" r="1.3"/>
		</g>
		<g transform="matrix(0.633315,-1.09693,1.09693,0.633315,-315.906,1417.43)">
			<circle class="st2" cx="1113.7" cy="-160.2" r="1.3"/>
		</g>
		<g transform="matrix(-0.633315,-1.09693,1.09693,-0.633315,960.885,1565.09)">
			<circle class="st2" cx="1347.9" cy="97.1" r="1.3"/>
		</g>
		<g transform="matrix(-0.633315,-1.09693,1.09693,-0.633315,1046.9,1714.07)">
			<circle class="st2" cx="1452.1" cy="42.4" r="1.3"/>
		</g>
		<g transform="matrix(1.18296e-16,-1.93192,1.93192,1.18296e-16,91.2165,891.731)">
			<path class="st3" d="M412.7,63.4V42.7l17.9-10.4l17.9,10.4v20.7l-17.9,10.4L412.7,63.4z"/>
		</g>
	</g>
</g>
<g transform="matrix(0.367785,0,0,0.367785,1009.59,419.196)">
	<g class="st1">
		<g transform="matrix(1.26663,0,0,1.26663,-568.381,88.8857)">
			<circle class="st2" cx="-1708.6" cy="-410" r="1.3"/>
		</g>
		<g transform="matrix(1.26663,0,0,1.26663,-740.408,88.8857)">
			<circle class="st2" cx="-1509.6" cy="-410" r="1.3"/>
		</g>
		<g transform="matrix(0.633315,-1.09693,1.09693,0.633315,-229.893,1268.45)">
			<circle class="st2" cx="205.2" cy="-2381.8" r="1.3"/>
		</g>
		<g transform="matrix(0.633315,-1.09693,1.09693,0.633315,-315.906,1417.43)">
			<circle class="st2" cx="309.4" cy="-2327.1" r="1.3"/>
		</g>
		<g transform="matrix(-0.633315,-1.09693,1.09693,-0.633315,960.885,1565.09)">
			<circle class="st2" cx="2822.4" cy="-1682.9" r="1.3"/>
		</g>
		<g transform="matrix(-0.633315,-1.09693,1.09693,-0.633315,1046.9,1714.07)">
			<circle class="st2" cx="2926.6" cy="-1737.6" r="1.3"/>
		</g>
		<g transform="matrix(1.18296e-16,-1.93192,1.93192,1.18296e-16,91.2165,891.731)">
			<path class="st3" d="M666.4-1430.6v-20.7l17.9-10.4l17.9,10.4v20.7l-17.9,10.4L666.4-1430.6z"/>
		</g>
	</g>
</g>
<g transform="matrix(0.367785,0,0,0.367785,199.479,457.292)">
	<g class="st1">
		<g transform="matrix(1.26663,0,0,1.26663,-568.381,88.8857)">
			<circle class="st2" cx="839.1" cy="-453.7" r="1.3"/>
		</g>
		<g transform="matrix(1.26663,0,0,1.26663,-740.408,88.8857)">
			<circle class="st2" cx="1038.1" cy="-453.7" r="1.3"/>
		</g>
		<g transform="matrix(0.633315,-1.09693,1.09693,0.633315,-229.893,1268.45)">
			<circle class="st2" cx="1517" cy="-197.2" r="1.3"/>
		</g>
		<g transform="matrix(0.633315,-1.09693,1.09693,0.633315,-315.906,1417.43)">
			<circle class="st2" cx="1621.2" cy="-142.5" r="1.3"/>
		</g>
		<g transform="matrix(-0.633315,-1.09693,1.09693,-0.633315,960.885,1565.09)">
			<circle class="st2" cx="1586.4" cy="545.4" r="1.3"/>
		</g>
		<g transform="matrix(-0.633315,-1.09693,1.09693,-0.633315,1046.9,1714.07)">
			<circle class="st2" cx="1690.6" cy="490.7" r="1.3"/>
		</g>
		<g transform="matrix(1.18296e-16,-1.93192,1.93192,1.18296e-16,91.2165,891.731)">
			<path class="st3" d="M695.1,239.8v-20.7l17.9-10.4l17.9,10.4v20.7l-17.9,10.4L695.1,239.8z"/>
		</g>
	</g>
</g>
<g transform="matrix(0.367785,0,0,0.367785,700.438,-70.8076)">
	<g class="st1">
		<g transform="matrix(1.26663,0,0,1.26663,-568.381,88.8857)">
			<circle class="st2" cx="-736.4" cy="152.7" r="1.3"/>
		</g>
		<g transform="matrix(1.26663,0,0,1.26663,-740.408,88.8857)">
			<circle class="st2" cx="-537.4" cy="152.7" r="1.3"/>
		</g>
		<g transform="matrix(0.633315,-1.09693,1.09693,0.633315,-229.893,1268.45)">
			<circle class="st2" cx="204" cy="-1258.4" r="1.3"/>
		</g>
		<g transform="matrix(0.633315,-1.09693,1.09693,0.633315,-315.906,1417.43)">
			<circle class="st2" cx="308.3" cy="-1203.7" r="1.3"/>
		</g>
		<g transform="matrix(-0.633315,-1.09693,1.09693,-0.633315,960.885,1565.09)">
			<circle class="st2" cx="1848.9" cy="-1122.2" r="1.3"/>
		</g>
		<g transform="matrix(-0.633315,-1.09693,1.09693,-0.633315,1046.9,1714.07)">
			<circle class="st2" cx="1953.2" cy="-1176.9" r="1.3"/>
		</g>
		<g transform="matrix(1.18296e-16,-1.93192,1.93192,1.18296e-16,91.2165,891.731)">
			<path class="st3" d="M297.5-793.1v-20.7l17.9-10.4l17.9,10.4v20.7l-17.9,10.4L297.5-793.1z"/>
		</g>
	</g>
</g>
<g transform="matrix(0.367785,0,0,0.367785,87.7511,499.118)">
	<g class="st4">
		<g transform="matrix(1.26663,0,0,1.26663,-568.381,88.8857)">
			<circle class="st2" cx="1190.5" cy="-501.8" r="1.3"/>
		</g>
		<g transform="matrix(1.26663,0,0,1.26663,-740.408,88.8857)">
			<circle class="st2" cx="1389.5" cy="-501.8" r="1.3"/>
		</g>
		<g transform="matrix(0.633315,-1.09693,1.09693,0.633315,-229.893,1268.45)">
			<circle class="st2" cx="1734.3" cy="83.1" r="1.3"/>
		</g>
		<g transform="matrix(0.633315,-1.09693,1.09693,0.633315,-315.906,1417.43)">
			<circle class="st2" cx="1838.5" cy="137.7" r="1.3"/>
		</g>
		<g transform="matrix(-0.633315,-1.09693,1.09693,-0.633315,960.885,1565.09)">
			<circle class="st2" cx="1452.3" cy="873.7" r="1.3"/>
		</g>
		<g transform="matrix(-0.633315,-1.09693,1.09693,-0.633315,1046.9,1714.07)">
			<circle class="st2" cx="1556.5" cy="819" r="1.3"/>
		</g>
		<g transform="matrix(1.18296e-16,-1.93192,1.93192,1.18296e-16,91.2165,891.731)">
			<path class="st3" d="M726.6,470.2v-20.7l17.9-10.4l17.9,10.4v20.7l-17.9,10.4L726.6,470.2z"/>
		</g>
	</g>
</g>
<g transform="matrix(1.2303,0,0,1.2303,-16.3917,-97.2247)">
	<g class="st1">
		<g transform="matrix(1.26663,0,0,1.26663,-568.381,88.8857)">
			<circle class="st5" cx="586" cy="104.8" r="1.3"/>
		</g>
		<g transform="matrix(1.26663,0,0,1.26663,-740.408,88.8857)">
			<circle class="st5" cx="785" cy="104.8" r="1.3"/>
		</g>
		<g transform="matrix(0.633315,-1.09693,1.09693,0.633315,-229.893,1268.45)">
			<ellipse transform="matrix(0.866 -0.5 0.5 0.866 190.0656 435.0058)" class="st5" cx="906.8" cy="-137.2" rx="2" ry="2"/>
		</g>
		<g transform="matrix(0.633315,-1.09693,1.09693,0.633315,-315.906,1417.43)">
			<ellipse transform="matrix(0.866 -0.5 0.5 0.866 176.6807 494.4512)" class="st5" cx="1011" cy="-82.5" rx="2" ry="2"/>
		</g>
		<g transform="matrix(-0.633315,-1.09693,1.09693,-0.633315,960.885,1565.09)">
			<ellipse transform="matrix(0.5 -0.866 0.866 0.5 573.9391 1088.0582)" class="st5" cx="1229.3" cy="47" rx="2" ry="2"/>
		</g>
		<g transform="matrix(-0.633315,-1.09693,1.09693,-0.633315,1046.9,1714.07)">
			<ellipse transform="matrix(0.5 -0.866 0.866 0.5 673.429 1150.9778)" class="st5" cx="1333.5" cy="-7.7" rx="2" ry="2"/>
		</g>
		<g transform="matrix(1.18296e-16,-1.93192,1.93192,1.18296e-16,91.2165,891.731)">
			<path class="st6" d="M329,73.9V53.2l17.9-10.4l17.9,10.4v20.7l-17.9,10.4L329,73.9z"/>
		</g>
	</g>
</g>
<g transform="matrix(0.957371,0,0,0.957371,487.932,115.304)">
	<g class="st1">
		<g transform="matrix(1.26663,0,0,1.26663,-568.381,88.8857)">
			<circle class="st2" cx="90" cy="20.5" r="1.3"/>
		</g>
		<g transform="matrix(1.26663,0,0,1.26663,-740.408,88.8857)">
			<circle class="st2" cx="289" cy="20.5" r="1.3"/>
		</g>
		<g transform="matrix(0.633315,-1.09693,1.09693,0.633315,-229.893,1268.45)">
			<ellipse transform="matrix(0.866 -0.5 0.5 0.866 402.4533 284.2856)" class="st2" cx="731.7" cy="-608.8" rx="1.6" ry="1.6"/>
		</g>
		<g transform="matrix(0.633315,-1.09693,1.09693,0.633315,-315.906,1417.43)">
			<ellipse transform="matrix(0.866 -0.5 0.5 0.866 389.0684 343.7311)" class="st2" cx="835.9" cy="-554.1" rx="1.6" ry="1.6"/>
		</g>
		<g transform="matrix(-0.633315,-1.09693,1.09693,-0.633315,960.885,1565.09)">
			<ellipse transform="matrix(0.5 -0.866 0.866 0.5 1069.9512 1172.2996)" class="st2" cx="1550.2" cy="-340.5" rx="1.6" ry="1.6"/>
		</g>
		<g transform="matrix(-0.633315,-1.09693,1.09693,-0.633315,1046.9,1714.07)">
			<ellipse transform="matrix(0.5 -0.866 0.866 0.5 1169.441 1235.2192)" class="st2" cx="1654.5" cy="-395.2" rx="1.6" ry="1.6"/>
		</g>
		<g transform="matrix(1.18296e-16,-1.93192,1.93192,1.18296e-16,91.2165,891.731)">
			<path class="st7" d="M384.2-251.3V-272l17.9-10.4l17.9,10.4v20.7L402.1-241L384.2-251.3z"/>
		</g>
	</g>
</g>
<g transform="matrix(1.26295,0,0,1.26295,270.369,-146.399)">
	<g class="st1">
		<g transform="matrix(1.26663,0,0,1.26663,-568.381,88.8857)">
			<circle class="st8" cx="313.1" cy="120.3" r="1.3"/>
		</g>
		<g transform="matrix(1.26663,0,0,1.26663,-740.408,88.8857)">
			<circle class="st8" cx="512.1" cy="120.3" r="1.3"/>
		</g>
		<g transform="matrix(0.633315,-1.09693,1.09693,0.633315,-229.893,1268.45)">
			<ellipse transform="matrix(0.866 -0.5 0.5 0.866 284.2513 329.4134)" class="st8" cx="756.8" cy="-365.7" rx="2.1" ry="2.1"/>
		</g>
		<g transform="matrix(0.633315,-1.09693,1.09693,0.633315,-315.906,1417.43)">
			<ellipse transform="matrix(0.866 -0.5 0.5 0.866 270.8663 388.8588)" class="st8" cx="861.1" cy="-311" rx="2.1" ry="2.1"/>
		</g>
		<g transform="matrix(-0.633315,-1.09693,1.09693,-0.633315,960.885,1565.09)">
			<ellipse transform="matrix(0.5 -0.866 0.866 0.5 846.8399 1072.4777)" class="st8" cx="1352.2" cy="-197.1" rx="2.1" ry="2.1"/>
		</g>
		<g transform="matrix(-0.633315,-1.09693,1.09693,-0.633315,1046.9,1714.07)">
			<ellipse transform="matrix(0.5 -0.866 0.866 0.5 946.3298 1135.3972)" class="st8" cx="1456.4" cy="-251.8" rx="2.1" ry="2.1"/>
		</g>
		<g transform="matrix(1.18296e-16,-1.93192,1.93192,1.18296e-16,91.2165,891.731)">
			<path class="st9" d="M318.7-105.1v-20.7l17.9-10.4l17.9,10.4v20.7l-17.9,10.4L318.7-105.1z"/>
		</g>
	</g>
</g>
<g transform="matrix(0.740552,0,0,0.740552,452.372,-58.5609)">
	<g class="st1">
		<g transform="matrix(1.26663,0,0,1.26663,-568.381,88.8857)">
			<circle class="st10" cx="116.7" cy="104.8" r="1.3"/>
		</g>
		<g transform="matrix(1.26663,0,0,1.26663,-740.408,88.8857)">
			<circle class="st10" cx="315.7" cy="104.8" r="1.3"/>
		</g>
		<g transform="matrix(0.633315,-1.09693,1.09693,0.633315,-229.893,1268.45)">
			<circle class="st10" cx="672.1" cy="-543.6" r="1.3"/>
		</g>
		<g transform="matrix(0.633315,-1.09693,1.09693,0.633315,-315.906,1417.43)">
			<circle class="st10" cx="776.3" cy="-488.9" r="1.3"/>
		</g>
		<g transform="matrix(-0.633315,-1.09693,1.09693,-0.633315,960.885,1565.09)">
			<circle class="st10" cx="1463.9" cy="-359.5" r="1.3"/>
		</g>
		<g transform="matrix(-0.633315,-1.09693,1.09693,-0.633315,1046.9,1714.07)">
			<circle class="st10" cx="1568.1" cy="-414.2" r="1.3"/>
		</g>
		<g transform="matrix(1.18296e-16,-1.93192,1.93192,1.18296e-16,91.2165,891.731)">
			<path class="st11" d="M328.9-233.9v-20.7l17.9-10.4l17.9,10.4v20.7l-17.9,10.4L328.9-233.9z"/>
		</g>
	</g>
</g>
<g transform="matrix(0.740552,0,0,0.740552,215.292,337.217)">
	<g class="st1">
		<g transform="matrix(1.26663,0,0,1.26663,-568.381,88.8857)">
			<circle class="st10" cx="487" cy="-120.9" r="1.3"/>
		</g>
		<g transform="matrix(1.26663,0,0,1.26663,-740.408,88.8857)">
			<circle class="st10" cx="686" cy="-120.9" r="1.3"/>
		</g>
		<g transform="matrix(0.633315,-1.09693,1.09693,0.633315,-229.893,1268.45)">
			<circle class="st10" cx="1052.7" cy="-335.8" r="1.3"/>
		</g>
		<g transform="matrix(0.633315,-1.09693,1.09693,0.633315,-315.906,1417.43)">
			<circle class="st10" cx="1156.9" cy="-281.1" r="1.3"/>
		</g>
		<g transform="matrix(-0.633315,-1.09693,1.09693,-0.633315,960.885,1565.09)">
			<circle class="st10" cx="1474.2" cy="74" r="1.3"/>
		</g>
		<g transform="matrix(-0.633315,-1.09693,1.09693,-0.633315,1046.9,1714.07)">
			<circle class="st10" cx="1578.5" cy="19.3" r="1.3"/>
		</g>
		<g transform="matrix(1.18296e-16,-1.93192,1.93192,1.18296e-16,91.2165,891.731)">
			<path class="st11" d="M476.9,8.9v-20.7l17.9-10.4l17.9,10.4V8.9l-17.9,10.4L476.9,8.9z"/>
		</g>
	</g>
</g>
<g transform="matrix(0.517999,0,0,0.517999,566.501,-12.8084)">
	<g class="st1">
		<g transform="matrix(1.26663,0,0,1.26663,-568.381,88.8857)">
			<circle class="st12" cx="-169.1" cy="81.8" r="1.3"/>
		</g>
		<g transform="matrix(1.26663,0,0,1.26663,-740.408,88.8857)">
			<circle class="st12" cx="29.9" cy="81.8" r="1.3"/>
		</g>
		<g transform="matrix(0.633315,-1.09693,1.09693,0.633315,-229.893,1268.45)">
			<circle class="st12" cx="549.1" cy="-802.6" r="1.3"/>
		</g>
		<g transform="matrix(0.633315,-1.09693,1.09693,0.633315,-315.906,1417.43)">
			<circle class="st12" cx="653.3" cy="-747.9" r="1.3"/>
		</g>
		<g transform="matrix(-0.633315,-1.09693,1.09693,-0.633315,960.885,1565.09)">
			<circle class="st12" cx="1626.7" cy="-595.5" r="1.3"/>
		</g>
		<g transform="matrix(-0.633315,-1.09693,1.09693,-0.633315,1046.9,1714.07)">
			<circle class="st12" cx="1730.9" cy="-650.2" r="1.3"/>
		</g>
		<g transform="matrix(1.18296e-16,-1.93192,1.93192,1.18296e-16,91.2165,891.731)">
			<path class="st13" d="M344-421.2v-20.7l17.9-10.4l17.9,10.4v20.7l-17.9,10.4L344-421.2z"/>
		</g>
	</g>
</g>
<g transform="matrix(0.517999,0,0,0.517999,836.396,426.171)">
	<g class="st1">
		<g transform="matrix(1.26663,0,0,1.26663,-568.381,88.8857)">
			<circle class="st12" cx="-771.7" cy="-276.1" r="1.3"/>
		</g>
		<g transform="matrix(1.26663,0,0,1.26663,-740.408,88.8857)">
			<circle class="st12" cx="-572.7" cy="-276.1" r="1.3"/>
		</g>
		<g transform="matrix(0.633315,-1.09693,1.09693,0.633315,-229.893,1268.45)">
			<circle class="st12" cx="557.7" cy="-1503.4" r="1.3"/>
		</g>
		<g transform="matrix(0.633315,-1.09693,1.09693,0.633315,-315.906,1417.43)">
			<circle class="st12" cx="661.9" cy="-1448.7" r="1.3"/>
		</g>
		<g transform="matrix(-0.633315,-1.09693,1.09693,-0.633315,960.885,1565.09)">
			<circle class="st12" cx="2238" cy="-938.4" r="1.3"/>
		</g>
		<g transform="matrix(-0.633315,-1.09693,1.09693,-0.633315,1046.9,1714.07)">
			<circle class="st12" cx="2342.2" cy="-993.1" r="1.3"/>
		</g>
		<g transform="matrix(1.18296e-16,-1.93192,1.93192,1.18296e-16,91.2165,891.731)">
			<path class="st13" d="M578.6-816.3V-837l17.9-10.4l17.9,10.4v20.7L596.6-806L578.6-816.3z"/>
		</g>
	</g>
</g>
<g transform="matrix(1.09785,0,0,1.09785,99.8005,-206.473)">
	<g class="st1">
		<g transform="matrix(1.26663,0,0,1.26663,-568.381,88.8857)">
			<circle class="st14" cx="511.6" cy="150.8" r="1.3"/>
		</g>
		<g transform="matrix(1.26663,0,0,1.26663,-740.408,88.8857)">
			<circle class="st14" cx="710.5" cy="150.8" r="1.3"/>
		</g>
		<g transform="matrix(0.633315,-1.09693,1.09693,0.633315,-229.893,1268.45)">
			<ellipse transform="matrix(0.866 -0.5 0.5 0.866 200.4672 390.8903)" class="st14" cx="829.6" cy="-178.6" rx="1.8" ry="1.8"/>
		</g>
		<g transform="matrix(0.633315,-1.09693,1.09693,0.633315,-315.906,1417.43)">
			<ellipse transform="matrix(0.866 -0.5 0.5 0.866 187.0823 450.3358)" class="st14" cx="933.9" cy="-123.9" rx="1.8" ry="1.8"/>
		</g>
		<g transform="matrix(-0.633315,-1.09693,1.09693,-0.633315,960.885,1565.09)">
			<ellipse transform="matrix(0.5 -0.866 0.866 0.5 648.4106 1042.0049)" class="st14" cx="1226.6" cy="-40.5" rx="1.8" ry="1.8"/>
		</g>
		<g transform="matrix(-0.633315,-1.09693,1.09693,-0.633315,1046.9,1714.07)">
			<ellipse transform="matrix(0.5 -0.866 0.866 0.5 747.9006 1104.9244)" class="st14" cx="1330.8" cy="-95.2" rx="1.8" ry="1.8"/>
		</g>
		<g transform="matrix(1.18296e-16,-1.93192,1.93192,1.18296e-16,91.2165,891.731)">
			<path class="st15" d="M298.8,25V4.3L316.7-6l17.9,10.4V25l-17.9,10.4L298.8,25z"/>
		</g>
	</g>
</g>
<g transform="matrix(0.764681,0,0,0.764681,442.157,161.657)">
	<g class="st1">
		<g transform="matrix(1.26663,0,0,1.26663,-568.381,88.8857)">
			<circle class="st16" cx="134.4" cy="-17.9" r="1.3"/>
		</g>
		<g transform="matrix(1.26663,0,0,1.26663,-740.408,88.8857)">
			<circle class="st16" cx="333.4" cy="-17.9" r="1.3"/>
		</g>
		<g transform="matrix(0.633315,-1.09693,1.09693,0.633315,-229.893,1268.45)">
			<circle class="st16" cx="787.2" cy="-589.6" r="1.3"/>
		</g>
		<g transform="matrix(0.633315,-1.09693,1.09693,0.633315,-315.906,1417.43)">
			<circle class="st16" cx="891.4" cy="-534.9" r="1.3"/>
		</g>
		<g transform="matrix(-0.633315,-1.09693,1.09693,-0.633315,960.885,1565.09)">
			<circle class="st16" cx="1561.3" cy="-282.8" r="1.3"/>
		</g>
		<g transform="matrix(-0.633315,-1.09693,1.09693,-0.633315,1046.9,1714.07)">
			<circle class="st16" cx="1665.5" cy="-337.5" r="1.3"/>
		</g>
		<g transform="matrix(1.18296e-16,-1.93192,1.93192,1.18296e-16,91.2165,891.731)">
			<path class="st17" d="M409.4-222.2v-20.7l17.9-10.4l17.9,10.4v20.7l-17.9,10.4L409.4-222.2z"/>
		</g>
	</g>
</g>
<g transform="matrix(0.931864,0,0,0.931864,297.343,19.1804)">
	<g class="st1">
		<g transform="matrix(1.26663,0,0,1.26663,-568.381,88.8857)">
			<circle class="st18" cx="323.9" cy="62.7" r="1.3"/>
		</g>
		<g transform="matrix(1.26663,0,0,1.26663,-740.408,88.8857)">
			<circle class="st18" cx="522.9" cy="62.7" r="1.3"/>
		</g>
		<g transform="matrix(0.633315,-1.09693,1.09693,0.633315,-229.893,1268.45)">
			<ellipse transform="matrix(0.866 -0.5 0.5 0.866 301.4158 354.451)" class="st18" cx="812.1" cy="-385.2" rx="1.5" ry="1.5"/>
		</g>
		<g transform="matrix(0.633315,-1.09693,1.09693,0.633315,-315.906,1417.43)">
			<ellipse transform="matrix(0.866 -0.5 0.5 0.866 288.0309 413.8965)" class="st18" cx="916.4" cy="-330.5" rx="1.5" ry="1.5"/>
		</g>
		<g transform="matrix(-0.633315,-1.09693,1.09693,-0.633315,960.885,1565.09)">
			<ellipse transform="matrix(0.5 -0.866 0.866 0.5 836.085 1130.1267)" class="st18" cx="1396.8" cy="-159" rx="1.5" ry="1.5"/>
		</g>
		<g transform="matrix(-0.633315,-1.09693,1.09693,-0.633315,1046.9,1714.07)">
			<ellipse transform="matrix(0.5 -0.866 0.866 0.5 935.5748 1193.0463)" class="st18" cx="1501" cy="-213.7" rx="1.5" ry="1.5"/>
		</g>
		<g transform="matrix(1.18296e-16,-1.93192,1.93192,1.18296e-16,91.2165,891.731)">
			<path class="st19" d="M356.5-98v-20.7l17.9-10.4l17.9,10.4V-98l-17.9,10.4L356.5-98z"/>
		</g>
	</g>
</g>
<g transform="matrix(1.42464,0,0,1.42464,-227.227,-127.814)">
	<g class="st1">
		<g transform="matrix(1.26663,0,0,1.26663,-568.381,88.8857)">
			<circle class="st20" cx="703" cy="109.3" r="1.3"/>
		</g>
		<g transform="matrix(1.26663,0,0,1.26663,-740.408,88.8857)">
			<circle class="st20" cx="902" cy="109.3" r="1.3"/>
		</g>
		<g transform="matrix(0.633315,-1.09693,1.09693,0.633315,-229.893,1268.45)">
			<ellipse transform="matrix(0.866 -0.5 0.5 0.866 145.6006 476.1654)" class="st20" cx="961.3" cy="-33.6" rx="2.4" ry="2.4"/>
		</g>
		<g transform="matrix(0.633315,-1.09693,1.09693,0.633315,-315.906,1417.43)">
			<ellipse transform="matrix(0.866 -0.5 0.5 0.866 132.2157 535.6108)" class="st20" cx="1065.6" cy="21.1" rx="2.4" ry="2.4"/>
		</g>
		<g transform="matrix(-0.633315,-1.09693,1.09693,-0.633315,960.885,1565.09)">
			<ellipse transform="matrix(0.5 -0.866 0.866 0.5 456.9741 1083.5426)" class="st20" cx="1166.9" cy="146" rx="2.4" ry="2.4"/>
		</g>
		<g transform="matrix(-0.633315,-1.09693,1.09693,-0.633315,1046.9,1714.07)">
			<ellipse transform="matrix(0.5 -0.866 0.866 0.5 556.4641 1146.4622)" class="st20" cx="1271.1" cy="91.3" rx="2.4" ry="2.4"/>
		</g>
		<g transform="matrix(1.18296e-16,-1.93192,1.93192,1.18296e-16,91.2165,891.731)">
			<path class="st21" d="M326,150.5v-20.7l17.9-10.4l17.9,10.4v20.7l-17.9,10.4L326,150.5z"/>
		</g>
	</g>
</g>
<g transform="matrix(0.819533,0,0,0.819533,93.1683,-30.5059)">
	<g class="st1">
		<g transform="matrix(1.26663,0,0,1.26663,-568.381,88.8857)">
			<circle class="st22" cx="630.6" cy="87.1" r="1.3"/>
		</g>
		<g transform="matrix(1.26663,0,0,1.26663,-740.408,88.8857)">
			<circle class="st22" cx="829.6" cy="87.1" r="1.3"/>
		</g>
		<g transform="matrix(0.633315,-1.09693,1.09693,0.633315,-229.893,1268.45)">
			<circle class="st22" cx="944.3" cy="-107.4" r="1.3"/>
		</g>
		<g transform="matrix(0.633315,-1.09693,1.09693,0.633315,-315.906,1417.43)">
			<circle class="st22" cx="1048.6" cy="-52.7" r="1.3"/>
		</g>
		<g transform="matrix(-0.633315,-1.09693,1.09693,-0.633315,960.885,1565.09)">
			<circle class="st22" cx="1222.3" cy="94.4" r="1.3"/>
		</g>
		<g transform="matrix(-0.633315,-1.09693,1.09693,-0.633315,1046.9,1714.07)">
			<circle class="st22" cx="1326.5" cy="39.7" r="1.3"/>
		</g>
		<g transform="matrix(1.18296e-16,-1.93192,1.93192,1.18296e-16,91.2165,891.731)">
			<path class="st23" d="M340.5,103.1V82.4L358.5,72l17.9,10.4v20.7l-17.9,10.4L340.5,103.1z"/>
		</g>
	</g>
</g>
<g transform="matrix(0.819533,0,0,0.819533,6.50783,80.7537)">
	<g class="st1">
		<g transform="matrix(1.26663,0,0,1.26663,-568.381,88.8857)">
			<circle class="st22" cx="752.9" cy="29.8" r="1.3"/>
		</g>
		<g transform="matrix(1.26663,0,0,1.26663,-740.408,88.8857)">
			<circle class="st22" cx="951.9" cy="29.8" r="1.3"/>
		</g>
		<g transform="matrix(0.633315,-1.09693,1.09693,0.633315,-229.893,1268.45)">
			<circle class="st22" cx="1055.1" cy="-30.1" r="1.3"/>
		</g>
		<g transform="matrix(0.633315,-1.09693,1.09693,0.633315,-315.906,1417.43)">
			<circle class="st22" cx="1159.4" cy="24.6" r="1.3"/>
		</g>
		<g transform="matrix(-0.633315,-1.09693,1.09693,-0.633315,960.885,1565.09)">
			<circle class="st22" cx="1210.8" cy="229" r="1.3"/>
		</g>
		<g transform="matrix(-0.633315,-1.09693,1.09693,-0.633315,1046.9,1714.07)">
			<circle class="st22" cx="1315" cy="174.3" r="1.3"/>
		</g>
		<g transform="matrix(1.18296e-16,-1.93192,1.93192,1.18296e-16,91.2165,891.731)">
			<path class="st23" d="M378.1,183.3v-20.7l17.9-10.4l17.9,10.4v20.7l-17.9,10.4L378.1,183.3z"/>
		</g>
	</g>
</g>
<g transform="matrix(0.524836,0,0,0.524836,124.982,182.573)">
	<g class="st1">
		<g transform="matrix(1.26663,0,0,1.26663,-568.381,88.8857)">
			<circle class="st24" cx="808.6" cy="-75.5" r="1.3"/>
		</g>
		<g transform="matrix(1.26663,0,0,1.26663,-740.408,88.8857)">
			<circle class="st24" cx="1007.6" cy="-75.5" r="1.3"/>
		</g>
		<g transform="matrix(0.633315,-1.09693,1.09693,0.633315,-229.893,1268.45)">
			<circle class="st24" cx="1174.2" cy="-34.5" r="1.3"/>
		</g>
		<g transform="matrix(0.633315,-1.09693,1.09693,0.633315,-315.906,1417.43)">
			<circle class="st24" cx="1278.4" cy="20.2" r="1.3"/>
		</g>
		<g transform="matrix(-0.633315,-1.09693,1.09693,-0.633315,960.885,1565.09)">
			<circle class="st24" cx="1274.1" cy="329.9" r="1.3"/>
		</g>
		<g transform="matrix(-0.633315,-1.09693,1.09693,-0.633315,1046.9,1714.07)">
			<circle class="st24" cx="1378.3" cy="275.2" r="1.3"/>
		</g>
		<g transform="matrix(1.18296e-16,-1.93192,1.93192,1.18296e-16,91.2165,891.731)">
			<path class="st25" d="M447.2,219.8v-20.7l17.9-10.4l17.9,10.4v20.7l-17.9,10.4L447.2,219.8z"/>
		</g>
	</g>
</g>
<g transform="matrix(0.524836,0,0,0.524836,893.863,-55.6752)">
	<g class="st1">
		<g transform="matrix(1.26663,0,0,1.26663,-568.381,88.8857)">
			<circle class="st24" cx="-885.8" cy="116.2" r="1.3"/>
		</g>
		<g transform="matrix(1.26663,0,0,1.26663,-740.408,88.8857)">
			<circle class="st24" cx="-686.9" cy="116.2" r="1.3"/>
		</g>
		<g transform="matrix(0.633315,-1.09693,1.09693,0.633315,-229.893,1268.45)">
			<circle class="st24" cx="160.9" cy="-1406.1" r="1.3"/>
		</g>
		<g transform="matrix(0.633315,-1.09693,1.09693,0.633315,-315.906,1417.43)">
			<circle class="st24" cx="265.2" cy="-1351.4" r="1.3"/>
		</g>
		<g transform="matrix(-0.633315,-1.09693,1.09693,-0.633315,960.885,1565.09)">
			<circle class="st24" cx="1955.3" cy="-1233.4" r="1.3"/>
		</g>
		<g transform="matrix(-0.633315,-1.09693,1.09693,-0.633315,1046.9,1714.07)">
			<circle class="st24" cx="2059.5" cy="-1288.1" r="1.3"/>
		</g>
		<g transform="matrix(1.18296e-16,-1.93192,1.93192,1.18296e-16,91.2165,891.731)">
			<path class="st25" d="M321.5-891.2v-20.7l17.9-10.4l17.9,10.4v20.7l-17.9,10.4L321.5-891.2z"/>
		</g>
	</g>
</g>
<g transform="matrix(0.524836,0,0,0.524836,522.936,-55.6752)">
	<g class="st1">
		<g transform="matrix(1.26663,0,0,1.26663,-568.381,88.8857)">
			<circle class="st24" cx="-68.4" cy="116.2" r="1.3"/>
		</g>
		<g transform="matrix(1.26663,0,0,1.26663,-740.408,88.8857)">
			<circle class="st24" cx="130.6" cy="116.2" r="1.3"/>
		</g>
		<g transform="matrix(0.633315,-1.09693,1.09693,0.633315,-229.893,1268.45)">
			<circle class="st24" cx="569.7" cy="-698.2" r="1.3"/>
		</g>
		<g transform="matrix(0.633315,-1.09693,1.09693,0.633315,-315.906,1417.43)">
			<circle class="st24" cx="673.9" cy="-643.5" r="1.3"/>
		</g>
		<g transform="matrix(-0.633315,-1.09693,1.09693,-0.633315,960.885,1565.09)">
			<circle class="st24" cx="1546.6" cy="-525.5" r="1.3"/>
		</g>
		<g transform="matrix(-0.633315,-1.09693,1.09693,-0.633315,1046.9,1714.07)">
			<circle class="st24" cx="1650.8" cy="-580.2" r="1.3"/>
		</g>
		<g transform="matrix(1.18296e-16,-1.93192,1.93192,1.18296e-16,91.2165,891.731)">
			<path class="st25" d="M321.5-355.2v-20.7l17.9-10.4l17.9,10.4v20.7l-17.9,10.4L321.5-355.2z"/>
		</g>
	</g>
</g>
<g transform="matrix(0.524836,0,0,0.524836,-93.9904,279.641)">
	<g class="st1">
		<g transform="matrix(1.26663,0,0,1.26663,-568.381,88.8857)">
			<circle class="st24" cx="1291.2" cy="-153.6" r="1.3"/>
		</g>
		<g transform="matrix(1.26663,0,0,1.26663,-740.408,88.8857)">
			<circle class="st24" cx="1490.2" cy="-153.6" r="1.3"/>
		</g>
		<g transform="matrix(0.633315,-1.09693,1.09693,0.633315,-229.893,1268.45)">
			<circle class="st24" cx="1483.1" cy="344.4" r="1.3"/>
		</g>
		<g transform="matrix(0.633315,-1.09693,1.09693,0.633315,-315.906,1417.43)">
			<circle class="st24" cx="1587.4" cy="399.1" r="1.3"/>
		</g>
		<g transform="matrix(-0.633315,-1.09693,1.09693,-0.633315,960.885,1565.09)">
			<circle class="st24" cx="1100.4" cy="786.9" r="1.3"/>
		</g>
		<g transform="matrix(-0.633315,-1.09693,1.09693,-0.633315,1046.9,1714.07)">
			<circle class="st24" cx="1204.7" cy="732.2" r="1.3"/>
		</g>
		<g transform="matrix(1.18296e-16,-1.93192,1.93192,1.18296e-16,91.2165,891.731)">
			<path class="st25" d="M498.4,536.2v-20.7l17.9-10.4l17.9,10.4v20.7l-17.9,10.4L498.4,536.2z"/>
		</g>
	</g>
</g>
<g transform="matrix(0.385622,0,0,0.385622,177.084,272.756)">
	<g class="st1">
		<g transform="matrix(1.26663,0,0,1.26663,-568.381,88.8857)">
			<circle class="st26" cx="876.2" cy="-227.3" r="1.3"/>
		</g>
		<g transform="matrix(1.26663,0,0,1.26663,-740.408,88.8857)">
			<circle class="st26" cx="1075.2" cy="-227.3" r="1.3"/>
		</g>
		<g transform="matrix(0.633315,-1.09693,1.09693,0.633315,-229.893,1268.45)">
			<circle class="st26" cx="1339.5" cy="-51.9" r="1.3"/>
		</g>
		<g transform="matrix(0.633315,-1.09693,1.09693,0.633315,-315.906,1417.43)">
			<circle class="st26" cx="1443.7" cy="2.8" r="1.3"/>
		</g>
		<g transform="matrix(-0.633315,-1.09693,1.09693,-0.633315,960.885,1565.09)">
			<circle class="st26" cx="1371.8" cy="464.3" r="1.3"/>
		</g>
		<g transform="matrix(-0.633315,-1.09693,1.09693,-0.633315,1046.9,1714.07)">
			<circle class="st26" cx="1476" cy="409.6" r="1.3"/>
		</g>
		<g transform="matrix(1.18296e-16,-1.93192,1.93192,1.18296e-16,91.2165,891.731)">
			<path class="st27" d="M546.7,264.1v-20.7l17.9-10.4l17.9,10.4v20.7l-17.9,10.4L546.7,264.1z"/>
		</g>
	</g>
</g>
<g transform="matrix(0.671683,0,0,0.671683,661.31,354.925)">
	<g class="st1">
		<g transform="matrix(1.26663,0,0,1.26663,-568.381,88.8857)">
			<circle class="st28" cx="-250.5" cy="-151.8" r="1.3"/>
		</g>
		<g transform="matrix(1.26663,0,0,1.26663,-740.408,88.8857)">
			<circle class="st28" cx="-51.5" cy="-151.8" r="1.3"/>
		</g>
		<g transform="matrix(0.633315,-1.09693,1.09693,0.633315,-229.893,1268.45)">
			<circle class="st28" cx="710.7" cy="-989.9" r="1.3"/>
		</g>
		<g transform="matrix(0.633315,-1.09693,1.09693,0.633315,-315.906,1417.43)">
			<circle class="st28" cx="814.9" cy="-935.2" r="1.3"/>
		</g>
		<g transform="matrix(-0.633315,-1.09693,1.09693,-0.633315,960.885,1565.09)">
			<circle class="st28" cx="1869.7" cy="-549.2" r="1.3"/>
		</g>
		<g transform="matrix(-0.633315,-1.09693,1.09693,-0.633315,1046.9,1714.07)">
			<circle class="st28" cx="1973.9" cy="-603.9" r="1.3"/>
		</g>
		<g transform="matrix(1.18296e-16,-1.93192,1.93192,1.18296e-16,91.2165,891.731)">
			<path class="st29" d="M497.2-474.6v-20.7l17.9-10.4l17.9,10.4v20.7l-17.9,10.4L497.2-474.6z"/>
		</g>
	</g>
</g>
<g transform="matrix(0.493518,0,0,0.493518,722.757,469.907)">
	<g class="st1">
		<g transform="matrix(1.26663,0,0,1.26663,-568.381,88.8857)">
			<circle class="st30" cx="-553" cy="-330.8" r="1.3"/>
		</g>
		<g transform="matrix(1.26663,0,0,1.26663,-740.408,88.8857)">
			<circle class="st30" cx="-354" cy="-330.8" r="1.3"/>
		</g>
		<g transform="matrix(0.633315,-1.09693,1.09693,0.633315,-229.893,1268.45)">
			<circle class="st30" cx="714.4" cy="-1341.4" r="1.3"/>
		</g>
		<g transform="matrix(0.633315,-1.09693,1.09693,0.633315,-315.906,1417.43)">
			<circle class="st30" cx="818.6" cy="-1286.7" r="1.3"/>
		</g>
		<g transform="matrix(-0.633315,-1.09693,1.09693,-0.633315,960.885,1565.09)">
			<circle class="st30" cx="2175.9" cy="-721.7" r="1.3"/>
		</g>
		<g transform="matrix(-0.633315,-1.09693,1.09693,-0.633315,1046.9,1714.07)">
			<circle class="st30" cx="2280.2" cy="-776.4" r="1.3"/>
		</g>
		<g transform="matrix(1.18296e-16,-1.93192,1.93192,1.18296e-16,91.2165,891.731)">
			<path class="st31" d="M614.5-672.9v-20.7l17.9-10.4l17.9,10.4v20.7l-17.9,10.4L614.5-672.9z"/>
		</g>
	</g>
</g>
<g transform="matrix(0.524836,0,0,-0.524836,-189.635,858.839)">
	<g class="st1">
		<g transform="matrix(1.26663,0,0,1.26663,-568.381,88.8857)">
			<circle class="st24" cx="1502" cy="762.5" r="1.3"/>
		</g>
		<g transform="matrix(1.26663,0,0,1.26663,-740.408,88.8857)">
			<circle class="st24" cx="1701" cy="762.5" r="1.3"/>
		</g>
		<g transform="matrix(0.633315,-1.09693,1.09693,0.633315,-229.893,1268.45)">
			<circle class="st24" cx="795.1" cy="985" r="1.3"/>
		</g>
		<g transform="matrix(0.633315,-1.09693,1.09693,0.633315,-315.906,1417.43)">
			<circle class="st24" cx="899.4" cy="1039.7" r="1.3"/>
		</g>
		<g transform="matrix(-0.633315,-1.09693,1.09693,-0.633315,960.885,1565.09)">
			<circle class="st24" cx="201.7" cy="511.4" r="1.3"/>
		</g>
		<g transform="matrix(-0.633315,-1.09693,1.09693,-0.633315,1046.9,1714.07)">
			<circle class="st24" cx="305.9" cy="456.7" r="1.3"/>
		</g>
		<g transform="matrix(1.18296e-16,-1.93192,1.93192,1.18296e-16,91.2165,891.731)">
			<path class="st25" d="M-102.3,674.4v-20.7l17.9-10.4l17.9,10.4v20.7l-17.9,10.4L-102.3,674.4z"/>
		</g>
	</g>
</g>
<g transform="matrix(0.385622,0,0,-0.385622,-190.033,740.218)">
	<g class="st1">
		<g transform="matrix(1.26663,0,0,1.26663,-568.381,88.8857)">
			<circle class="st26" cx="1977.4" cy="882.1" r="1.3"/>
		</g>
		<g transform="matrix(1.26663,0,0,1.26663,-740.408,88.8857)">
			<circle class="st26" cx="2176.3" cy="882.1" r="1.3"/>
		</g>
		<g transform="matrix(0.633315,-1.09693,1.09693,0.633315,-229.893,1268.45)">
			<circle class="st26" cx="929.3" cy="1456.4" r="1.3"/>
		</g>
		<g transform="matrix(0.633315,-1.09693,1.09693,0.633315,-315.906,1417.43)">
			<circle class="st26" cx="1033.5" cy="1511.1" r="1.3"/>
		</g>
		<g transform="matrix(-0.633315,-1.09693,1.09693,-0.633315,960.885,1565.09)">
			<circle class="st26" cx="-139.6" cy="863.2" r="1.3"/>
		</g>
		<g transform="matrix(-0.633315,-1.09693,1.09693,-0.633315,1046.9,1714.07)">
			<circle class="st26" cx="-35.3" cy="808.5" r="1.3"/>
		</g>
		<g transform="matrix(1.18296e-16,-1.93192,1.93192,1.18296e-16,91.2165,891.731)">
			<path class="st27" d="M-180.7,986.1v-20.7l17.9-10.4l17.9,10.4v20.7l-17.9,10.4L-180.7,986.1z"/>
		</g>
	</g>
</g>
<g transform="matrix(0.385622,0,0,0.385622,254.565,356.323)">
	<g class="st1">
		<g transform="matrix(1.26663,0,0,1.26663,-568.381,88.8857)">
			<circle class="st26" cx="643.8" cy="-318.9" r="1.3"/>
		</g>
		<g transform="matrix(1.26663,0,0,1.26663,-740.408,88.8857)">
			<circle class="st26" cx="842.8" cy="-318.9" r="1.3"/>
		</g>
		<g transform="matrix(0.633315,-1.09693,1.09693,0.633315,-229.893,1268.45)">
			<circle class="st26" cx="1302.5" cy="-298.9" r="1.3"/>
		</g>
		<g transform="matrix(0.633315,-1.09693,1.09693,0.633315,-315.906,1417.43)">
			<circle class="st26" cx="1406.7" cy="-244.3" r="1.3"/>
		</g>
		<g transform="matrix(-0.633315,-1.09693,1.09693,-0.633315,960.885,1565.09)">
			<circle class="st26" cx="1567.2" cy="308.8" r="1.3"/>
		</g>
		<g transform="matrix(-0.633315,-1.09693,1.09693,-0.633315,1046.9,1714.07)">
			<circle class="st26" cx="1671.5" cy="254.1" r="1.3"/>
		</g>
		<g transform="matrix(1.18296e-16,-1.93192,1.93192,1.18296e-16,91.2165,891.731)">
			<path class="st27" d="M606.7,111.7V91l17.9-10.4L642.6,91v20.7l-17.9,10.4L606.7,111.7z"/>
		</g>
	</g>
</g>
<g transform="matrix(0.367785,0,0,0.367785,217.92,348.653)">
	<g class="st1">
		<g transform="matrix(1.26663,0,0,1.26663,-568.381,88.8857)">
			<circle class="st2" cx="781.1" cy="-329" r="1.3"/>
		</g>
		<g transform="matrix(1.26663,0,0,1.26663,-740.408,88.8857)">
			<circle class="st2" cx="980.1" cy="-329" r="1.3"/>
		</g>
		<g transform="matrix(0.633315,-1.09693,1.09693,0.633315,-229.893,1268.45)">
			<circle class="st2" cx="1379.9" cy="-185.1" r="1.3"/>
		</g>
		<g transform="matrix(0.633315,-1.09693,1.09693,0.633315,-315.906,1417.43)">
			<circle class="st2" cx="1484.2" cy="-130.4" r="1.3"/>
		</g>
		<g transform="matrix(-0.633315,-1.09693,1.09693,-0.633315,960.885,1565.09)">
			<circle class="st2" cx="1507.3" cy="432.8" r="1.3"/>
		</g>
		<g transform="matrix(-0.633315,-1.09693,1.09693,-0.633315,1046.9,1714.07)">
			<circle class="st2" cx="1611.6" cy="378.1" r="1.3"/>
		</g>
		<g transform="matrix(1.18296e-16,-1.93192,1.93192,1.18296e-16,91.2165,891.731)">
			<path class="st3" d="M613.3,201.8v-20.7l17.9-10.4l17.9,10.4v20.7l-17.9,10.4L613.3,201.8z"/>
		</g>
	</g>
</g>
<g transform="matrix(0.367785,0,0,0.367785,85.2584,306.521)">
	<g class="st1">
		<g transform="matrix(1.26663,0,0,1.26663,-568.381,88.8857)">
			<circle class="st2" cx="1198.3" cy="-280.6" r="1.3"/>
		</g>
		<g transform="matrix(1.26663,0,0,1.26663,-740.408,88.8857)">
			<circle class="st2" cx="1397.3" cy="-280.6" r="1.3"/>
		</g>
		<g transform="matrix(0.633315,-1.09693,1.09693,0.633315,-229.893,1268.45)">
			<circle class="st2" cx="1546.6" cy="200.4" r="1.3"/>
		</g>
		<g transform="matrix(0.633315,-1.09693,1.09693,0.633315,-315.906,1417.43)">
			<circle class="st2" cx="1650.9" cy="255.1" r="1.3"/>
		</g>
		<g transform="matrix(-0.633315,-1.09693,1.09693,-0.633315,960.885,1565.09)">
			<circle class="st2" cx="1256.8" cy="769.9" r="1.3"/>
		</g>
		<g transform="matrix(-0.633315,-1.09693,1.09693,-0.633315,1046.9,1714.07)">
			<circle class="st2" cx="1361.1" cy="715.2" r="1.3"/>
		</g>
		<g transform="matrix(1.18296e-16,-1.93192,1.93192,1.18296e-16,91.2165,891.731)">
			<path class="st3" d="M581.6,475.3v-20.7l17.9-10.4l17.9,10.4v20.7l-17.9,10.4L581.6,475.3z"/>
		</g>
	</g>
</g>
<g transform="matrix(0.367785,0,0,0.367785,-114.788,486)">
	<g class="st1">
		<g transform="matrix(1.26663,0,0,1.26663,-568.381,88.8857)">
			<circle class="st2" cx="1827.5" cy="-486.7" r="1.3"/>
		</g>
		<g transform="matrix(1.26663,0,0,1.26663,-740.408,88.8857)">
			<circle class="st2" cx="2026.4" cy="-486.7" r="1.3"/>
		</g>
		<g transform="matrix(0.633315,-1.09693,1.09693,0.633315,-229.893,1268.45)">
			<circle class="st2" cx="2039.7" cy="642.2" r="1.3"/>
		</g>
		<g transform="matrix(0.633315,-1.09693,1.09693,0.633315,-315.906,1417.43)">
			<circle class="st2" cx="2143.9" cy="696.9" r="1.3"/>
		</g>
		<g transform="matrix(-0.633315,-1.09693,1.09693,-0.633315,960.885,1565.09)">
			<circle class="st2" cx="1120.8" cy="1417.8" r="1.3"/>
		</g>
		<g transform="matrix(-0.633315,-1.09693,1.09693,-0.633315,1046.9,1714.07)">
			<circle class="st2" cx="1225" cy="1363.1" r="1.3"/>
		</g>
		<g transform="matrix(1.18296e-16,-1.93192,1.93192,1.18296e-16,91.2165,891.731)">
			<path class="st3" d="M716.7,887.8v-20.7l17.9-10.4l17.9,10.4v20.7l-17.9,10.4L716.7,887.8z"/>
		</g>
	</g>
</g>
<g transform="matrix(0.367785,0,0,0.367785,958.665,-23.8355)">
	<g class="st1">
		<g transform="matrix(1.26663,0,0,1.26663,-568.381,88.8857)">
			<circle class="st2" cx="-1548.5" cy="98.7" r="1.3"/>
		</g>
		<g transform="matrix(1.26663,0,0,1.26663,-740.408,88.8857)">
			<circle class="st2" cx="-1349.5" cy="98.7" r="1.3"/>
		</g>
		<g transform="matrix(0.633315,-1.09693,1.09693,0.633315,-229.893,1268.45)">
			<circle class="st2" cx="-155.3" cy="-1988.7" r="1.3"/>
		</g>
		<g transform="matrix(0.633315,-1.09693,1.09693,0.633315,-315.906,1417.43)">
			<circle class="st2" cx="-51.1" cy="-1934" r="1.3"/>
		</g>
		<g transform="matrix(-0.633315,-1.09693,1.09693,-0.633315,960.885,1565.09)">
			<circle class="st2" cx="2301.7" cy="-1798.6" r="1.3"/>
		</g>
		<g transform="matrix(-0.633315,-1.09693,1.09693,-0.633315,1046.9,1714.07)">
			<circle class="st2" cx="2406" cy="-1853.3" r="1.3"/>
		</g>
		<g transform="matrix(1.18296e-16,-1.93192,1.93192,1.18296e-16,91.2165,891.731)">
			<path class="st3" d="M332.9-1325.6v-20.7l17.9-10.4l17.9,10.4v20.7l-17.9,10.4L332.9-1325.6z"/>
		</g>
	</g>
</g>
<g transform="matrix(0.962517,0,0,0.962517,-327.194,190.918)">
	<g class="st1">
		<g transform="matrix(1.26663,0,0,1.26663,-568.381,88.8857)">
			<circle class="st32" cx="1070.1" cy="-12.4" r="1.3"/>
		</g>
		<g transform="matrix(1.26663,0,0,1.26663,-740.408,88.8857)">
			<circle class="st32" cx="1269.1" cy="-12.4" r="1.3"/>
		</g>
		<g transform="matrix(0.633315,-1.09693,1.09693,0.633315,-229.893,1268.45)">
			<ellipse transform="matrix(0.866 -0.5 0.5 0.866 55.7676 655.0618)" class="st32" cx="1250.2" cy="223.5" rx="1.6" ry="1.6"/>
		</g>
		<g transform="matrix(0.633315,-1.09693,1.09693,0.633315,-315.906,1417.43)">
			<ellipse transform="matrix(0.866 -0.5 0.5 0.866 42.3828 714.5075)" class="st32" cx="1354.5" cy="278.2" rx="1.6" ry="1.6"/>
		</g>
		<g transform="matrix(-0.633315,-1.09693,1.09693,-0.633315,960.885,1565.09)">
			<ellipse transform="matrix(0.5 -0.866 0.866 0.5 89.8836 1205.2034)" class="st32" cx="1088.7" cy="524.8" rx="1.6" ry="1.6"/>
		</g>
		<g transform="matrix(-0.633315,-1.09693,1.09693,-0.633315,1046.9,1714.07)">
			<ellipse transform="matrix(0.5 -0.866 0.866 0.5 189.3739 1268.1233)" class="st32" cx="1192.9" cy="470.1" rx="1.6" ry="1.6"/>
		</g>
		<g transform="matrix(1.18296e-16,-1.93192,1.93192,1.18296e-16,91.2165,891.731)">
			<path class="st33" d="M405.8,391.2v-20.7l17.9-10.4l17.9,10.4v20.7l-17.9,10.4L405.8,391.2z"/>
		</g>
	</g>
</g>
<g transform="matrix(2.09859e-16,-3.42725,3.42725,2.09859e-16,-64.9906,1456.78)">
	<path class="st34" d="M331.3,84V63.3l17.9-10.4l17.9,10.4V84l-17.9,10.4L331.3,84z"/>
</g>
<g transform="matrix(1.58268e-16,-2.58472,2.66495,1.63181e-16,331.117,809.229)">
	<path class="st34" d="M271.4-76.2v-20.7l17.9-10.4l17.9,10.4v20.7l-17.9,10.4L271.4-76.2z"/>
</g>
<g transform="matrix(1.55078e-16,-2.53261,2.53261,1.55078e-16,50.2749,827.856)">
	<path class="st35" d="M278.8,88.4V67.7l17.9-10.4l17.9,10.4v20.7l-17.9,10.4L278.8,88.4z"/>
</g>
<g transform="matrix(1.41039e-16,-2.30335,2.30335,1.41039e-16,275.852,916.203)">
	<path class="st36" d="M316.7-34.5v-20.7l17.9-10.4l17.9,10.4v20.7l-17.9,10.4L316.7-34.5z"/>
</g>
<g transform="matrix(1.89849e-16,-3.10048,3.08341,1.88805e-16,-263.674,1318.72)">
	<path class="st36" d="M331.4,200.8v-20.7l17.9-10.4l17.9,10.4v20.7l-17.9,10.4L331.4,200.8z"/>
</g>
<g transform="matrix(1.95921e-16,-3.19963,3.19963,1.95921e-16,242.399,1258.56)">
	<path class="st37" d="M314.3-42.5v-20.7l17.9-10.4l17.9,10.4v20.7l-17.9,10.4L314.3-42.5z"/>
</g>
</svg>
