<?xml version="1.0" encoding="UTF-8" standalone="no"?>
<!DOCTYPE svg PUBLIC "-//W3C//DTD SVG 1.1//EN" "http://www.w3.org/Graphics/SVG/1.1/DTD/svg11.dtd">
<svg width="100%" height="100%" viewBox="0 0 596 335" version="1.1" xmlns="http://www.w3.org/2000/svg" xmlns:xlink="http://www.w3.org/1999/xlink" xml:space="preserve" xmlns:serif="http://www.serif.com/" style="fill-rule:evenodd;clip-rule:evenodd;stroke-linejoin:round;stroke-miterlimit:2;">
    <rect x="0" y="0" width="595.3" height="334.8" style="fill:white;"/>
    <g transform="matrix(-1,0,0,1,592.093,0)">
        <path d="M266.891,131.8L226.587,131.8C226.158,129.723 224.317,128.159 222.113,128.159C219.592,128.159 217.545,130.206 217.545,132.727C217.545,134.117 218.167,135.362 219.148,136.201L198.313,172.06C198.056,172 197.789,171.968 197.513,171.968C195.594,171.968 194.036,173.526 194.036,175.445C194.036,177.364 195.594,178.922 197.513,178.922C197.825,178.922 198.126,178.881 198.414,178.804L219.171,214.531C218.235,215.368 217.645,216.585 217.645,217.939C217.644,220.46 219.691,222.506 222.212,222.506L222.212,222.506C224.407,222.506 226.242,220.956 226.68,218.891L266.839,218.891C267.245,220.998 269.1,222.591 271.324,222.591C273.845,222.591 275.892,220.544 275.892,218.023C275.892,216.725 275.349,215.553 274.479,214.721L295.315,178.859C295.529,178.9 295.751,178.922 295.977,178.922C297.896,178.922 299.454,177.364 299.454,175.445C299.454,173.526 297.896,171.968 295.977,171.968C295.787,171.968 295.601,171.983 295.42,172.012L274.508,136.021C275.388,135.188 275.937,134.009 275.937,132.703C275.937,130.182 273.891,128.136 271.369,128.136C269.158,128.136 267.311,129.711 266.891,131.8ZM272.89,217.456L272.345,218.394C272.166,218.702 271.837,218.891 271.481,218.891L269.903,218.891C270.195,219.369 270.723,219.689 271.324,219.689C272.243,219.689 272.989,218.942 272.989,218.023C272.989,217.824 272.954,217.633 272.89,217.456ZM220.721,217.198C220.609,217.421 220.547,217.673 220.547,217.939C220.547,218.858 221.293,219.604 222.212,219.604C222.777,219.604 223.277,219.322 223.578,218.891L222.28,218.891C221.924,218.891 221.594,218.702 221.415,218.394L220.721,217.198ZM222.855,216.891L222.512,216.3C222.911,216.373 223.261,216.588 223.507,216.891L222.855,216.891ZM226.554,133.8C226.071,135.804 224.265,137.295 222.113,137.295C221.699,137.295 221.299,137.24 220.917,137.136L200.044,173.062C200.631,173.684 200.99,174.523 200.99,175.445C200.99,176.329 200.659,177.137 200.115,177.751L220.918,213.557C221.328,213.436 221.763,213.371 222.212,213.371C224.373,213.371 226.185,214.874 226.659,216.891L266.898,216.891C267.402,214.917 269.194,213.456 271.324,213.456C271.828,213.456 272.312,213.537 272.766,213.688L293.543,177.927C292.9,177.296 292.5,176.417 292.5,175.445C292.5,174.436 292.931,173.527 293.618,172.892L272.79,137.045C272.343,137.192 271.866,137.271 271.369,137.271C269.227,137.271 267.426,135.792 266.935,133.8L226.554,133.8ZM271.213,216.362L270.905,216.891L270.103,216.891C270.384,216.589 270.775,216.391 271.213,216.362ZM270.117,133.8L270.905,133.8L271.232,134.363C270.788,134.327 270.394,134.116 270.117,133.8ZM222.544,134.336L222.855,133.8L223.386,133.8C223.17,134.057 222.878,134.247 222.544,134.336ZM223.497,131.8C223.198,131.355 222.689,131.062 222.113,131.062C221.194,131.062 220.448,131.808 220.448,132.727C220.448,133.034 220.531,133.322 220.676,133.57L221.415,132.298C221.594,131.99 221.924,131.8 222.28,131.8L223.497,131.8ZM154.133,81.192L141.177,103.491C141.093,103.481 141.008,103.476 140.922,103.476C139.768,103.476 138.831,104.413 138.831,105.567C138.831,106.721 139.768,107.658 140.922,107.658C140.977,107.658 141.032,107.655 141.086,107.651L154.065,129.991C153.584,130.64 153.504,131.539 153.933,132.283C154.51,133.282 155.79,133.625 156.79,133.048C157.214,132.803 157.52,132.432 157.687,132.009L183.432,132.009C183.602,132.42 183.904,132.781 184.319,133.02C185.318,133.597 186.598,133.255 187.175,132.255C187.627,131.472 187.514,130.517 186.964,129.863L199.878,107.634C199.98,107.65 200.084,107.658 200.19,107.658C201.344,107.658 202.281,106.721 202.281,105.567C202.281,104.413 201.344,103.476 200.19,103.476C200.053,103.476 199.919,103.489 199.79,103.514L186.892,81.314C187.492,80.659 187.629,79.665 187.161,78.855C186.584,77.856 185.304,77.513 184.305,78.09C183.828,78.366 183.5,78.801 183.351,79.291L157.764,79.291C157.619,78.79 157.288,78.343 156.802,78.062C155.802,77.485 154.523,77.828 153.946,78.827C153.5,79.599 153.603,80.538 154.133,81.192ZM272.926,133.297C272.996,133.113 273.035,132.912 273.035,132.703C273.035,131.784 272.289,131.038 271.369,131.038C270.783,131.038 270.267,131.342 269.97,131.8L271.481,131.8C271.837,131.8 272.166,131.99 272.345,132.298L272.926,133.297ZM157.635,80.791C157.614,80.834 157.591,80.876 157.567,80.918C157.123,81.688 156.263,82.068 155.434,81.939L142.502,104.198C142.82,104.564 143.012,105.043 143.012,105.567C143.012,106.122 142.796,106.626 142.443,107.001L155.333,129.187C156.188,129.016 157.095,129.395 157.555,130.192C157.615,130.295 157.664,130.401 157.704,130.509L183.394,130.509C183.435,130.392 183.489,130.276 183.553,130.164C183.991,129.406 184.833,129.026 185.65,129.138L198.574,106.893C198.277,106.532 198.099,106.07 198.099,105.567C198.099,105.095 198.255,104.66 198.518,104.311L185.546,81.983C184.758,82.056 183.961,81.676 183.539,80.946C183.51,80.895 183.483,80.843 183.458,80.791L157.635,80.791Z" style="fill:rgb(200,238,252);fill-opacity:0.5;"/>
    </g>
    <g transform="matrix(-1,0,0,1,592.093,0)">
        <path d="M170.293,69.762L161.184,85.442C161.166,85.441 161.149,85.441 161.131,85.441C160.324,85.441 159.668,86.097 159.668,86.904C159.668,87.712 160.324,88.368 161.131,88.368L161.14,88.368L170.273,104.088C169.994,104.533 169.964,105.114 170.244,105.6C170.648,106.299 171.544,106.54 172.244,106.136C172.491,105.993 172.68,105.789 172.805,105.554L190.932,105.554C191.057,105.783 191.244,105.982 191.486,106.122C192.186,106.526 193.082,106.286 193.486,105.587C193.758,105.115 193.737,104.554 193.481,104.115L202.63,88.367C203.418,88.345 204.052,87.698 204.052,86.904C204.052,86.097 203.396,85.441 202.588,85.441L202.586,85.441L193.461,69.736C193.739,69.292 193.768,68.712 193.488,68.228C193.084,67.528 192.188,67.288 191.489,67.692C191.222,67.846 191.022,68.071 190.899,68.331L172.836,68.331C172.714,68.066 172.511,67.835 172.24,67.678C171.54,67.275 170.645,67.515 170.241,68.214C169.952,68.714 169.992,69.313 170.293,69.762ZM190.975,69.728L172.745,69.728C172.474,70.158 172.012,70.4 171.533,70.409L162.387,86.152C162.519,86.372 162.595,86.629 162.595,86.904C162.595,87.195 162.51,87.466 162.364,87.693L171.492,103.405C172.005,103.399 172.505,103.662 172.779,104.136C172.783,104.143 172.787,104.15 172.791,104.157L190.932,104.157C190.938,104.145 190.944,104.134 190.951,104.123C191.233,103.634 191.756,103.369 192.284,103.393L201.382,87.734C201.22,87.498 201.125,87.212 201.125,86.904C201.125,86.612 201.211,86.339 201.359,86.11L192.244,70.423C191.744,70.43 191.254,70.181 190.975,69.728Z" style="fill:rgb(200,238,252);fill-opacity:0.5;"/>
    </g>
    <g transform="matrix(-1,0,0,1,592.093,0)">
        <path d="M106.415,253.916C106.771,253.916 107.1,253.727 107.279,253.419L140.556,196.145C140.736,195.835 140.736,195.451 140.556,195.141L107.279,137.867C107.1,137.559 106.771,137.37 106.415,137.37L40.182,137.37C39.826,137.37 39.497,137.559 39.318,137.867L6.042,195.141C5.861,195.451 5.861,195.835 6.042,196.145L39.318,253.419C39.497,253.727 39.826,253.916 40.182,253.916L106.415,253.916ZM105.839,251.916L40.758,251.916C40.758,251.916 8.063,195.643 8.063,195.643C8.063,195.643 40.758,139.37 40.758,139.37C40.758,139.37 105.839,139.37 105.839,139.37C105.839,139.37 138.534,195.643 138.534,195.643L105.839,251.916ZM274.158,122.764C274.514,122.764 274.843,122.575 275.022,122.267L301.361,76.933C301.542,76.622 301.542,76.239 301.361,75.928L275.022,30.595C274.843,30.286 274.514,30.097 274.158,30.097L221.733,30.097C221.376,30.097 221.047,30.286 220.868,30.595L194.529,75.928C194.348,76.239 194.348,76.622 194.529,76.933L220.868,122.267C221.047,122.575 221.376,122.764 221.733,122.764L274.158,122.764ZM273.582,120.764L222.308,120.764C222.308,120.764 196.55,76.431 196.55,76.431C196.55,76.431 222.308,32.097 222.308,32.097C222.308,32.097 273.582,32.097 273.582,32.097C273.582,32.097 299.34,76.431 299.34,76.431L273.582,120.764Z" style="fill:rgb(222,246,255);fill-opacity:0.8;"/>
    </g>
    <g transform="matrix(-1,0,0,1,592.093,0)">
        <path d="M105.272,290.708L96.622,305.596C96.604,305.595 96.586,305.595 96.568,305.595C95.798,305.595 95.174,306.22 95.174,306.989C95.174,307.758 95.797,308.382 96.565,308.383L105.259,323.346C104.986,323.771 104.954,324.33 105.224,324.797C105.609,325.463 106.462,325.692 107.128,325.307C107.358,325.175 107.535,324.987 107.653,324.771L124.913,324.771C125.031,324.996 125.213,325.191 125.449,325.328C126.115,325.712 126.969,325.484 127.353,324.817C127.608,324.377 127.594,323.854 127.363,323.44L136.111,308.382C136.859,308.358 137.459,307.743 137.459,306.989C137.459,306.22 136.835,305.595 136.065,305.595C136.061,305.595 136.057,305.595 136.053,305.595L127.382,290.67C127.639,290.249 127.664,289.703 127.4,289.245C127.015,288.579 126.162,288.35 125.496,288.735C125.254,288.874 125.07,289.075 124.952,289.306L107.672,289.306C107.555,289.061 107.365,288.847 107.112,288.701C106.446,288.316 105.592,288.545 105.208,289.211C104.928,289.695 104.972,290.278 105.272,290.708ZM540.792,286.393L522.343,286.393C522.218,286.178 522.037,285.992 521.806,285.859C521.097,285.45 520.19,285.693 519.781,286.402C519.507,286.876 519.525,287.439 519.779,287.882L510.521,303.817C509.715,303.83 509.064,304.489 509.064,305.299C509.064,306.118 509.729,306.782 510.547,306.782C510.558,306.782 510.568,306.782 510.579,306.782L519.807,322.666C519.524,323.116 519.494,323.705 519.778,324.197C520.187,324.906 521.095,325.149 521.804,324.74C522.069,324.587 522.269,324.364 522.394,324.107L540.683,324.107C540.804,324.393 541.016,324.643 541.306,324.81C542.014,325.22 542.922,324.976 543.331,324.268C543.625,323.758 543.582,323.146 543.271,322.69L552.514,306.782C552.526,306.782 552.539,306.782 552.551,306.782C553.37,306.782 554.034,306.118 554.034,305.299C554.034,304.487 553.38,303.827 552.571,303.816L543.335,287.919C543.616,287.468 543.647,286.881 543.363,286.389C542.954,285.68 542.046,285.437 541.337,285.846C541.102,285.982 540.918,286.173 540.792,286.393ZM124.984,290.638L107.603,290.638C107.351,291.048 106.918,291.284 106.468,291.301L97.767,306.277C97.891,306.486 97.962,306.729 97.962,306.989C97.962,307.269 97.879,307.53 97.737,307.749L106.427,322.706C106.91,322.705 107.38,322.955 107.639,323.403C107.646,323.415 107.652,323.427 107.659,323.439L124.929,323.439C124.932,323.434 124.935,323.428 124.939,323.423C125.212,322.949 125.723,322.696 126.236,322.729L134.919,307.783C134.763,307.558 134.671,307.284 134.671,306.989C134.671,306.714 134.751,306.458 134.889,306.241L126.229,291.336C125.735,291.348 125.25,291.097 124.985,290.639L124.984,290.638ZM522.39,287.808C522.377,287.834 522.364,287.859 522.349,287.885C522.061,288.384 521.525,288.653 520.985,288.624L511.778,304.472C511.937,304.708 512.03,304.993 512.03,305.299C512.03,305.586 511.949,305.853 511.808,306.08L521.042,321.973C521.553,321.967 522.052,322.225 522.333,322.692L540.821,322.692C541.097,322.286 541.545,322.056 542.01,322.044L551.288,306.075C551.149,305.849 551.068,305.584 551.068,305.299C551.068,304.995 551.16,304.712 551.318,304.476L542.101,288.613C541.581,288.621 541.073,288.354 540.794,287.872L540.759,287.808L522.39,287.808ZM264.569,265.477L251.708,287.612C251.541,287.569 251.366,287.546 251.185,287.546C250.031,287.546 249.094,288.483 249.094,289.637C249.094,290.791 250.031,291.728 251.185,291.728C251.348,291.728 251.506,291.709 251.658,291.674L264.483,313.748C263.806,314.399 263.632,315.451 264.122,316.3C264.699,317.299 265.979,317.642 266.979,317.065C267.478,316.777 267.814,316.313 267.953,315.795L293.565,315.795C293.701,316.32 294.039,316.791 294.544,317.083C295.543,317.66 296.823,317.317 297.4,316.318C297.89,315.469 297.717,314.418 297.042,313.767L309.891,291.651C310.07,291.701 310.258,291.728 310.453,291.728C311.607,291.728 312.544,290.791 312.544,289.637C312.544,288.483 311.607,287.546 310.453,287.546C310.241,287.546 310.036,287.577 309.842,287.636L297.003,265.538C297.707,264.89 297.896,263.817 297.397,262.954C296.82,261.954 295.54,261.611 294.541,262.188C294.003,262.499 293.655,263.013 293.539,263.577L268.041,263.577C267.938,262.988 267.585,262.447 267.027,262.125C266.028,261.548 264.748,261.89 264.171,262.89C263.672,263.755 263.861,264.829 264.569,265.477ZM267.972,264.577C267.928,264.715 267.868,264.85 267.793,264.981C267.31,265.816 266.337,266.193 265.446,265.957L252.589,288.087C253.011,288.47 253.276,289.023 253.276,289.637C253.276,290.269 252.995,290.836 252.551,291.22L265.348,313.247C266.252,312.983 267.253,313.358 267.744,314.209C267.852,314.397 267.928,314.594 267.974,314.795L293.553,314.795C293.599,314.601 293.673,314.409 293.779,314.227C294.27,313.375 295.273,313 296.177,313.265L309.021,291.159C308.615,290.778 308.362,290.237 308.362,289.637C308.362,289.055 308.6,288.529 308.984,288.15L296.126,266.019C295.235,266.258 294.259,265.881 293.775,265.044C293.688,264.894 293.622,264.737 293.576,264.577L267.972,264.577ZM65.378,272.538L47.359,272.538C47.238,272.266 47.033,272.029 46.756,271.869C46.056,271.465 45.16,271.705 44.756,272.405C44.468,272.904 44.508,273.504 44.809,273.953L35.718,289.599C35.697,289.598 35.675,289.597 35.653,289.597C34.845,289.597 34.189,290.253 34.189,291.061C34.189,291.856 34.825,292.504 35.616,292.524L44.759,308.261C44.507,308.699 44.489,309.256 44.76,309.724C45.164,310.424 46.059,310.664 46.759,310.26C46.976,310.134 47.149,309.961 47.272,309.761L65.457,309.761C65.582,309.984 65.766,310.176 66.002,310.313C66.702,310.717 67.597,310.477 68.001,309.777C68.275,309.302 68.253,308.737 67.991,308.297L77.018,292.522C77.048,292.524 77.079,292.524 77.109,292.524C77.917,292.524 78.573,291.869 78.573,291.061C78.573,290.253 77.917,289.597 77.109,289.597C77.081,289.597 77.052,289.598 77.024,289.6L67.944,273.909C68.251,273.459 68.294,272.855 68.003,272.352C67.6,271.652 66.704,271.412 66.004,271.816C65.709,271.986 65.496,272.244 65.378,272.538ZM65.546,273.935L47.25,273.935C46.978,274.355 46.521,274.591 46.049,274.6L36.915,290.32C37.043,290.538 37.116,290.791 37.116,291.061C37.116,291.367 37.022,291.651 36.861,291.886L45.951,307.531C46.482,307.503 47.01,307.768 47.295,308.26C47.314,308.295 47.332,308.329 47.349,308.364L65.438,308.364C65.447,308.347 65.457,308.33 65.466,308.314C65.747,307.828 66.265,307.563 66.79,307.583L75.834,291.778C75.714,291.566 75.646,291.321 75.646,291.061C75.646,290.798 75.715,290.551 75.837,290.338L66.699,274.546C66.251,274.534 65.819,274.318 65.546,273.935ZM485.087,227.316L452.588,227.316C452.24,225.994 451.036,225.018 449.605,225.018C447.903,225.018 446.521,226.4 446.521,228.102C446.521,228.944 446.859,229.707 447.406,230.264L430.89,258.691C430.714,258.655 430.532,258.636 430.345,258.636C428.845,258.636 427.627,259.854 427.627,261.355C427.627,262.855 428.845,264.073 430.345,264.073C430.533,264.073 430.716,264.054 430.893,264.018L447.439,292.496C446.895,293.052 446.56,293.813 446.56,294.652C446.56,296.354 447.942,297.736 449.644,297.736C451.093,297.736 452.31,296.735 452.64,295.387L485.095,295.387C485.404,296.765 486.635,297.795 488.105,297.795C489.807,297.795 491.189,296.413 491.189,294.711C491.189,293.811 490.803,293.001 490.188,292.437L506.715,263.991C506.927,264.045 507.149,264.073 507.378,264.073C508.878,264.073 510.096,262.855 510.096,261.355C510.096,259.854 508.878,258.636 507.378,258.636C507.15,258.636 506.929,258.664 506.718,258.717L490.178,230.249C490.797,229.685 491.186,228.872 491.186,227.969C491.186,226.267 489.804,224.885 488.102,224.885C486.623,224.885 485.386,225.927 485.087,227.316ZM488.917,294.623L488.691,295.014C488.556,295.245 488.309,295.387 488.042,295.387L487.646,295.387C487.777,295.476 487.935,295.528 488.105,295.528C488.556,295.528 488.922,295.162 488.922,294.711C488.922,294.682 488.92,294.652 488.917,294.623ZM448.963,295.103C449.109,295.323 449.36,295.469 449.644,295.469C449.772,295.469 449.893,295.439 450.001,295.387L449.55,295.387C449.319,295.387 449.104,295.281 448.963,295.103ZM485.135,228.816L452.606,228.816C452.283,230.175 451.061,231.186 449.605,231.186C449.285,231.186 448.976,231.138 448.686,231.047L432.22,259.387C432.74,259.882 433.064,260.581 433.064,261.355C433.064,262.127 432.741,262.825 432.223,263.32L448.717,291.71C449.01,291.617 449.321,291.568 449.644,291.568C451.082,291.568 452.292,292.554 452.632,293.887L485.132,293.887C485.493,292.584 486.688,291.627 488.105,291.627C488.368,291.627 488.624,291.66 488.868,291.722L505.418,263.238C504.948,262.749 504.659,262.085 504.659,261.355C504.659,260.623 504.949,259.958 505.42,259.469L488.856,230.96C488.615,231.021 488.362,231.053 488.102,231.053L488.102,231.053C486.693,231.053 485.504,230.107 485.135,228.816ZM402.455,265.435L389.661,265.435C389.574,265.245 389.43,265.079 389.235,264.966C388.739,264.68 388.103,264.85 387.816,265.347C387.615,265.695 387.639,266.112 387.842,266.428L381.357,277.589C381.348,277.589 381.339,277.589 381.33,277.589C380.756,277.589 380.291,278.054 380.291,278.628C380.291,279.201 380.756,279.667 381.33,279.667L381.334,279.667L387.812,290.816C387.619,291.131 387.601,291.538 387.798,291.879C388.084,292.376 388.72,292.546 389.217,292.259C389.387,292.161 389.518,292.022 389.607,291.862L402.51,291.862C402.598,292.024 402.73,292.163 402.901,292.262C403.397,292.549 404.033,292.378 404.32,291.882C404.517,291.54 404.498,291.132 404.305,290.817L410.783,279.667C411.348,279.657 411.803,279.195 411.803,278.628C411.803,278.054 411.338,277.589 410.764,277.589L410.759,277.589L404.274,266.427C404.478,266.11 404.502,265.693 404.301,265.344C404.014,264.847 403.378,264.677 402.881,264.964C402.686,265.077 402.541,265.243 402.455,265.435ZM402.527,266.425L389.592,266.425C389.394,266.735 389.057,266.907 388.711,266.905L382.215,278.085C382.313,278.243 382.369,278.429 382.369,278.628C382.369,278.835 382.308,279.029 382.203,279.191L388.669,290.321C389.038,290.311 389.4,290.498 389.597,290.84C389.603,290.85 389.609,290.861 389.615,290.872L402.504,290.872C402.509,290.862 402.515,290.852 402.52,290.842C402.717,290.502 403.078,290.315 403.446,290.323L409.903,279.209C409.791,279.043 409.725,278.843 409.725,278.628C409.725,278.421 409.786,278.228 409.89,278.066L403.405,266.903C403.06,266.904 402.724,266.733 402.527,266.425ZM563.386,262.361L556.625,273.999C556.025,274.001 555.539,274.489 555.539,275.088C555.539,275.69 556.028,276.178 556.629,276.178C556.637,276.178 556.646,276.178 556.655,276.177L563.44,287.855C563.2,288.192 563.163,288.651 563.383,289.032C563.684,289.553 564.351,289.732 564.871,289.431C565.083,289.309 565.238,289.126 565.327,288.918L578.751,288.918C578.843,289.109 578.991,289.275 579.188,289.388C579.708,289.689 580.375,289.51 580.676,288.99C580.879,288.638 580.863,288.221 580.672,287.894L587.479,276.177C588.063,276.158 588.532,275.677 588.532,275.088C588.532,274.51 588.08,274.036 587.51,274.001L580.7,262.279C580.876,261.956 580.884,261.552 580.687,261.211C580.387,260.69 579.72,260.512 579.199,260.812C579.029,260.911 578.895,261.048 578.803,261.207L565.233,261.207C565.141,261.048 565.007,260.91 564.836,260.812C564.315,260.511 563.649,260.69 563.348,261.21C563.134,261.582 563.163,262.027 563.386,262.361ZM578.772,262.247L565.263,262.247C565.254,262.265 565.245,262.282 565.235,262.3C565.036,262.643 564.679,262.838 564.309,262.844L557.541,274.493C557.653,274.664 557.718,274.869 557.718,275.088C557.718,275.298 557.659,275.493 557.557,275.659L564.378,287.4C564.712,287.416 565.032,287.585 565.229,287.878L578.802,287.878C579.015,287.528 579.396,287.34 579.781,287.357L586.548,275.71C586.425,275.534 586.353,275.319 586.353,275.088C586.353,274.847 586.431,274.624 586.564,274.444L579.824,262.842C579.42,262.871 579.016,262.674 578.801,262.3C578.791,262.283 578.781,262.265 578.772,262.247ZM25.693,247.731L12.885,247.731C12.799,247.536 12.653,247.365 12.454,247.25C11.958,246.964 11.322,247.134 11.035,247.631C10.829,247.987 10.859,248.416 11.076,248.735L4.617,259.85C4.612,259.85 4.606,259.85 4.601,259.85C4.027,259.85 3.562,260.316 3.562,260.889C3.562,261.447 4.001,261.902 4.552,261.927L11.05,273.11C10.863,273.423 10.847,273.825 11.042,274.162C11.329,274.659 11.965,274.829 12.461,274.542C12.626,274.447 12.755,274.313 12.844,274.159L25.735,274.159C25.823,274.315 25.953,274.45 26.119,274.546C26.616,274.833 27.252,274.662 27.539,274.166C27.731,273.832 27.718,273.436 27.538,273.125L34.043,261.928C34.613,261.924 35.075,261.46 35.075,260.889C35.075,260.316 34.609,259.85 34.036,259.85C34.017,259.85 33.998,259.851 33.98,259.852L27.512,248.72C27.722,248.402 27.749,247.98 27.545,247.627C27.258,247.131 26.622,246.96 26.126,247.247C25.926,247.362 25.779,247.534 25.693,247.731ZM25.78,248.722L12.803,248.722C12.61,249.015 12.289,249.181 11.958,249.189L5.481,260.337C5.582,260.497 5.64,260.686 5.64,260.889C5.64,261.115 5.568,261.323 5.446,261.493L11.902,272.604C12.274,272.59 12.642,272.778 12.842,273.123C12.85,273.138 12.858,273.153 12.866,273.168L25.716,273.168C25.724,273.154 25.731,273.14 25.739,273.126C25.941,272.777 26.315,272.589 26.692,272.608L33.168,261.462C33.06,261.297 32.997,261.101 32.997,260.889C32.997,260.701 33.047,260.523 33.135,260.371L26.637,249.186C26.301,249.183 25.976,249.017 25.78,248.722ZM107.527,191.204L75.077,191.204C74.679,189.973 73.521,189.081 72.158,189.081C70.464,189.081 69.089,190.456 69.089,192.15C69.089,192.933 69.383,193.649 69.868,194.191L53.367,222.592C53.221,222.568 53.071,222.555 52.918,222.555C51.425,222.555 50.213,223.767 50.213,225.26C50.213,226.752 51.425,227.964 52.918,227.964C53.051,227.964 53.183,227.955 53.311,227.936L69.832,256.37C69.323,256.918 69.011,257.652 69.011,258.458C69.011,260.152 70.386,261.527 72.08,261.527C73.438,261.527 74.591,260.643 74.995,259.419L107.516,259.419C107.899,260.677 109.069,261.592 110.452,261.592C112.145,261.592 113.52,260.217 113.52,258.524C113.52,257.737 113.223,257.019 112.736,256.476L129.158,227.938C129.282,227.955 129.409,227.964 129.538,227.964C131.031,227.964 132.243,226.752 132.243,225.26C132.243,223.767 131.031,222.555 129.538,222.555C129.39,222.555 129.244,222.567 129.103,222.59L112.748,194.168C113.229,193.626 113.522,192.913 113.522,192.132C113.522,190.438 112.147,189.063 110.453,189.063C109.083,189.063 107.921,189.964 107.527,191.204ZM107.578,193.204L75.04,193.204C74.609,194.379 73.481,195.218 72.158,195.218C71.971,195.218 71.789,195.202 71.612,195.17L55.076,223.631C55.419,224.084 55.622,224.648 55.622,225.26C55.622,225.891 55.405,226.473 55.042,226.933L71.597,255.428C71.755,255.403 71.916,255.39 72.08,255.39C73.409,255.39 74.541,256.236 74.967,257.419L107.588,257.419C108.032,256.271 109.148,255.455 110.452,255.455C110.635,255.455 110.814,255.472 110.989,255.502L127.422,226.944C127.054,226.481 126.834,225.896 126.834,225.26C126.834,224.643 127.04,224.075 127.388,223.62L111.006,195.15C110.826,195.183 110.642,195.2 110.453,195.2C109.137,195.2 108.013,194.369 107.578,193.204ZM379.256,215.957L372.815,227.043C372.794,227.042 372.773,227.041 372.751,227.041C372.178,227.041 371.712,227.507 371.712,228.08C371.712,228.653 372.178,229.119 372.751,229.119L372.757,229.119L379.233,240.266C379.035,240.581 379.014,240.993 379.213,241.338C379.5,241.835 380.136,242.005 380.632,241.719C380.794,241.625 380.921,241.495 381.009,241.345L393.94,241.345C394.028,241.492 394.154,241.62 394.313,241.712C394.809,241.998 395.445,241.828 395.732,241.331C395.921,241.004 395.911,240.616 395.741,240.308L402.243,229.118C402.79,229.088 403.225,228.635 403.225,228.08C403.225,227.507 402.76,227.041 402.186,227.041L402.182,227.041L395.719,215.917C395.917,215.601 395.939,215.189 395.739,214.844C395.453,214.347 394.817,214.177 394.32,214.464C394.131,214.573 393.989,214.733 393.901,214.917L381.046,214.917C380.959,214.73 380.816,214.567 380.624,214.457C380.127,214.17 379.491,214.34 379.205,214.837C378.996,215.199 379.03,215.636 379.256,215.957ZM393.954,215.908L380.985,215.908C380.798,216.208 380.479,216.381 380.148,216.395L373.656,227.568C373.742,227.719 373.791,227.894 373.791,228.08C373.791,228.287 373.73,228.48 373.626,228.642L380.097,239.78C380.461,239.775 380.818,239.962 381.013,240.299C381.023,240.317 381.033,240.336 381.042,240.354L393.899,240.354C393.91,240.333 393.92,240.313 393.932,240.292C394.137,239.937 394.521,239.749 394.904,239.775L401.345,228.69C401.221,228.519 401.147,228.308 401.147,228.08C401.147,227.873 401.208,227.679 401.313,227.517L394.856,216.403C394.5,216.408 394.152,216.23 393.954,215.908ZM449.982,228.816L450.001,228.816C449.992,228.822 449.983,228.827 449.973,228.831L449.982,228.816ZM488.912,228.071C488.916,228.038 488.919,228.004 488.919,227.969C488.919,227.518 488.553,227.152 488.102,227.152C487.917,227.152 487.747,227.213 487.61,227.316L488.042,227.316C488.309,227.316 488.556,227.459 488.691,227.69L488.912,228.071ZM449.829,227.316C449.758,227.296 449.683,227.285 449.605,227.285C449.283,227.285 449.005,227.472 448.871,227.742L448.902,227.69C449.036,227.459 449.283,227.316 449.55,227.316L449.829,227.316ZM440.93,196.34L434.471,207.456C434.461,207.456 434.451,207.456 434.441,207.456C433.868,207.456 433.402,207.922 433.402,208.495C433.402,209.068 433.867,209.533 434.439,209.534L440.914,220.679C440.718,220.994 440.698,221.405 440.896,221.748C441.183,222.245 441.819,222.415 442.316,222.128C442.484,222.032 442.614,221.895 442.703,221.737L455.622,221.737C455.71,221.891 455.839,222.024 456.003,222.119C456.5,222.406 457.136,222.236 457.423,221.739C457.617,221.402 457.601,221.001 457.416,220.689L463.897,209.534C464.461,209.523 464.915,209.062 464.915,208.495C464.915,207.922 464.45,207.456 463.876,207.456C463.872,207.456 463.868,207.456 463.865,207.456L457.4,196.33C457.601,196.014 457.623,195.6 457.423,195.254C457.136,194.757 456.5,194.587 456.004,194.873C455.82,194.979 455.681,195.133 455.594,195.309L442.729,195.309C442.642,195.129 442.501,194.972 442.315,194.864C441.818,194.578 441.182,194.748 440.895,195.245C440.692,195.598 440.719,196.021 440.93,196.34ZM455.627,196.3L442.686,196.3C442.494,196.619 442.156,196.799 441.807,196.803L435.328,207.953C435.425,208.111 435.481,208.297 435.481,208.495C435.481,208.705 435.418,208.9 435.311,209.063L441.776,220.19C442.142,220.183 442.5,220.37 442.696,220.709C442.703,220.721 442.71,220.734 442.716,220.746L455.598,220.746C455.606,220.73 455.614,220.715 455.623,220.7C455.823,220.354 456.192,220.167 456.565,220.181L463.016,209.078C462.903,208.912 462.837,208.711 462.837,208.495C462.837,208.29 462.896,208.099 462.999,207.938L456.535,196.812C456.174,196.816 455.822,196.632 455.627,196.3ZM369.176,155.49L340.878,155.49C340.713,154.948 340.35,154.465 339.822,154.16C338.716,153.521 337.299,153.901 336.661,155.007C336.141,155.907 336.295,157.012 336.966,157.737L322.714,182.266C322.563,182.235 322.406,182.218 322.245,182.218C320.968,182.218 319.931,183.255 319.931,184.532C319.931,185.809 320.968,186.846 322.245,186.846C322.388,186.846 322.528,186.833 322.664,186.808L336.92,211.345C336.278,212.07 336.138,213.152 336.649,214.036C337.287,215.142 338.704,215.522 339.81,214.883C340.3,214.6 340.647,214.165 340.827,213.671L369.305,213.671C369.484,214.168 369.833,214.606 370.325,214.89C371.431,215.529 372.847,215.149 373.486,214.043C373.99,213.171 373.86,212.105 373.239,211.38L387.507,186.823C387.614,186.838 387.723,186.846 387.834,186.846C389.111,186.846 390.148,185.809 390.148,184.532C390.148,183.255 389.111,182.218 387.834,182.218C387.705,182.218 387.579,182.229 387.455,182.249L373.141,157.611C373.79,156.886 373.933,155.798 373.421,154.91C372.782,153.804 371.366,153.424 370.259,154.063C369.699,154.386 369.326,154.909 369.176,155.49ZM369.294,156.99L340.827,156.99C340.783,157.103 340.731,157.213 340.669,157.321C340.174,158.179 339.211,158.6 338.288,158.448L324.005,183.03C324.35,183.435 324.559,183.959 324.559,184.532C324.559,185.124 324.337,185.664 323.971,186.073L338.224,210.605C339.163,210.428 340.152,210.848 340.657,211.722C340.741,211.867 340.807,212.018 340.857,212.171L369.28,212.171C369.33,212.02 369.395,211.872 369.478,211.729C369.989,210.844 370.998,210.424 371.947,210.619L386.17,186.139C385.768,185.723 385.52,185.156 385.52,184.532C385.52,183.927 385.753,183.375 386.135,182.962L371.831,158.344C370.897,158.514 369.914,158.094 369.412,157.224C369.368,157.148 369.329,157.069 369.294,156.99ZM203.073,143.15L171.455,143.15C171.172,141.864 170.024,140.9 168.653,140.9C167.07,140.9 165.785,142.185 165.785,143.768C165.785,144.578 166.121,145.31 166.661,145.831L150.611,173.456C150.414,173.409 150.208,173.384 149.997,173.384C148.544,173.384 147.364,174.563 147.364,176.016C147.364,177.469 148.544,178.649 149.997,178.649C150.169,178.649 150.336,178.632 150.499,178.601L166.576,206.272C166.089,206.786 165.79,207.48 165.79,208.243C165.79,209.826 167.076,211.112 168.659,211.112C169.944,211.112 171.032,210.265 171.397,209.1L203.185,209.1C203.546,210.272 204.637,211.125 205.927,211.125C207.51,211.125 208.796,209.839 208.796,208.256C208.796,207.484 208.49,206.783 207.994,206.268L224.069,178.6C224.233,178.632 224.403,178.649 224.576,178.649C226.029,178.649 227.209,177.469 227.209,176.016C227.209,174.563 226.029,173.384 224.576,173.384C224.363,173.384 224.155,173.409 223.957,173.457L207.866,145.764C208.417,145.241 208.76,144.502 208.76,143.683C208.76,142.1 207.475,140.815 205.892,140.815C204.491,140.815 203.323,141.821 203.073,143.15ZM392.686,183.19L385.871,194.92C385.272,194.923 384.786,195.41 384.786,196.01C384.786,196.611 385.274,197.099 385.875,197.099L385.876,197.099L392.661,208.778C392.454,209.109 392.431,209.541 392.64,209.903C392.941,210.423 393.608,210.602 394.128,210.301C394.315,210.194 394.458,210.039 394.55,209.861L408.069,209.861C408.161,210.034 408.302,210.184 408.484,210.29C409.005,210.59 409.672,210.412 409.972,209.891C410.182,209.528 410.158,209.094 409.949,208.763L416.725,197.099C416.729,197.099 416.733,197.099 416.737,197.099C417.339,197.099 417.827,196.611 417.827,196.01C417.827,195.409 417.339,194.92 416.737,194.92C416.735,194.92 416.733,194.92 416.73,194.92L409.923,183.204C410.13,182.874 410.152,182.442 409.944,182.081C409.643,181.561 408.976,181.382 408.456,181.682C408.26,181.796 408.112,181.96 408.02,182.15L394.597,182.15C394.505,181.956 394.356,181.786 394.156,181.671C393.635,181.37 392.969,181.549 392.668,182.07C392.46,182.43 392.481,182.859 392.686,183.19ZM408.068,183.19L394.536,183.19C394.327,183.526 393.963,183.71 393.591,183.703L386.787,195.414C386.899,195.585 386.965,195.79 386.965,196.01C386.965,196.228 386.9,196.431 386.79,196.601L393.569,208.269C393.95,208.264 394.323,208.46 394.527,208.813C394.528,208.816 394.53,208.818 394.531,208.82L408.075,208.82C408.078,208.814 408.082,208.808 408.085,208.802C408.289,208.45 408.659,208.254 409.039,208.257L415.817,196.592C415.71,196.423 415.648,196.224 415.648,196.01C415.648,195.794 415.711,195.593 415.82,195.423L409.017,183.715C408.642,183.72 408.275,183.532 408.068,183.19ZM171.384,144.65C171.011,145.802 169.929,146.637 168.653,146.637C168.419,146.637 168.192,146.609 167.975,146.556L151.909,174.207C152.356,174.679 152.63,175.316 152.63,176.016C152.63,176.757 152.323,177.427 151.829,177.906L167.855,205.489C168.11,205.414 168.38,205.375 168.659,205.375C170.021,205.375 171.163,206.326 171.455,207.6L203.134,207.6C203.431,206.333 204.569,205.388 205.927,205.388C206.198,205.388 206.459,205.425 206.708,205.495L222.74,177.902C222.249,177.423 221.944,176.755 221.944,176.016C221.944,175.318 222.216,174.683 222.66,174.212L206.546,146.477C206.336,146.526 206.117,146.552 205.892,146.552C204.648,146.552 203.588,145.758 203.19,144.65L171.384,144.65ZM328.91,103.603L300.503,103.603C300.324,103.108 299.976,102.67 299.484,102.386C298.378,101.747 296.961,102.127 296.323,103.233C295.811,104.12 295.953,105.207 296.601,105.932L282.343,130.471C282.216,130.45 282.085,130.438 281.953,130.438C280.675,130.438 279.638,131.475 279.638,132.753C279.638,134.03 280.675,135.067 281.953,135.067C282.105,135.067 282.254,135.052 282.399,135.024L296.606,159.613C295.968,160.337 295.83,161.417 296.339,162.299C296.978,163.405 298.394,163.784 299.5,163.146C299.987,162.865 300.333,162.433 300.514,161.943L328.985,161.943C329.168,162.421 329.51,162.841 329.987,163.116C331.093,163.755 332.51,163.375 333.148,162.269C333.646,161.408 333.525,160.358 332.925,159.634L347.14,135.032C347.27,135.055 347.405,135.067 347.542,135.067C348.819,135.067 349.856,134.03 349.856,132.753C349.856,131.475 348.819,130.438 347.542,130.438C347.424,130.438 347.309,130.447 347.196,130.464L332.878,105.82C333.487,105.095 333.611,104.039 333.111,103.173C332.472,102.067 331.056,101.687 329.95,102.326C329.438,102.621 329.082,103.083 328.91,103.603ZM328.925,105.103L300.529,105.103C300.48,105.255 300.414,105.404 300.331,105.547C299.828,106.418 298.844,106.838 297.908,106.666L283.66,131.191C284.037,131.603 284.267,132.151 284.267,132.753C284.267,133.334 284.052,133.866 283.697,134.272L297.908,158.868C298.849,158.689 299.842,159.109 300.347,159.985C300.433,160.133 300.5,160.286 300.55,160.443L328.929,160.443C328.979,160.276 329.049,160.112 329.14,159.955C329.657,159.059 330.685,158.64 331.645,158.852L345.827,134.306C345.455,133.895 345.228,133.35 345.228,132.753C345.228,132.135 345.47,131.573 345.865,131.158L331.592,106.593C330.637,106.798 329.617,106.378 329.103,105.487C329.031,105.362 328.972,105.234 328.925,105.103ZM206.528,143.466C206.438,143.202 206.187,143.011 205.892,143.011C205.738,143.011 205.596,143.063 205.483,143.15L205.916,143.15C206.161,143.15 206.389,143.269 206.528,143.466ZM168.917,143.15C168.836,143.115 168.747,143.096 168.653,143.096C168.417,143.096 168.21,143.218 168.09,143.402C168.231,143.243 168.434,143.15 168.65,143.15L168.917,143.15ZM348.046,92.006L341.565,103.161C341.561,103.161 341.557,103.161 341.554,103.161C340.98,103.161 340.515,103.627 340.515,104.2C340.515,104.764 340.965,105.223 341.525,105.239L348.022,116.42C347.848,116.73 347.837,117.12 348.027,117.449C348.314,117.946 348.95,118.116 349.447,117.83C349.611,117.735 349.74,117.602 349.828,117.448L362.716,117.448C362.804,117.595 362.929,117.722 363.088,117.814C363.585,118.101 364.221,117.93 364.507,117.433C364.699,117.101 364.686,116.707 364.508,116.396L370.99,105.239C371.563,105.238 372.027,104.773 372.027,104.2C372.027,103.627 371.562,103.161 370.988,103.161C370.976,103.161 370.963,103.161 370.951,103.162L364.483,92.029C364.706,91.709 364.738,91.275 364.53,90.915C364.244,90.418 363.608,90.248 363.111,90.534C362.911,90.65 362.763,90.823 362.678,91.02L349.863,91.02C349.779,90.816 349.629,90.637 349.423,90.518C348.926,90.232 348.29,90.402 348.003,90.899C347.797,91.256 347.827,91.686 348.046,92.006ZM362.766,92.011L349.757,92.011C349.563,92.29 349.252,92.448 348.93,92.457L342.431,103.643C342.533,103.804 342.593,103.995 342.593,104.2C342.593,104.419 342.525,104.622 342.41,104.789L348.861,115.893C349.242,115.869 349.623,116.057 349.827,116.41C349.836,116.426 349.845,116.442 349.853,116.457L362.674,116.457C362.684,116.436 362.696,116.415 362.708,116.394C362.91,116.044 363.286,115.856 363.664,115.876L370.118,104.768C370.011,104.605 369.949,104.41 369.949,104.2C369.949,104.004 370.003,103.821 370.098,103.665L363.595,92.473C363.27,92.461 362.957,92.297 362.766,92.011ZM188.425,50.789L179.158,66.739C178.34,66.739 177.676,67.404 177.676,68.222C177.676,69.04 178.34,69.705 179.159,69.705C179.165,69.705 179.171,69.705 179.177,69.705L188.411,85.598C188.12,86.05 188.086,86.646 188.373,87.143C188.782,87.852 189.69,88.095 190.399,87.686C190.661,87.535 190.859,87.315 190.984,87.063L209.347,87.063C209.472,87.307 209.667,87.519 209.923,87.667C210.631,88.076 211.539,87.833 211.948,87.124C212.233,86.632 212.202,86.043 211.919,85.593L221.15,69.705C221.154,69.705 221.158,69.705 221.163,69.705C221.981,69.705 222.645,69.04 222.645,68.222C222.645,67.406 221.984,66.742 221.169,66.739L211.904,50.793C212.178,50.344 212.204,49.764 211.923,49.278C211.514,48.569 210.607,48.326 209.898,48.735C209.639,48.884 209.442,49.1 209.317,49.349L191.013,49.349C190.888,49.092 190.688,48.869 190.422,48.716C189.714,48.306 188.806,48.55 188.397,49.258C188.113,49.75 188.143,50.338 188.425,50.789ZM209.357,50.764L190.952,50.764C190.671,51.231 190.17,51.489 189.659,51.482L180.402,67.414C180.554,67.647 180.642,67.924 180.642,68.222C180.642,68.513 180.557,68.785 180.412,69.014L189.653,84.919C190.162,84.918 190.658,85.179 190.934,85.648L209.376,85.648L209.38,85.641C209.45,85.52 209.537,85.409 209.638,85.312C209.826,85.131 210.062,85.003 210.315,84.942C210.433,84.913 210.555,84.899 210.677,84.9L210.685,84.9L219.912,69.019C219.765,68.788 219.68,68.515 219.68,68.222C219.68,67.922 219.769,67.643 219.922,67.41L210.679,51.501C210.155,51.515 209.639,51.249 209.357,50.764ZM34.752,42.674L28.29,53.796C28.279,53.796 28.269,53.795 28.258,53.795C27.685,53.795 27.219,54.261 27.219,54.834C27.219,55.403 27.676,55.865 28.242,55.873L34.724,67.029C34.522,67.345 34.499,67.761 34.7,68.108C34.986,68.604 35.622,68.775 36.119,68.488C36.289,68.39 36.421,68.25 36.51,68.089L49.411,68.089C49.499,68.262 49.636,68.411 49.815,68.515C50.312,68.802 50.948,68.631 51.235,68.134C51.434,67.79 51.413,67.378 51.215,67.062L57.716,55.873C58.279,55.861 58.732,55.4 58.732,54.834C58.732,54.261 58.266,53.795 57.693,53.795C57.685,53.795 57.676,53.796 57.668,53.796L51.21,42.68C51.404,42.365 51.424,41.956 51.226,41.613C50.939,41.117 50.303,40.946 49.807,41.233C49.626,41.337 49.488,41.488 49.4,41.662L36.563,41.662C36.476,41.482 36.336,41.327 36.15,41.219C35.654,40.933 35.018,41.103 34.731,41.6C34.532,41.945 34.553,42.358 34.752,42.674ZM49.426,42.652L36.523,42.652C36.326,42.981 35.975,43.163 35.616,43.158L29.146,54.295C29.242,54.452 29.297,54.637 29.297,54.834C29.297,55.049 29.232,55.248 29.121,55.413L35.591,66.549C35.953,66.547 36.306,66.733 36.499,67.069C36.505,67.079 36.511,67.089 36.516,67.099L49.433,67.099L49.435,67.095C49.485,67.01 49.545,66.932 49.616,66.864C49.749,66.737 49.917,66.646 50.096,66.604C50.18,66.584 50.265,66.575 50.35,66.576L50.351,66.576L56.834,55.419C56.72,55.252 56.654,55.051 56.654,54.834C56.654,54.634 56.71,54.447 56.809,54.289L50.35,43.172C49.983,43.179 49.623,42.992 49.427,42.652L49.426,42.652ZM169.511,19.842L156.655,19.842C156.568,19.662 156.427,19.505 156.241,19.398C155.744,19.111 155.108,19.281 154.822,19.778C154.615,20.136 154.646,20.566 154.865,20.885L148.418,31.982C148.394,31.98 148.37,31.979 148.346,31.979C147.772,31.979 147.307,32.445 147.307,33.018C147.307,33.592 147.772,34.057 148.346,34.057C148.356,34.057 148.365,34.057 148.375,34.057L154.843,45.19C154.646,45.505 154.625,45.917 154.824,46.261C155.11,46.758 155.746,46.928 156.243,46.641C156.404,46.549 156.53,46.419 156.618,46.27L169.548,46.27C169.636,46.424 169.765,46.558 169.929,46.653C170.426,46.939 171.062,46.769 171.349,46.272C171.54,45.94 171.528,45.546 171.35,45.235L177.846,34.055C178.389,34.021 178.82,33.57 178.82,33.018C178.82,32.451 178.365,31.99 177.801,31.979L171.329,20.841C171.528,20.525 171.55,20.112 171.35,19.767C171.063,19.27 170.427,19.1 169.931,19.386C169.74,19.496 169.598,19.657 169.511,19.842ZM169.567,20.833L156.612,20.833C156.423,21.147 156.092,21.327 155.749,21.336L149.254,32.514C149.338,32.663 149.385,32.835 149.385,33.018C149.385,33.217 149.329,33.403 149.232,33.56L155.706,44.703C156.071,44.697 156.428,44.884 156.623,45.222C156.634,45.241 156.644,45.26 156.654,45.279L169.524,45.279C169.532,45.264 169.54,45.248 169.549,45.233C169.751,44.883 170.128,44.695 170.506,44.715L176.944,33.635C176.817,33.462 176.742,33.249 176.742,33.018C176.742,32.803 176.807,32.602 176.92,32.436L170.465,21.325C170.111,21.33 169.765,21.153 169.567,20.833Z" style="fill:rgb(200,238,252);fill-opacity:0.4;"/>
    </g>
    <g transform="matrix(-1,0,0,1,592.093,0)">
        <path d="M439.815,285.882L433.35,297.009C433.334,297.008 433.317,297.007 433.301,297.007C432.727,297.007 432.261,297.473 432.261,298.047C432.261,298.619 432.725,299.084 433.297,299.086L439.783,310.248C439.575,310.566 439.55,310.986 439.752,311.337C440.039,311.833 440.675,312.004 441.172,311.717C441.346,311.616 441.48,311.472 441.569,311.307L454.449,311.307C454.537,311.46 454.666,311.592 454.829,311.687C455.326,311.974 455.962,311.803 456.249,311.306C456.435,310.983 456.428,310.601 456.264,310.295L462.777,299.085C463.331,299.063 463.774,298.606 463.774,298.047C463.774,297.473 463.309,297.007 462.735,297.007C462.731,297.007 462.727,297.007 462.723,297.008L456.245,285.858C456.434,285.545 456.451,285.141 456.256,284.802C455.969,284.305 455.333,284.135 454.836,284.421C454.645,284.532 454.503,284.693 454.416,284.879L441.628,284.879C441.541,284.69 441.398,284.526 441.205,284.415C440.708,284.128 440.072,284.298 439.785,284.795C439.583,285.145 439.608,285.565 439.815,285.882ZM78.356,263.338L66.589,283.591C66.533,283.586 66.476,283.583 66.419,283.583C65.372,283.583 64.522,284.434 64.522,285.481C64.522,286.528 65.372,287.378 66.419,287.378C66.48,287.378 66.539,287.375 66.598,287.369L78.369,307.628C77.919,308.219 77.84,309.046 78.234,309.728C78.757,310.635 79.918,310.946 80.825,310.422C81.22,310.195 81.502,309.846 81.651,309.45L104.958,309.45C105.109,309.837 105.388,310.177 105.775,310.4C106.682,310.924 107.843,310.613 108.367,309.706C108.762,309.021 108.681,308.19 108.227,307.599L119.981,287.368C120.045,287.374 120.11,287.378 120.176,287.378C121.223,287.378 122.073,286.528 122.073,285.481C122.073,284.434 121.223,283.583 120.176,283.583C120.113,283.583 120.051,283.587 119.99,283.592L108.239,263.367C108.688,262.776 108.766,261.95 108.372,261.268C107.849,260.362 106.688,260.051 105.781,260.574C105.404,260.792 105.13,261.12 104.976,261.495L81.632,261.495C81.48,261.111 81.203,260.774 80.818,260.552C79.911,260.028 78.75,260.339 78.227,261.246C77.834,261.926 77.911,262.749 78.356,263.338ZM454.473,285.87L441.563,285.87C441.368,286.18 441.032,286.353 440.687,286.354L434.198,297.522C434.288,297.676 434.34,297.855 434.34,298.047C434.34,298.256 434.277,298.452 434.17,298.615L440.656,309.778C441.013,309.78 441.36,309.966 441.552,310.297C441.556,310.304 441.559,310.31 441.562,310.316L454.423,310.316C454.431,310.3 454.44,310.283 454.449,310.267C454.656,309.908 455.046,309.72 455.434,309.751L461.886,298.646C461.767,298.476 461.696,298.27 461.696,298.047C461.696,297.842 461.755,297.651 461.858,297.49L455.391,286.36C455.03,286.372 454.675,286.195 454.473,285.87ZM104.999,262.995L81.59,262.995C81.567,263.045 81.541,263.094 81.512,263.143C81.124,263.816 80.385,264.161 79.659,264.08L67.908,284.306C68.164,284.629 68.316,285.037 68.316,285.481C68.316,285.921 68.166,286.326 67.914,286.648L79.676,306.893C80.399,306.817 81.133,307.162 81.52,307.831C81.542,307.87 81.563,307.91 81.583,307.95L105.007,307.95C105.029,307.902 105.054,307.855 105.081,307.809C105.466,307.142 106.196,306.797 106.916,306.87L118.672,286.636C118.425,286.316 118.279,285.915 118.279,285.481C118.279,285.043 118.427,284.639 118.677,284.318L106.932,264.103C106.209,264.181 105.474,263.836 105.087,263.166C105.054,263.11 105.025,263.052 104.999,262.995ZM548.586,278.795L535.791,278.795C535.705,278.6 535.559,278.43 535.36,278.316C534.864,278.029 534.228,278.199 533.941,278.696C533.733,279.056 533.766,279.488 533.988,279.809L527.53,290.924C527.522,290.924 527.514,290.924 527.506,290.924C526.933,290.924 526.467,291.389 526.467,291.963C526.467,292.526 526.916,292.985 527.476,293.001L533.955,304.153C533.758,304.468 533.737,304.879 533.936,305.223C534.223,305.72 534.859,305.89 535.355,305.604C535.519,305.509 535.648,305.376 535.736,305.223L548.641,305.223C548.729,305.379 548.859,305.515 549.026,305.611C549.522,305.898 550.158,305.727 550.445,305.231C550.636,304.901 550.624,304.509 550.45,304.199L556.956,293C557.501,292.968 557.934,292.516 557.934,291.963C557.934,291.392 557.472,290.928 556.902,290.924L550.418,279.764C550.617,279.448 550.639,279.034 550.439,278.689C550.153,278.192 549.517,278.021 549.02,278.308C548.819,278.424 548.672,278.597 548.586,278.795ZM548.676,279.786L535.709,279.786C535.519,280.077 535.203,280.243 534.875,280.254L528.39,291.416C528.488,291.575 528.545,291.762 528.545,291.963C528.545,292.182 528.477,292.386 528.361,292.553L534.817,303.665C535.182,303.659 535.54,303.846 535.736,304.184C535.745,304.2 535.754,304.216 535.762,304.232L548.623,304.232C548.63,304.219 548.638,304.205 548.645,304.192C548.849,303.839 549.228,303.651 549.609,303.674L556.056,292.577C555.93,292.405 555.855,292.192 555.855,291.963C555.855,291.752 555.919,291.555 556.027,291.391L549.552,280.247C549.211,280.251 548.876,280.086 548.676,279.786ZM311.8,145.803L265.343,145.803C264.9,143.307 262.718,141.409 260.095,141.409C257.153,141.409 254.764,143.798 254.764,146.74C254.764,148.318 255.452,149.737 256.543,150.713L232.123,192.743C231.95,192.716 231.773,192.701 231.592,192.701C229.746,192.701 228.247,194.2 228.247,196.047C228.247,197.894 229.746,199.393 231.592,199.393C231.765,199.393 231.934,199.38 232.1,199.355L256.541,241.423C255.478,242.398 254.811,243.798 254.811,245.353C254.81,248.295 257.199,250.683 260.141,250.683C262.748,250.683 264.92,248.808 265.381,246.335L311.844,246.335C312.315,248.797 314.481,250.66 317.079,250.66C320.021,250.66 322.41,248.271 322.41,245.329C322.41,243.681 321.661,242.207 320.485,241.23L344.844,199.305C345.09,199.362 345.346,199.393 345.61,199.393C347.456,199.393 348.956,197.894 348.956,196.047C348.956,194.2 347.456,192.701 345.61,192.701C345.338,192.701 345.074,192.734 344.821,192.795L320.419,150.795C321.624,149.817 322.394,148.325 322.394,146.654C322.394,143.712 320.006,141.323 317.063,141.323C314.411,141.323 312.208,143.265 311.8,145.803ZM356.612,222.019L349.837,233.746C349.238,233.75 348.753,234.236 348.753,234.836C348.753,235.421 349.216,235.899 349.796,235.924L356.607,247.647C356.412,247.975 356.396,248.396 356.6,248.749C356.9,249.27 357.567,249.449 358.088,249.148C358.267,249.045 358.406,248.898 358.498,248.728L371.988,248.728C372.081,248.903 372.222,249.055 372.406,249.161C372.926,249.462 373.593,249.283 373.894,248.762C374.1,248.405 374.08,247.978 373.879,247.649L380.654,235.924C380.671,235.925 380.688,235.925 380.705,235.925C381.306,235.925 381.794,235.437 381.794,234.836C381.794,234.234 381.306,233.746 380.705,233.746C380.701,233.746 380.697,233.746 380.694,233.746L373.915,222.08C374.114,221.751 374.133,221.326 373.927,220.97C373.627,220.449 372.96,220.271 372.439,220.571C372.277,220.665 372.148,220.794 372.057,220.943L358.505,220.943C358.414,220.792 358.284,220.661 358.12,220.566C357.599,220.266 356.932,220.445 356.632,220.965L356.632,220.965C356.438,221.302 356.443,221.699 356.612,222.019ZM257.585,243.219C257.102,243.797 256.811,244.541 256.811,245.353C256.81,247.191 258.303,248.683 260.141,248.683L260.141,248.683C261.638,248.683 262.905,247.694 263.324,246.335L259.971,246.335C259.615,246.335 259.285,246.145 259.106,245.837L257.585,243.219ZM319.458,242.998L317.808,245.837C317.629,246.145 317.3,246.335 316.943,246.335L313.903,246.335C314.33,247.682 315.592,248.66 317.079,248.66C318.918,248.66 320.41,247.167 320.41,245.329C320.41,244.422 320.047,243.599 319.458,242.998ZM372,221.983L358.556,221.983C358.545,222.007 358.532,222.031 358.519,222.055C358.3,222.433 357.889,222.63 357.481,222.595L350.754,234.238C350.866,234.41 350.932,234.615 350.932,234.836C350.932,235.07 350.858,235.287 350.732,235.465L357.501,247.116C357.892,247.102 358.278,247.298 358.486,247.66C358.492,247.669 358.497,247.679 358.502,247.688L371.998,247.688C372.001,247.683 372.004,247.678 372.007,247.673C372.213,247.315 372.593,247.119 372.979,247.129L379.764,235.385C379.67,235.223 379.616,235.036 379.616,234.836C379.616,234.621 379.678,234.421 379.785,234.253L373.017,222.604C372.629,222.615 372.248,222.418 372.041,222.059C372.026,222.034 372.013,222.009 372,221.983ZM317.693,242.055L316.368,244.335L313.9,244.335C314.323,242.982 315.587,241.998 317.079,241.998C317.289,241.998 317.494,242.018 317.693,242.055ZM311.857,147.803L265.319,147.803C264.826,150.236 262.673,152.07 260.095,152.07C259.449,152.07 258.83,151.955 258.257,151.744L233.915,193.64C234.546,194.248 234.938,195.102 234.938,196.047C234.938,197 234.539,197.861 233.899,198.47L258.243,240.37C258.833,240.145 259.473,240.022 260.141,240.022C262.735,240.022 264.899,241.879 265.375,244.335L311.841,244.335C312.308,241.867 314.477,239.998 317.079,239.998C317.657,239.998 318.214,240.09 318.735,240.261L343.123,198.285C342.589,197.692 342.264,196.907 342.264,196.047C342.264,195.195 342.583,194.417 343.108,193.826L318.656,151.742C318.153,151.899 317.618,151.984 317.063,151.984C314.516,151.984 312.383,150.193 311.857,147.803ZM263.313,244.335L260.547,244.335L259.27,242.137C259.548,242.062 259.84,242.022 260.141,242.022C261.624,242.022 262.883,242.994 263.313,244.335ZM496.273,205.299L477.891,205.299C477.765,205.067 477.576,204.867 477.331,204.726C476.623,204.317 475.715,204.56 475.306,205.269C475.029,205.747 475.051,206.317 475.312,206.763L466.053,222.699C465.237,222.702 464.575,223.366 464.575,224.182C464.575,225.001 465.239,225.665 466.058,225.665C466.066,225.665 466.075,225.665 466.083,225.665L475.306,241.539C475.03,241.988 475.002,242.57 475.284,243.059C475.693,243.768 476.601,244.011 477.309,243.602C477.559,243.457 477.752,243.251 477.878,243.013L496.287,243.013C496.413,243.258 496.609,243.471 496.865,243.619C497.574,244.029 498.481,243.785 498.89,243.077C499.182,242.572 499.142,241.965 498.839,241.511L508.045,225.665C508.051,225.665 508.056,225.665 508.062,225.665C508.88,225.665 509.544,225.001 509.544,224.182C509.544,223.369 508.888,222.707 508.076,222.7L498.833,206.791C499.121,206.339 499.154,205.746 498.868,205.251C498.458,204.542 497.551,204.299 496.842,204.708C496.591,204.853 496.399,205.06 496.273,205.299ZM496.288,206.714L477.895,206.714C477.888,206.726 477.881,206.739 477.874,206.751C477.588,207.246 477.06,207.514 476.525,207.492L467.299,223.371C467.452,223.604 467.541,223.883 467.541,224.182C467.541,224.471 467.458,224.74 467.315,224.968L476.534,240.835C477.058,240.824 477.572,241.091 477.852,241.576C477.856,241.583 477.86,241.59 477.864,241.598L496.32,241.598L496.322,241.594C496.391,241.475 496.475,241.366 496.574,241.271C496.757,241.093 496.985,240.965 497.231,240.901C497.346,240.871 497.465,240.855 497.584,240.853L497.584,240.853L506.809,224.976C506.663,224.746 506.579,224.474 506.579,224.182C506.579,223.88 506.669,223.599 506.825,223.364L497.594,207.475C497.078,207.478 496.575,207.212 496.299,206.734C496.295,206.727 496.292,206.72 496.288,206.714ZM151.231,186.969L137.774,210.13C137.75,210.129 137.726,210.129 137.702,210.129C136.51,210.129 135.542,211.097 135.542,212.289C135.542,213.481 136.51,214.449 137.702,214.449C137.724,214.449 137.745,214.449 137.767,214.448L151.225,237.611C150.793,238.271 150.739,239.146 151.16,239.876C151.757,240.908 153.079,241.262 154.111,240.666C154.489,240.448 154.776,240.132 154.959,239.769L181.681,239.769C181.864,240.129 182.15,240.442 182.525,240.658C183.558,241.254 184.88,240.9 185.476,239.868C185.881,239.166 185.847,238.33 185.459,237.679L198.957,214.448C200.123,214.419 201.062,213.463 201.062,212.289C201.062,211.112 200.119,210.154 198.949,210.129L185.453,186.9C185.844,186.249 185.879,185.41 185.473,184.706C184.876,183.674 183.554,183.32 182.522,183.916C182.141,184.136 181.852,184.455 181.669,184.821L154.97,184.821C154.787,184.451 154.497,184.129 154.113,183.908C153.081,183.311 151.759,183.666 151.162,184.698C150.74,185.43 150.795,186.308 151.231,186.969ZM154.89,186.882C154.491,187.553 153.782,187.931 153.051,187.938L139.552,211.173C139.749,211.499 139.862,211.881 139.862,212.289C139.862,212.7 139.747,213.084 139.548,213.411L153.041,236.636C153.781,236.64 154.499,237.024 154.898,237.709L181.734,237.709L181.735,237.708C181.837,237.531 181.963,237.369 182.111,237.227C182.394,236.956 182.752,236.766 183.135,236.68C183.312,236.64 183.495,236.623 183.677,236.629L183.686,236.629L197.119,213.509C196.881,213.162 196.742,212.741 196.742,212.289C196.742,211.839 196.879,211.421 197.115,211.075L183.677,187.945C182.911,187.971 182.155,187.587 181.74,186.882L154.89,186.882ZM125.242,113.862L82.765,113.862C82.391,111.979 80.728,110.558 78.735,110.558C76.467,110.558 74.626,112.4 74.626,114.668C74.626,115.823 75.104,116.868 75.873,117.615L53.856,155.51C53.706,155.485 53.552,155.472 53.395,155.472C51.834,155.472 50.566,156.74 50.566,158.302C50.566,159.864 51.834,161.132 53.395,161.132C53.464,161.132 53.533,161.129 53.601,161.124L75.765,199.271C75.122,199.996 74.731,200.95 74.731,201.995C74.731,204.263 76.572,206.104 78.84,206.104L78.84,206.104C80.685,206.104 82.248,204.886 82.767,203.211L125.304,203.211C125.8,204.923 127.381,206.177 129.252,206.177C131.52,206.177 133.361,204.336 133.361,202.068C133.361,200.903 132.876,199.852 132.097,199.104L154.169,161.115C154.268,161.126 154.37,161.132 154.472,161.132C156.034,161.132 157.302,159.864 157.302,158.302C157.302,156.74 156.034,155.472 154.472,155.472C154.283,155.472 154.098,155.491 153.919,155.527L131.92,117.664C132.831,116.91 133.411,115.771 133.411,114.498C133.412,112.23 131.57,110.388 129.302,110.388C127.251,110.388 125.548,111.895 125.242,113.862ZM131.308,200.462L130,202.713C129.821,203.021 129.492,203.211 129.135,203.211L126.906,203.211C127.33,204.079 128.222,204.677 129.252,204.677C130.692,204.677 131.861,203.508 131.861,202.068C131.861,201.462 131.655,200.905 131.308,200.462ZM76.585,200.683C76.36,201.069 76.231,201.517 76.231,201.995C76.231,203.435 77.4,204.604 78.84,204.604L78.84,204.604C79.842,204.604 80.712,204.039 81.149,203.211L78.629,203.211C78.273,203.211 77.943,203.021 77.764,202.713L76.585,200.683ZM81.33,201.211L79.205,201.211L78.192,199.467C78.399,199.414 78.616,199.386 78.84,199.386C80.007,199.386 80.996,200.153 81.33,201.211ZM82.668,115.862C82.156,117.548 80.588,118.777 78.735,118.777C78.343,118.777 77.963,118.722 77.603,118.619L55.586,156.512C55.985,157 56.225,157.623 56.225,158.302C56.225,159.07 55.919,159.766 55.422,160.276L77.42,198.138C77.862,197.975 78.341,197.886 78.84,197.886C80.84,197.886 82.508,199.317 82.875,201.211L125.233,201.211C125.627,199.353 127.278,197.958 129.252,197.958C129.637,197.958 130.009,198.011 130.361,198.11L152.382,160.209C151.923,159.706 151.643,159.036 151.643,158.302C151.643,157.658 151.858,157.063 152.222,156.587L130.109,118.528C129.848,118.58 129.578,118.607 129.302,118.607L129.302,118.607C127.512,118.607 125.988,117.46 125.425,115.862L82.668,115.862ZM129.567,199.477L128.56,201.211L126.787,201.211C127.142,200.191 128.112,199.458 129.252,199.458C129.359,199.458 129.464,199.465 129.567,199.477ZM394.404,160.144L376.063,160.144C375.937,159.905 375.745,159.698 375.494,159.553C374.785,159.144 373.877,159.387 373.468,160.096C373.19,160.578 373.213,161.152 373.479,161.598L364.211,177.55L364.211,177.55C363.392,177.55 362.728,178.215 362.728,179.033C362.728,179.851 363.392,180.516 364.211,180.516C364.223,180.516 364.235,180.516 364.248,180.515L373.486,196.415C373.202,196.866 373.171,197.455 373.455,197.948C373.864,198.657 374.772,198.9 375.481,198.491C375.746,198.338 375.946,198.115 376.071,197.859L394.397,197.859C394.522,198.12 394.724,198.348 394.994,198.504C395.703,198.913 396.61,198.67 397.02,197.961C397.31,197.459 397.272,196.857 396.973,196.403L406.204,180.516C406.207,180.516 406.211,180.516 406.215,180.516C407.033,180.516 407.697,179.851 407.697,179.033C407.697,178.223 407.047,177.564 406.24,177.55L396.979,161.61C397.26,161.16 397.289,160.574 397.006,160.083C396.597,159.374 395.689,159.131 394.98,159.54C394.725,159.688 394.53,159.9 394.404,160.144ZM345.955,194.746L346.432,195.567C346.612,195.877 346.612,196.261 346.432,196.571L345.985,197.34C346.546,197.177 346.956,196.66 346.956,196.047C346.956,195.424 346.531,194.899 345.955,194.746ZM230.859,194.919C230.49,195.159 230.247,195.575 230.247,196.047C230.247,196.501 230.472,196.903 230.817,197.147L230.483,196.571C230.302,196.261 230.302,195.877 230.483,195.567L230.859,194.919ZM232.504,196.069L232.827,195.512C232.899,195.676 232.938,195.857 232.938,196.047C232.938,196.247 232.895,196.437 232.816,196.607L232.504,196.069ZM394.434,161.56L376.047,161.56C376.044,161.566 376.04,161.572 376.036,161.579C375.752,162.07 375.228,162.338 374.697,162.319L365.455,178.227C365.606,178.459 365.693,178.736 365.693,179.033C365.693,179.318 365.613,179.583 365.474,179.809L374.721,195.724C375.231,195.719 375.73,195.977 376.01,196.443L394.472,196.443C394.748,195.994 395.228,195.742 395.723,195.737L404.965,179.831C404.817,179.601 404.732,179.327 404.732,179.033C404.732,178.727 404.825,178.442 404.984,178.206L395.747,162.307C395.226,162.315 394.716,162.048 394.437,161.566L394.434,161.56ZM344.279,195.843L344.411,196.069L344.285,196.285C344.271,196.208 344.264,196.128 344.264,196.047C344.264,195.978 344.269,195.909 344.279,195.843ZM154.779,157.008L155.375,158.034C155.556,158.344 155.556,158.728 155.375,159.039L155.133,159.456C155.532,159.226 155.802,158.795 155.802,158.302C155.802,157.674 155.365,157.147 154.779,157.008ZM52.965,157.044C52.442,157.223 52.066,157.719 52.066,158.302C52.066,158.721 52.26,159.096 52.564,159.34L52.389,159.039C52.209,158.728 52.209,158.344 52.389,158.034L52.965,157.044ZM54.411,158.536L54.699,158.04C54.716,158.125 54.725,158.212 54.725,158.302C54.725,158.502 54.68,158.693 54.601,158.863L54.411,158.536ZM153.148,158.181L153.354,158.536L153.224,158.76C153.171,158.617 153.143,158.463 153.143,158.302C153.143,158.261 153.144,158.221 153.148,158.181ZM260.547,147.803L263.252,147.803C262.808,149.121 261.562,150.07 260.095,150.07C259.816,150.07 259.545,150.036 259.287,149.971L260.547,147.803ZM313.937,147.803L316.368,147.803L317.609,149.94C317.432,149.969 317.249,149.984 317.063,149.984C315.629,149.984 314.405,149.076 313.937,147.803ZM319.395,149.031C320.011,148.427 320.394,147.585 320.394,146.654C320.394,144.816 318.902,143.323 317.063,143.323C315.519,143.323 314.219,144.376 313.843,145.803L316.943,145.803C317.3,145.803 317.629,145.993 317.808,146.301L319.395,149.031ZM263.292,145.803C262.887,144.42 261.608,143.409 260.095,143.409C258.257,143.409 256.764,144.902 256.764,146.74C256.764,147.575 257.073,148.34 257.582,148.925L259.106,146.301C259.285,145.993 259.615,145.803 259.971,145.803L263.292,145.803ZM249.348,62.091L212.884,62.091C212.523,60.37 210.995,59.076 209.167,59.076C207.071,59.076 205.369,60.778 205.369,62.874L205.369,62.874C205.369,64.032 205.889,65.07 206.708,65.767L188.081,97.827C187.807,97.748 187.518,97.705 187.219,97.705C185.506,97.705 184.116,99.096 184.116,100.808C184.116,102.521 185.506,103.911 187.219,103.911C187.514,103.911 187.799,103.87 188.07,103.792L206.613,136.019C205.886,136.711 205.433,137.687 205.433,138.769C205.433,140.866 207.135,142.567 209.231,142.567L209.231,142.567C211.069,142.567 212.605,141.258 212.954,139.522L249.342,139.522C249.66,141.297 251.214,142.646 253.08,142.646C255.176,142.646 256.878,140.944 256.878,138.848C256.878,137.668 256.339,136.613 255.493,135.916L274.148,103.808C274.402,103.875 274.669,103.911 274.943,103.911C276.656,103.911 278.046,102.521 278.046,100.808C278.046,99.096 276.656,97.705 274.943,97.705C274.669,97.705 274.403,97.741 274.15,97.808L255.477,65.669C256.341,64.972 256.894,63.905 256.894,62.71C256.894,60.614 255.192,58.913 253.096,58.913C251.211,58.913 249.645,60.289 249.348,62.091ZM254.133,138.256L253.615,139.148C253.481,139.379 253.234,139.522 252.966,139.522L252.077,139.522C252.294,139.844 252.663,140.056 253.08,140.056C253.747,140.056 254.288,139.515 254.288,138.848C254.288,138.633 254.232,138.431 254.133,138.256ZM208.05,138.515C208.032,138.597 208.023,138.682 208.023,138.77C208.023,139.436 208.564,139.978 209.231,139.978C209.613,139.978 209.955,139.799 210.176,139.522L209.063,139.522C208.794,139.522 208.546,139.378 208.413,139.146L208.05,138.515ZM252.726,137.693L252.535,138.022L252.2,138.022C252.342,137.87 252.522,137.756 252.726,137.693ZM249.401,63.591L212.897,63.591C212.561,65.345 211.018,66.672 209.167,66.672C208.767,66.672 208.382,66.61 208.019,66.495L189.378,98.58C189.96,99.144 190.322,99.934 190.322,100.808C190.322,101.686 189.956,102.479 189.369,103.044L207.883,135.218C208.302,135.059 208.756,134.972 209.231,134.972C211.071,134.972 212.607,136.283 212.955,138.022L249.373,138.022C249.751,136.322 251.268,135.05 253.08,135.05C253.458,135.05 253.824,135.106 254.169,135.209L272.834,103.083C272.223,102.516 271.841,101.706 271.841,100.808C271.841,99.909 272.224,99.099 272.836,98.532L254.144,66.362C253.812,66.457 253.46,66.508 253.096,66.508L253.096,66.508C251.303,66.508 249.799,65.263 249.401,63.591ZM209.496,138.022L209.232,137.562C209.616,137.562 209.958,137.742 210.179,138.022L209.496,138.022ZM78.395,117.255L79.205,115.862L81.056,115.862C80.622,116.702 79.745,117.277 78.735,117.277C78.62,117.277 78.506,117.269 78.395,117.255ZM127.078,115.862L128.56,115.862L129.283,117.107C128.351,117.1 127.534,116.603 127.078,115.862ZM131.15,116.339C131.621,115.867 131.911,115.216 131.911,114.498C131.911,113.058 130.742,111.888 129.302,111.888C128.081,111.888 127.055,112.728 126.771,113.862L129.135,113.862C129.492,113.862 129.821,114.051 130,114.359L131.15,116.339ZM81.218,113.862C80.878,112.816 79.894,112.058 78.735,112.058C77.295,112.058 76.126,113.228 76.126,114.668C76.126,115.264 76.327,115.814 76.664,116.254L77.764,114.359C77.943,114.051 78.273,113.862 78.629,113.862L81.218,113.862ZM36.856,49.349L18.489,49.349C18.363,49.114 18.173,48.911 17.926,48.769C17.217,48.36 16.309,48.603 15.9,49.311C15.63,49.779 15.644,50.333 15.889,50.774L6.611,66.742C5.834,66.788 5.217,67.433 5.217,68.222C5.217,69.017 5.844,69.667 6.63,69.703L15.907,85.67C15.654,86.112 15.636,86.674 15.91,87.148C16.319,87.856 17.227,88.099 17.935,87.69C18.199,87.538 18.398,87.317 18.523,87.063L36.886,87.063C37.011,87.305 37.206,87.516 37.459,87.662C38.168,88.071 39.076,87.828 39.485,87.12C39.783,86.604 39.735,85.982 39.413,85.524L48.605,69.704C48.616,69.705 48.627,69.705 48.638,69.705C49.456,69.705 50.12,69.04 50.12,68.222C50.12,67.403 49.456,66.739 48.638,66.739C48.633,66.739 48.628,66.739 48.624,66.739L39.399,50.862C39.711,50.406 39.755,49.792 39.46,49.282C39.051,48.573 38.143,48.33 37.435,48.739C37.177,48.888 36.981,49.102 36.856,49.349ZM36.891,50.764L18.486,50.764C18.48,50.774 18.474,50.784 18.468,50.794C18.176,51.3 17.631,51.569 17.084,51.532L7.897,67.346C8.077,67.592 8.183,67.894 8.183,68.222C8.183,68.543 8.081,68.84 7.907,69.083L17.111,84.926C17.646,84.896 18.177,85.158 18.468,85.648L36.91,85.648C36.912,85.644 36.915,85.64 36.917,85.637C37.18,85.18 37.651,84.917 38.141,84.897L47.376,69.002C47.236,68.775 47.155,68.508 47.155,68.222C47.155,67.929 47.24,67.656 47.386,67.427L38.136,51.506C37.638,51.492 37.159,51.227 36.892,50.765L36.891,50.764ZM209.706,63.591L210.139,63.591C209.97,63.819 209.724,63.985 209.439,64.051L209.706,63.591ZM252.27,63.591L252.535,63.591L252.683,63.846C252.528,63.789 252.388,63.702 252.27,63.591ZM210.087,62.091C209.865,61.831 209.535,61.666 209.167,61.666C208.5,61.666 207.959,62.207 207.959,62.874L207.959,62.874C207.959,63.064 208.003,63.243 208.081,63.403L208.626,62.464C208.761,62.233 209.008,62.091 209.275,62.091L210.087,62.091ZM254.125,63.343C254.239,63.159 254.304,62.942 254.304,62.71C254.304,62.044 253.763,61.502 253.096,61.502C252.656,61.502 252.27,61.739 252.059,62.091L252.966,62.091C253.234,62.091 253.481,62.233 253.615,62.464L254.125,63.343Z" style="fill:rgb(200,238,252);fill-opacity:0.5;"/>
    </g>
    <g transform="matrix(-1,0,0,1,592.093,0)">
        <path d="M222.898,321.332L151.954,321.332L116.311,259.984L151.954,198.637L222.898,198.637L258.542,259.984L222.898,321.332ZM128.048,107.736L72.883,107.736L45.168,61.47L72.883,15.203L128.048,15.203L155.763,61.47L128.048,107.736Z" style="fill:rgb(224,247,255);"/>
    </g>
    <g transform="matrix(-1,0,0,1,592.093,0)">
        <path d="M355.475,291.221L291.648,291.221L259.581,235.722L291.648,180.224L355.475,180.224L387.542,235.722L355.475,291.221ZM196.386,186.732L148.707,186.732L124.752,145.502L148.707,104.272L196.386,104.272L220.341,145.502L196.386,186.732Z" style="fill:rgb(200,238,252);fill-opacity:0.4;"/>
    </g>
</svg>
