<?xml version="1.0" encoding="utf-8"?>
<!-- Generator: Adobe Illustrator 25.2.3, SVG Export Plug-In . SVG Version: 6.00 Build 0)  -->
<svg version="1.1" id="Layer_1" xmlns="http://www.w3.org/2000/svg" xmlns:xlink="http://www.w3.org/1999/xlink" x="0px" y="0px"
	 viewBox="0 0 128 128" style="enable-background:new 0 0 128 128;" xml:space="preserve">
<style type="text/css">
	.st0{fill:#FFFFFF;}
</style>
<g>
	<g>
		<path class="st0" d="M93.4,27c-3.6,0-6.6,3-6.6,6.6c0,3.6,3,6.6,6.6,6.6c3.6,0,6.6-3,6.6-6.6C100,29.9,97.1,27,93.4,27z"/>
		<path class="st0" d="M64.1,35.4c-15.3,0-27.7,12.4-27.7,27.7c0,15.3,12.4,27.7,27.7,27.7c15.3,0,27.7-12.4,27.7-27.7
			C91.8,47.8,79.4,35.4,64.1,35.4z M64.1,80.9c-9.8,0-17.7-8-17.7-17.7s8-17.7,17.7-17.7c9.8,0,17.7,8,17.7,17.7
			S73.9,80.9,64.1,80.9z"/>
		<path class="st0" d="M86.1,119.4H41.2c-18.6,0-33.8-15.2-33.8-33.8V40.7C7.4,22,22.6,6.9,41.2,6.9h44.9
			c18.6,0,33.8,15.2,33.8,33.8v44.9C119.9,104.2,104.7,119.4,86.1,119.4z M41.2,17.4C28.4,17.4,18,27.9,18,40.7v44.9
			c0,12.8,10.4,23.2,23.2,23.2h44.9c12.8,0,23.2-10.4,23.2-23.2V40.7c0-12.8-10.4-23.2-23.2-23.2H41.2z"/>
	</g>
</g>
</svg>
