<?xml version="1.0" encoding="utf-8"?>
<!-- Generator: Adobe Illustrator 25.2.3, SVG Export Plug-In . SVG Version: 6.00 Build 0)  -->
<svg version="1.1" id="Layer_1" xmlns="http://www.w3.org/2000/svg" xmlns:xlink="http://www.w3.org/1999/xlink" x="0px" y="0px"
	 viewBox="0 0 128 128" style="enable-background:new 0 0 128 128;" xml:space="preserve">
<style type="text/css">
	.st0{fill:#FFFFFF;}
</style>
<path class="st0" d="M125.5,25.6c-3.9,1.8-8.3,2.9-12.5,3.6c2-0.3,5-4,6.2-5.5c1.8-2.2,3.3-4.8,4.2-7.6c0.1-0.2,0.2-0.5,0-0.6
	c-0.3-0.1-0.4-0.1-0.7,0.1c-4.7,2.5-9.6,4.4-14.8,5.7c-0.4,0.1-0.8,0-1-0.3c-0.4-0.5-0.8-0.9-1.3-1.3c-2.2-1.9-4.5-3.3-7.2-4.4
	c-3.5-1.4-7.3-2-11-1.8c-3.6,0.2-7.2,1.3-10.5,3c-3.2,1.7-6.1,4-8.4,6.9c-2.4,2.9-4.1,6.4-5,10.1c-0.9,3.5-0.8,7.1-0.3,10.6
	c0.1,0.6,0,0.7-0.5,0.6c-20.4-3-37.3-10.3-51-25.9C11,18,10.6,18,10.2,18.7c-6,9-3.1,23.4,4.4,30.5c1,0.9,2,1.9,3.1,2.8
	c-0.4,0.1-5.4-0.5-9.8-2.8c-0.6-0.4-0.9-0.2-0.9,0.5c-0.1,1,0,1.9,0.2,2.9c1.1,9.1,7.5,17.5,16.1,20.8c1,0.4,2.2,0.8,3.3,1
	c-2,0.4-4,0.7-9.6,0.3c-0.7-0.1-1,0.2-0.7,0.9c4.2,11.6,13.4,15,20.3,17c0.9,0.2,1.8,0.2,2.8,0.4c-0.1,0.1-0.1,0.1-0.2,0.2
	c-2.3,3.5-10.2,6.1-13.8,7.3c-6.7,2.3-14,3.4-21,2.7c-1.1-0.2-1.4-0.2-1.7,0c-0.3,0.2,0,0.5,0.3,0.8c1.4,0.9,2.9,1.8,4.4,2.6
	c4.5,2.4,9.2,4.3,14.1,5.6c25.3,7,53.7,1.8,72.7-17C108.7,80.4,114,60,114,39.6c0-0.8,0.9-1.2,1.5-1.7c3.9-2.9,7-6.4,9.9-10.3
	c0.6-0.9,0.7-1.6,0.7-2c0-0.1,0-0.1,0-0.1C126,25.2,126,25.3,125.5,25.6z"/>
</svg>
