<svg xmlns="http://www.w3.org/2000/svg" xmlns:xlink="http://www.w3.org/1999/xlink" id="Layer_1" x="0px" y="0px" viewBox="0 0 234.63 25.09" style="enable-background:new 0 0 234.63 25.09;" xml:space="preserve">
<style type="text/css">
	.st0{fill:#FFFFFF;}
	.st1{fill:none;stroke:#FFFFFF;}
</style>
<g id="Group_443" transform="translate(0.5 1)">
	<g id="Group_442" transform="translate(0 2.538)">
		<g id="AA_Logo_White" transform="translate(0)">
			<g id="Group_440">
				<g id="Mask_Group_1">
					<g id="avataracademyogowhite">
						<path id="Path_22" class="st0" d="M4.7,0.66"></path>
					</g>
				</g>
			</g>
		</g>
		<rect id="Rectangle_122" y="-3.04" class="st1" width="233.63" height="24.09"></rect>
		<g id="TRANSFORMING_TRAINING" transform="translate(6.231 78.896)">
			<g id="Group_441">
				<path id="Path_101" class="st0" d="M0-75.2c-0.01-0.12,0.08-0.22,0.2-0.23c0.02,0,0.03,0,0.05,0h8.02      c0.17,0,0.24,0.08,0.24,0.23v1.11c0,0.16-0.08,0.2-0.23,0.2H5.53c-0.11,0-0.16,0.03-0.16,0.14v8.66c0,0.17-0.09,0.24-0.21,0.24      h-1.7c-0.13,0-0.2-0.07-0.2-0.23v-8.64c0-0.13-0.04-0.17-0.16-0.17H0.24c-0.16,0-0.24-0.04-0.24-0.2L0-75.2z"></path>
				<path id="Path_102" class="st0" d="M19.63-64.84h-1.74c-0.16,0-0.23-0.07-0.29-0.23l-1.64-4.17c-0.06-0.13-0.14-0.19-0.39-0.19      h-1.71c-0.08-0.01-0.16,0.05-0.17,0.14c0,0.01,0,0.01,0,0.02v4.12c0,0.21-0.1,0.3-0.33,0.3h-1.51c-0.21,0-0.27-0.09-0.27-0.26      v-10.08c0-0.17,0.07-0.24,0.21-0.24h4.29c2.44,0,3.86,1.01,3.86,2.85c0.03,1.27-0.78,2.42-2,2.8c-0.09,0.03-0.09,0.11-0.06,0.18      l1.91,4.41c0.06,0.1,0.03,0.24-0.07,0.31C19.7-64.86,19.66-64.84,19.63-64.84z M17.77-72.42c0-1.05-0.7-1.57-1.81-1.57h-2.01      c-0.18,0-0.26,0.04-0.26,0.2v2.7c0,0.16,0.04,0.21,0.18,0.21h1.91C17.09-70.88,17.77-71.38,17.77-72.42L17.77-72.42z"></path>
				<path id="Path_103" class="st0" d="M22.6-65.2l3.59-9.97c0.07-0.19,0.14-0.26,0.34-0.26h1.78c0.18-0.01,0.35,0.11,0.4,0.29      l3.57,9.95c0.06,0.16,0,0.34-0.16,0.34H30.4c-0.12,0.01-0.23-0.07-0.26-0.19l-0.83-2.31c-0.03-0.09-0.06-0.14-0.17-0.14h-3.72      c-0.08-0.01-0.16,0.05-0.17,0.13l-0.86,2.34c-0.03,0.11-0.14,0.18-0.26,0.17h-1.38C22.6-64.84,22.53-64.99,22.6-65.2z       M28.64-69.1c0.14,0,0.16-0.09,0.11-0.23l-1.37-3.81c-0.06-0.13-0.14-0.13-0.2,0.01l-1.38,3.79c-0.06,0.16-0.03,0.23,0.11,0.23      H28.64z"></path>
				<path id="Path_104" class="st0" d="M43.77-75.43c0.13,0,0.17,0.06,0.17,0.2v10.17c0,0.14-0.1,0.21-0.24,0.21h-1.18      c-0.13,0.02-0.27-0.04-0.34-0.16l-4.88-6.93c-0.09-0.11-0.16-0.09-0.16,0.01v6.85c0.01,0.16-0.06,0.23-0.24,0.23h-1.26      c-0.16,0-0.26-0.06-0.26-0.23v-10.11c0-0.17,0.07-0.24,0.23-0.24h1.43c0.15-0.02,0.3,0.05,0.37,0.18L42-68.62      c0.11,0.16,0.21,0.11,0.21-0.04v-6.54c0-0.14,0.06-0.23,0.23-0.23L43.77-75.43z"></path>
				<path id="Path_105" class="st0" d="M51.37-74.06c-1.28,0-1.95,0.54-1.95,1.36c0,0.39,0.2,0.93,1.27,1.27l2.2,0.66      c1.74,0.53,2.47,1.57,2.47,2.92c0,1.94-1.57,3.15-4.09,3.15c-1.61,0.12-3.17-0.56-4.16-1.83c-0.09-0.11-0.07-0.26,0.03-0.35      c0.02-0.01,0.03-0.03,0.05-0.03l0.9-0.63c0.21-0.14,0.34-0.1,0.43,0.01c0.57,0.89,1.57,1.4,2.62,1.33c1.33,0,2.2-0.43,2.2-1.38      c0-0.57-0.3-0.98-1.33-1.33l-2.15-0.66c-1.38-0.28-2.39-1.47-2.44-2.88c0-1.83,1.55-3.12,3.92-3.12      c1.35-0.06,2.66,0.48,3.58,1.47c0.07,0.1,0.14,0.21,0,0.33l-1.01,0.76c-0.11,0.09-0.17,0.06-0.31-0.1      C53.03-73.76,52.21-74.11,51.37-74.06z"></path>
				<path id="Path_106" class="st0" d="M58.74-75.43h6.8c0.13,0,0.19,0.07,0.19,0.21l-0.01,1.08c0,0.17-0.06,0.27-0.24,0.27h-4.59      c-0.17,0-0.24,0.06-0.24,0.2V-71c0,0.16,0.07,0.21,0.2,0.21h3.34c0.14,0,0.2,0.06,0.2,0.2v1.14c0,0.11-0.04,0.17-0.2,0.17h-3.35      c-0.13,0-0.19,0.06-0.19,0.19v3.98c0,0.2-0.1,0.27-0.31,0.27H58.8c-0.21,0-0.27-0.07-0.27-0.26v-10.09      C58.52-75.35,58.61-75.43,58.74-75.43z"></path>
				<path id="Path_107" class="st0" d="M67.74-70.09c0-3.42,1.85-5.48,4.76-5.48s4.75,2.05,4.75,5.46c0,3.38-1.83,5.41-4.75,5.41      C69.55-64.7,67.74-66.71,67.74-70.09z M75.04-70.08c0-2.75-0.83-3.99-2.54-3.99s-2.57,1.24-2.57,3.99c0,2.7,0.83,3.86,2.58,3.86      C74.24-66.21,75.04-67.38,75.04-70.08L75.04-70.08z"></path>
				<path id="Path_108" class="st0" d="M88.57-64.84h-1.74c-0.16,0-0.23-0.07-0.29-0.23l-1.64-4.17c-0.06-0.13-0.14-0.19-0.38-0.19      h-1.71c-0.08-0.01-0.16,0.05-0.17,0.14c0,0.01,0,0.01,0,0.02v4.12c0,0.21-0.1,0.3-0.33,0.3H80.8c-0.21,0-0.27-0.09-0.27-0.26      v-10.08c0-0.17,0.07-0.24,0.21-0.24h4.29c2.44,0,3.87,1.01,3.87,2.85c0.03,1.27-0.78,2.42-2,2.8c-0.09,0.03-0.09,0.11-0.06,0.18      l1.91,4.41c0.06,0.1,0.03,0.24-0.07,0.31C88.65-64.86,88.61-64.84,88.57-64.84z M86.72-72.42c0-1.05-0.7-1.57-1.81-1.57h-2.01      c-0.19,0-0.26,0.04-0.26,0.2v2.7c0,0.16,0.04,0.21,0.19,0.21h1.91C86.03-70.88,86.72-71.38,86.72-72.42z"></path>
				<path id="Path_109" class="st0" d="M92.12-65.13v-10.06c0-0.17,0.06-0.24,0.23-0.24h2.41c0.19,0,0.26,0.04,0.3,0.2l2.51,6.73      c0.06,0.16,0.14,0.14,0.2-0.01l2.44-6.65c0.04-0.17,0.13-0.27,0.29-0.27h2.5c0.14,0,0.2,0.07,0.2,0.23v10.05      c0,0.21-0.09,0.3-0.31,0.3h-1.53c-0.2,0-0.27-0.07-0.27-0.26v-7.46c0-0.11-0.07-0.1-0.11,0.01l-2.71,7.49      c-0.03,0.13-0.15,0.22-0.29,0.21h-1.01c-0.14,0.01-0.27-0.08-0.31-0.21l-2.68-7.4c-0.04-0.14-0.11-0.11-0.11,0.02v7.37      c0,0.17-0.04,0.23-0.24,0.23H92.4c-0.14,0.01-0.27-0.1-0.28-0.24C92.12-65.09,92.12-65.11,92.12-65.13z"></path>
				<path id="Path_110" class="st0" d="M108.78-75.43c0.14,0,0.2,0.07,0.2,0.23v10.04c0,0.24-0.1,0.31-0.34,0.31h-1.48      c-0.23,0-0.29-0.07-0.29-0.26v-10.08c0-0.17,0.09-0.24,0.21-0.24H108.78z"></path>
				<path id="Path_111" class="st0" d="M121.04-75.43c0.13,0,0.17,0.06,0.17,0.2v10.17c0,0.14-0.1,0.21-0.24,0.21h-1.18      c-0.13,0.02-0.27-0.04-0.34-0.16l-4.88-6.93c-0.08-0.11-0.16-0.09-0.16,0.01v6.85c0.01,0.16-0.06,0.23-0.24,0.23h-1.26      c-0.16,0-0.26-0.06-0.26-0.23v-10.11c0-0.17,0.07-0.24,0.23-0.24h1.43c0.15-0.02,0.3,0.05,0.37,0.18l4.59,6.62      c0.11,0.16,0.21,0.11,0.21-0.04v-6.54c0-0.14,0.06-0.23,0.23-0.23L121.04-75.43z"></path>
				<path id="Path_112" class="st0" d="M124.49-70.09c0-3.39,1.91-5.48,4.76-5.48c1.9-0.1,3.62,1.14,4.12,2.97      c0.06,0.24,0.01,0.3-0.14,0.33l-1.58,0.24c-0.16,0-0.18-0.06-0.21-0.2c-0.17-1.08-1.13-1.87-2.23-1.83      c-1.6,0-2.51,1.2-2.51,3.88c0,2.82,0.94,3.96,2.57,3.96c1.16,0.05,2.17-0.8,2.31-1.95l0.01-0.57c0.04-0.13-0.01-0.19-0.13-0.19      h-1.94c-0.14,0-0.2-0.04-0.2-0.21v-0.91c0-0.1,0.06-0.17,0.2-0.17l3.71,0.02c0.23,0,0.34,0.11,0.34,0.29v4.88      c0.01,0.1-0.06,0.19-0.15,0.2c-0.01,0-0.02,0-0.03,0h-0.41c-0.15,0.01-0.29-0.07-0.34-0.21l-0.31-1.13      c-0.03-0.07-0.08-0.07-0.14,0.01c-0.69,0.98-1.84,1.54-3.04,1.47C126.29-64.7,124.49-66.81,124.49-70.09z"></path>
				<path id="Path_113" class="st0" d="M140.77-75.2c-0.01-0.12,0.08-0.22,0.2-0.23c0.02,0,0.03,0,0.05,0h8.02      c0.17,0,0.24,0.08,0.24,0.23v1.11c0,0.16-0.08,0.2-0.23,0.2h-2.74c-0.11,0-0.16,0.03-0.16,0.14v8.66c0,0.17-0.09,0.24-0.21,0.24      h-1.7c-0.13,0-0.2-0.07-0.2-0.23v-8.64c0-0.13-0.04-0.17-0.16-0.17H141c-0.16,0-0.24-0.04-0.24-0.2L140.77-75.2z"></path>
				<path id="Path_114" class="st0" d="M160.39-64.84h-1.74c-0.16,0-0.23-0.07-0.29-0.23l-1.64-4.17c-0.06-0.13-0.14-0.19-0.39-0.19      h-1.71c-0.08-0.01-0.16,0.05-0.17,0.13c0,0.01,0,0.02,0,0.02v4.12c0,0.21-0.1,0.3-0.33,0.3h-1.51c-0.21,0-0.27-0.09-0.27-0.26      v-10.08c0-0.17,0.07-0.24,0.21-0.24h4.29c2.44,0,3.86,1.01,3.86,2.85c0.03,1.27-0.78,2.42-2,2.8c-0.09,0.03-0.09,0.11-0.06,0.18      l1.91,4.41c0.06,0.1,0.03,0.24-0.07,0.31C160.47-64.86,160.43-64.84,160.39-64.84z M158.53-72.42c0-1.05-0.7-1.57-1.81-1.57      h-2.01c-0.19,0-0.26,0.04-0.26,0.2v2.7c0,0.16,0.04,0.21,0.18,0.21h1.91C157.85-70.88,158.53-71.38,158.53-72.42L158.53-72.42z"></path>
				<path id="Path_115" class="st0" d="M163.37-65.2l3.59-9.97c0.07-0.19,0.14-0.26,0.34-0.26h1.78c0.18-0.01,0.35,0.11,0.4,0.29      l3.57,9.95c0.06,0.16,0,0.34-0.16,0.34h-1.73c-0.12,0.01-0.23-0.07-0.26-0.19l-0.83-2.31c-0.03-0.09-0.06-0.14-0.17-0.14h-3.72      c-0.08-0.01-0.16,0.05-0.17,0.13l-0.86,2.34c-0.03,0.11-0.14,0.18-0.26,0.17h-1.38C163.37-64.84,163.3-64.99,163.37-65.2z       M169.4-69.1c0.14,0,0.16-0.09,0.11-0.23l-1.37-3.81c-0.06-0.13-0.14-0.13-0.2,0.01l-1.38,3.79c-0.06,0.16-0.03,0.23,0.11,0.23      H169.4z"></path>
				<path id="Path_116" class="st0" d="M178.06-75.43c0.14,0,0.2,0.07,0.2,0.23v10.04c0,0.24-0.1,0.31-0.34,0.31h-1.48      c-0.23,0-0.29-0.07-0.29-0.26v-10.08c0-0.17,0.09-0.24,0.21-0.24H178.06z"></path>
				<path id="Path_117" class="st0" d="M190.32-75.43c0.13,0,0.17,0.06,0.17,0.2v10.17c0,0.14-0.1,0.21-0.24,0.21h-1.18      c-0.13,0.02-0.27-0.04-0.34-0.16l-4.88-6.93c-0.09-0.11-0.16-0.09-0.16,0.01v6.85c0.02,0.16-0.06,0.23-0.24,0.23h-1.26      c-0.16,0-0.26-0.06-0.26-0.23v-10.11c0-0.17,0.07-0.24,0.23-0.24h1.43c0.15-0.02,0.3,0.05,0.37,0.18l4.59,6.62      c0.11,0.16,0.21,0.11,0.21-0.04v-6.54c0-0.14,0.06-0.23,0.23-0.23L190.32-75.43z"></path>
				<path id="Path_118" class="st0" d="M196.08-75.43c0.14,0,0.2,0.07,0.2,0.23v10.04c0,0.24-0.1,0.31-0.34,0.31h-1.48      c-0.23,0-0.29-0.07-0.29-0.26v-10.08c0-0.17,0.09-0.24,0.21-0.24H196.08z"></path>
				<path id="Path_119" class="st0" d="M208.35-75.43c0.13,0,0.17,0.06,0.17,0.2v10.17c0,0.14-0.1,0.21-0.24,0.21h-1.18      c-0.13,0.02-0.27-0.04-0.34-0.16l-4.88-6.93c-0.08-0.11-0.16-0.09-0.16,0.01v6.85c0.02,0.16-0.06,0.23-0.24,0.23h-1.26      c-0.16,0-0.26-0.06-0.26-0.23v-10.11c0-0.17,0.07-0.24,0.23-0.24h1.43c0.15-0.02,0.3,0.05,0.37,0.18l4.59,6.62      c0.11,0.16,0.21,0.11,0.21-0.04v-6.54c0-0.14,0.06-0.23,0.23-0.23L208.35-75.43z"></path>
				<path id="Path_120" class="st0" d="M211.8-70.09c0-3.39,1.91-5.48,4.76-5.48c1.9-0.1,3.62,1.14,4.12,2.97      c0.06,0.24,0.01,0.3-0.14,0.33l-1.58,0.24c-0.16,0-0.18-0.06-0.21-0.2c-0.17-1.08-1.13-1.87-2.23-1.83      c-1.6,0-2.51,1.2-2.51,3.88c0,2.82,0.94,3.96,2.57,3.96c1.16,0.05,2.17-0.8,2.31-1.95l0.02-0.57c0.04-0.13-0.02-0.19-0.13-0.19      h-1.94c-0.14,0-0.2-0.04-0.2-0.21v-0.91c0-0.1,0.06-0.17,0.2-0.17l3.71,0.02c0.23,0,0.34,0.11,0.34,0.29v4.88      c0.01,0.1-0.06,0.19-0.15,0.2c-0.01,0-0.02,0-0.03,0h-0.41c-0.15,0.01-0.29-0.07-0.34-0.21l-0.31-1.13      c-0.03-0.07-0.09-0.07-0.14,0.01c-0.69,0.98-1.84,1.54-3.04,1.47C213.59-64.7,211.8-66.81,211.8-70.09z"></path>
			</g>
		</g>
	</g>
</g>
<text transform="matrix(1 0 0 1 226.046 -152.9448)" class="st0" style="font-family:'Merriweather-Regular'; font-size:8px;">™</text>
<path id="Path_1" class="st0" d="M70-152.52l-9.72,24.54l-9.09-24.73c0,0,1.27-0.25,3.37-0.51l0.38-2.28H41.67l0.7,2.22  c1.27,0.19,3.18,0.7,3.18,0.7l12.64,33.42h1.27l13.34-33.35c0.25-0.7,3.37-0.63,3.37-0.63l0.32-2.28H66.06l0.63,2.28  C67.82-153.07,68.93-152.86,70-152.52z"></path>
<path id="Path_2" class="st0" d="M35.44-124.12"></path>
<path id="Path_3" class="st0" d="M203.54-152.52l-1.27-2.92c0,0,2.1,0.13,3.24,0.19s2.16,0.06,3.18,0.06h7.05  c3.75,0,6.61,0.89,8.51,2.6c1.95,1.81,2.99,4.38,2.86,7.04c-0.01,0.86-0.14,1.71-0.38,2.54c-0.26,0.91-0.67,1.76-1.21,2.54  c-0.57,0.89-1.28,1.68-2.1,2.35c-0.89,0.73-1.9,1.31-2.99,1.71l8.7,12.68c0.54,0.85,1.31,1.53,2.22,1.96  c0.72,0.34,1.46,0.61,2.22,0.82c0.32,0.06,0.45,0.76,0.32,1.71h-7.12c0,0-1.4,0-3.24-3.23l-8.7-13.06h-4.07l-1.02-2.28l4.32,0.06  c1.85,0.14,3.69-0.43,5.15-1.58c1.33-1.08,1.97-2.98,1.97-5.64c0.02-1.05-0.13-2.1-0.45-3.1c-0.24-0.92-0.7-1.77-1.33-2.47  c-0.66-0.74-1.49-1.3-2.41-1.65c-3.75-1.33-11.44-0.51-11.44-0.51C204.88-152.73,204.2-152.67,203.54-152.52z"></path>
<path id="Path_4" class="st0" d="M151.57-155.25c0.51,0,4.58-0.25,4.58-0.25s1.59,6.91,1.97,8.11c-0.19,0.06-1.65,0.44-1.65,0.44  c-0.41-1.04-0.88-2.05-1.4-3.04c-0.34-0.64-0.79-1.22-1.33-1.71c-0.53-0.45-1.16-0.78-1.84-0.95c-0.85-0.22-1.72-0.32-2.6-0.32  h-5.14v29.29c0.01,0.68,0.4,1.29,1.02,1.58c1.02,0.42,2.09,0.69,3.18,0.83c0.06,0,0.38,0.06,0.38,0.06  c0.07,0.27,0.12,0.55,0.13,0.83c-0.02,0.32-0.06,0.64-0.13,0.95h-0.06c-1.08-0.06-2.29-0.13-3.49-0.19l0,0  c-1.27-0.06-3.68-0.06-3.68-0.06c-1.21,0-2.48,0-3.75,0.06l0,0c-1.21,0.06-2.41,0.13-3.49,0.19h-0.06  c-0.07-0.31-0.11-0.63-0.13-0.95c0-0.28,0.05-0.56,0.13-0.83c0,0,0.32,0,0.38-0.06c1.1-0.1,2.17-0.38,3.18-0.82  c0.63-0.27,1.04-0.9,1.02-1.58v-29.29h-5.15c-0.88-0.01-1.75,0.1-2.6,0.32c-0.67,0.2-1.29,0.52-1.84,0.95  c-0.54,0.49-0.99,1.07-1.33,1.71c-0.38,0.7-1.4,3.04-1.4,3.04s-1.46-0.38-1.65-0.44c0.38-1.2,1.97-8.11,1.97-8.11s4,0.25,4.58,0.25  C131.94-155.19,151.06-155.19,151.57-155.25z"></path>
<g id="Group_1" transform="translate(38.494 45.97)">
	<path id="Path_5" class="st0" d="M17.47-141.43l-0.57,1.27c-0.9,0.5-1.86,0.89-2.86,1.14c-1.04,0.22-2.11,0.33-3.18,0.32   c-1.65,0.02-3.29-0.28-4.83-0.89c-1.05-0.42-2-1.05-2.8-1.84c-0.72-0.72-1.32-1.56-1.78-2.47c-0.64-1.37-0.97-2.86-0.95-4.38   c-0.09-2.51,0.93-4.92,2.8-6.6c1.84-1.71,4.45-2.54,7.81-2.54c1.04-0.02,2.09,0.07,3.11,0.25c1.08,0.21,2.14,0.51,3.18,0.89   l0.06,0.19c-0.16,0.49-0.27,1-0.32,1.52c-0.13,0.95-0.19,1.84-0.26,2.66h-1.02c0-0.76-0.04-1.52-0.13-2.28   c-0.55-0.56-1.2-1.01-1.91-1.33c-0.89-0.22-1.81-0.33-2.73-0.32c-1.81-0.09-3.56,0.61-4.83,1.9c-1.27,1.47-1.91,3.39-1.78,5.33   c-0.04,1.24,0.18,2.47,0.64,3.61c0.34,0.96,0.91,1.83,1.65,2.54c0.58,0.61,1.27,1.1,2.03,1.46c1.07,0.43,2.21,0.64,3.37,0.63   c1.76-0.01,3.49-0.47,5.02-1.33L17.47-141.43z"></path>
</g>
<g id="Group_2" transform="translate(105.648 46.28)">
	<path id="Path_6" class="st0" d="M1.39-139.45v-0.63c0.11-0.09,0.24-0.15,0.38-0.19c0.32-0.19,0.64-0.38,0.89-0.57   c0.06-1.14,0.13-2.98,0.13-5.58v-2.09c0-1.14,0-2.79-0.06-4.95c0.05-0.77-0.02-1.53-0.19-2.28c0-0.06-0.06-0.13-0.13-0.19   c-0.09-0.08-0.2-0.12-0.32-0.13c-0.52-0.12-1.05-0.2-1.59-0.25v-1.02l4.64,0.06c0.57,0,1.59,0,3.11-0.06c1.08,0,1.97-0.06,2.6-0.06   c1.21-0.03,2.43,0.05,3.62,0.25c0.83,0.17,1.62,0.47,2.35,0.89c0.67,0.36,1.25,0.86,1.71,1.46c0.44,0.54,0.81,1.14,1.08,1.78   c0.41,1.14,0.63,2.34,0.64,3.55c0.02,1.51-0.28,3-0.89,4.38c-0.56,1.26-1.41,2.36-2.48,3.23c-1,0.86-2.17,1.48-3.43,1.84   c-1.44,0.41-2.94,0.61-4.45,0.57l-3.81-0.06L1.39-139.45z M6.54-140.98c0.76,0.12,1.52,0.19,2.29,0.19   c1.03,0.01,2.06-0.11,3.05-0.38c0.6-0.18,1.18-0.43,1.71-0.76c0.57-0.4,1.05-0.92,1.4-1.52c0.5-0.72,0.85-1.54,1.02-2.41   c0.26-0.97,0.39-1.97,0.38-2.98c0-0.96-0.13-1.92-0.38-2.85c-0.23-0.88-0.64-1.7-1.21-2.41c-0.55-0.7-1.31-1.21-2.16-1.46   c-1.28-0.36-2.61-0.51-3.94-0.44c-0.72,0.01-1.45,0.07-2.16,0.19c-0.06,1.2-0.13,3.48-0.13,6.85v2.98   C6.36-144.32,6.4-142.64,6.54-140.98L6.54-140.98z"></path>
</g>
<g id="Group_3" transform="translate(141.668 46.287)">
	<path id="Path_7" class="st0" d="M1.26-139.46v-0.7c0.45-0.21,0.87-0.47,1.27-0.76c0.06-0.38,0.06-0.95,0.13-1.71   c0.06-1.46,0.13-2.54,0.13-3.17v-5.77c0-0.25,0-1.08-0.06-2.47c0.05-0.6-0.02-1.2-0.19-1.78l-0.19-0.19   c-0.6-0.18-1.22-0.26-1.84-0.25v-1.08l2.99,0.06H5.2c1.14,0,2.48,0,3.94-0.06l2.6-0.06c0.32,0,0.95,0,1.84,0.06   c0.15,0,0.3,0.02,0.45,0.06l0.06,0.19l-0.25,1.84c0,0.13-0.06,0.76-0.13,1.84H12.7c0.03-0.62-0.02-1.23-0.13-1.84   c-0.06-0.13-0.06-0.19-0.13-0.25c-0.33-0.11-0.67-0.17-1.02-0.19c-0.83-0.06-1.65-0.13-2.48-0.13c-0.76,0-1.52,0-2.35,0.06   c-0.14,1.22-0.2,2.45-0.19,3.68v2.6c0.61,0.05,1.23,0.07,1.84,0.06c0.19,0,0.89,0,2.16-0.06c0.28,0,0.55-0.03,0.83-0.06   c0.08-0.07,0.14-0.16,0.19-0.25c0.15-0.54,0.22-1.09,0.19-1.65h1.02l-0.06,2.79l0.06,2.79h-1.08c0.05-0.62-0.02-1.24-0.19-1.84   c-0.14-0.18-0.35-0.29-0.57-0.32c-0.76-0.09-1.52-0.13-2.29-0.13c-0.68-0.02-1.36,0-2.03,0.06v5.45c-0.01,0.53,0.01,1.06,0.06,1.58   c0.7,0.06,1.52,0.06,2.48,0.06s1.78,0,2.54-0.06c0.5,0,0.99-0.08,1.46-0.25c0.08-0.07,0.14-0.16,0.19-0.25   c0.22-0.77,0.39-1.55,0.51-2.35h1.08c-0.16,1.39-0.25,2.79-0.25,4.18l-0.19,0.19c-0.57,0.06-1.33,0.06-2.35,0.06l-2.1-0.06   c-2.03,0-3.43-0.06-4.19-0.06C4.22-139.47,2.74-139.43,1.26-139.46z"></path>
</g>
<g id="Group_4" transform="translate(171.843 46.224)">
	<path id="Path_8" class="st0" d="M0.63-139.4v-1.08c0.58-0.02,1.15-0.08,1.71-0.19c0.13-0.06,0.19-0.06,0.26-0.19   c0.09-0.15,0.13-0.33,0.13-0.51c0.1-1.05,0.14-2.11,0.13-3.17c0-0.82,0.06-2.16,0.06-4.12c0-1.71,0-3.3-0.06-4.63   c0.06-0.81-0.01-1.62-0.19-2.41c-0.06-0.13-0.06-0.19-0.19-0.25c-0.13-0.1-0.29-0.14-0.45-0.13c-0.57-0.06-1.08-0.13-1.52-0.19   v-1.08c1.78,0.06,2.99,0.06,3.62,0.06c0.89,0,1.78,0,2.67-0.06l1.14,2.54l0.89,1.9l4.07,8.37c0.89-1.71,1.52-2.98,1.97-3.93   l1.71-3.55c0.95-1.97,1.52-3.17,1.71-3.68c0.19-0.44,0.45-1.02,0.7-1.71c1.14,0.06,1.84,0.06,2.16,0.06l3.81-0.06v1.08h-0.19   c-0.89,0-1.4,0.06-1.65,0.32c-0.26,0.34-0.38,0.78-0.32,1.2v1.58l-0.06,3.61v6.4c0.02,0.66,0.08,1.32,0.19,1.96   c0,0.13,0.06,0.19,0.13,0.32c0.1,0.08,0.2,0.14,0.32,0.19c0.53,0.08,1.06,0.12,1.59,0.13v1.08l-4.07-0.06l-4,0.06v-1.08   c0.62-0.01,1.23-0.07,1.84-0.19c0.18-0.16,0.3-0.39,0.32-0.63c0.11-1.05,0.15-2.11,0.13-3.17v-9.13l-2.99,6.02l-1.4,2.98   c-0.38,0.76-0.89,1.9-1.59,3.42c-0.45,0.89-0.76,1.65-1.02,2.22H11.3c-0.32-0.7-0.76-1.71-1.33-2.92   c-1.02-2.16-1.72-3.74-2.29-4.76l-3.36-6.85v6.28c0,1.08,0,2.28,0.06,3.74c-0.03,0.83,0.01,1.65,0.13,2.47   c0.06,0.19,0.06,0.32,0.19,0.44c0.11,0.09,0.24,0.15,0.38,0.19c0.52,0.11,1.05,0.17,1.59,0.19v1.08c-0.95-0.06-1.91-0.06-2.92-0.06   C2.71-139.4,1.67-139.44,0.63-139.4z"></path>
</g>
<g id="Group_5" transform="translate(211.738 46.095)">
	<path id="Path_9" class="st0" d="M10.6-148.65l1.59-2.6c0.26-0.44,1.08-1.9,2.41-4.31c0.45-0.82,0.76-1.33,0.89-1.58h2.03v0.57   c-1.02,1.39-2.16,3.04-3.37,4.88s-1.91,3.1-2.22,3.61c-0.16,0.3-0.29,0.62-0.38,0.95c-0.06,0.31-0.08,0.63-0.06,0.95v2.15   c-0.02,0.78,0,1.57,0.06,2.35c0.01,0.3,0.08,0.61,0.19,0.89c0.09,0.13,0.22,0.22,0.38,0.25c0.57,0.07,1.14,0.12,1.71,0.13v1.14   c-1.65-0.06-3.11-0.06-4.45-0.06c-1.27,0-2.6,0-3.88,0.06v-1.14c0.57-0.01,1.15-0.05,1.71-0.13c0.12-0.03,0.23-0.1,0.32-0.19   c0.11-0.24,0.16-0.5,0.13-0.76c0.06-0.95,0.06-1.78,0.06-2.47v-2.41c-0.11-0.43-0.28-0.83-0.51-1.2c-0.83-1.46-1.65-2.92-2.6-4.31   c-0.63-0.98-1.33-1.91-2.1-2.79c-0.27-0.3-0.57-0.58-0.89-0.83c-0.38-0.07-0.76-0.09-1.14-0.06v-1.02l2.73-0.51   c0.45-0.13,0.95-0.19,1.4-0.32c0.51,0.32,0.89,0.57,1.14,0.76c0.39,0.38,0.73,0.8,1.02,1.27c0.69,1.01,1.31,2.07,1.84,3.17   C9.35-151.06,10.01-149.87,10.6-148.65z"></path>
</g>
<path id="Path_10" class="st0" d="M76.1-155.88"></path>
<path id="Path_11" class="st0" d="M56.85-155.06"></path>
<path id="Path_12" class="st0" d="M67.14-157.41"></path>
<path id="Path_13" class="st0" d="M228.76-122.47"></path>
<path id="Path_14" class="st0" d="M205.31-151"></path>
<path id="Path_15" class="st0" d="M227.1-122.47"></path>
<path id="Path_16" class="st0" d="M4-92.6c0,0-0.06-0.76-0.06-0.83c0-0.7,0-0.76,0.19-0.82l1.71-0.19c0,0,0.19-0.44,0.32-0.7  l6.67-16.8h1.08l6.8,17.56l1.59,0.19c0,0,0.19,0.06,0.19,0.38c0,0.19-0.19,1.14-0.19,1.14l-1.78-0.13c-0.06,0-2.41-0.25-7.56-0.25  h-0.06C9.08-93.05,4-92.6,4-92.6z M12.64-106.24L8.32-95.2c-0.1,0.22-0.16,0.46-0.19,0.7c0.89-0.06,2.73-0.25,4.19-0.25  c1.53,0,3.62,0.13,4.64,0.19L12.64-106.24z"></path>
<path id="Path_17" class="st0" d="M71.33-92.6c0,0-0.06-0.76-0.06-0.83c0-0.7,0-0.76,0.19-0.82l1.72-0.19c0,0,0.19-0.44,0.32-0.7  l6.67-16.8h1.08l6.8,17.56l1.59,0.19c0,0,0.19,0.06,0.19,0.38c0,0.19-0.19,1.14-0.19,1.14l-1.78-0.13c-0.06,0-2.41-0.25-7.56-0.25  h-0.06C76.42-93.05,71.33-92.6,71.33-92.6z M79.97-106.24L75.65-95.2c-0.1,0.22-0.16,0.46-0.19,0.7c0.89-0.06,2.73-0.25,4.19-0.25  c1.52,0,3.62,0.13,4.64,0.19L79.97-106.24z"></path>
<path id="Path_18" class="st0" d="M17.4-144.66l8.45,22.76c-5.75-0.48-11.54-0.44-17.28,0.13L17.4-144.66z M19.94-155.76h-2.1  L4.18-121.52l-3.18,0.32c-0.31,0.04-0.54,0.32-0.51,0.63l0.13,2.03c0,0,12.07-0.89,16.71-0.89s18.93,0.76,18.93,0.76l0.44-1.52  c0.16-0.37-0.01-0.8-0.38-0.96c-0.12-0.05-0.25-0.07-0.38-0.05l-2.73-0.32L19.94-155.76z"></path>
<path id="Path_19" class="st0" d="M98.78-144.92l8.45,22.76c-5.75-0.48-11.54-0.44-17.28,0.13L98.78-144.92z M101.32-156.02h-2.1  l-13.66,34.3l-3.18,0.32c-0.31,0.04-0.54,0.32-0.51,0.63l0.13,2.03c0,0,12.07-0.89,16.71-0.89s18.93,0.76,18.93,0.76l0.45-1.52  c0.16-0.37-0.01-0.8-0.38-0.96c-0.12-0.05-0.25-0.07-0.38-0.05l-2.73-0.32L101.32-156.02z"></path>
<path id="Path_20" class="st0" d="M180.73-144.92l8.45,22.76c-5.75-0.48-11.54-0.44-17.28,0.13L180.73-144.92z M183.27-156.02h-2.1  l-13.66,34.3l-3.18,0.32c-0.31,0.04-0.54,0.32-0.51,0.63l0.13,2.03c0,0,12.07-0.89,16.71-0.89s18.93,0.76,18.93,0.76l0.45-1.52  c0.16-0.37-0.01-0.8-0.38-0.96c-0.12-0.05-0.25-0.07-0.38-0.05l-2.73-0.32L183.27-156.02z"></path>
<path id="Path_21" class="st0" d="M226.72-119.36"></path>
</svg>