<?xml version="1.0" encoding="utf-8"?>
<!-- Generator: Adobe Illustrator 25.2.3, SVG Export Plug-In . SVG Version: 6.00 Build 0)  -->
<svg version="1.1" id="Layer_1" xmlns="http://www.w3.org/2000/svg" xmlns:xlink="http://www.w3.org/1999/xlink" x="0px" y="0px"
	 viewBox="0 0 367.4 122.3" style="enable-background:new 0 0 367.4 122.3;" xml:space="preserve">
<style type="text/css">
	.st0{fill:#FFFFFF;}
</style>
<g>
	<path class="st0" d="M109.4,7.7L94.1,46.4l-14.3-39c0,0,2-0.4,5.3-0.8l0.6-3.6H64.8l1.1,3.5c2,0.3,5,1.1,5,1.1l19.9,52.7
		c0,0,1.9,0,2,0l21-52.6c0.4-1.1,5.3-1,5.3-1l0.5-3.6c0,0-16.3,0-16.4,0l1,3.6C104.2,6.7,108.3,7.1,109.4,7.7z"/>
	<path class="st0" d="M55,52.5C55,52.5,55,52.5,55,52.5C55,52.5,55,52.5,55,52.5z"/>
	<path class="st0" d="M319.6,7.7l-2-4.6c0,0,3.3,0.2,5.1,0.3c1.8,0.1,3.4,0.1,5,0.1h11.1c5.9,0,10.4,1.4,13.4,4.1
		c3,2.7,4.5,6.4,4.5,11.1c0,1.3-0.2,2.6-0.6,4c-0.4,1.4-1,2.7-1.9,4c-0.8,1.3-1.9,2.5-3.3,3.7c-1.3,1.1-2.9,2-4.7,2.7l13.7,20
		c1,1.5,2.2,2.5,3.5,3.1c1.3,0.6,2.4,1,3.5,1.3c0.5,0.1,0.7,1.2,0.5,2.7l-11.2,0c0,0-2.2,0-5.1-5.1l-13.7-20.6h-6.4l-1.6-3.6
		l6.8,0.1c3.8,0,6-0.8,8.1-2.5c2.1-1.7,3.1-4.7,3.1-8.9c0-1.8-0.2-3.4-0.7-4.9c-0.4-1.5-1.1-2.8-2.1-3.9c-1-1.1-2.2-2-3.8-2.6
		c-5.9-2.1-18-0.8-18-0.8C321.4,7.3,319.6,7.7,319.6,7.7z"/>
	<path class="st0" d="M237.8,3.4C238.6,3.4,245,3,245,3s2.5,10.9,3.1,12.8c-0.3,0.1-2.6,0.7-2.6,0.7s-1.5-3.7-2.2-4.8
		c-0.6-1.1-1.3-2-2.1-2.7c-0.8-0.7-1.8-1.2-2.9-1.5c-1.1-0.3-2.5-0.5-4.1-0.5h-8.1V53c0,0.1,0,0.2,0,0.2c0.1,1.2,0.6,2,1.6,2.5
		c1.1,0.5,2.5,0.9,5,1.3c0.1,0,0.6,0.1,0.6,0.1s0.2,0.7,0.2,1.3c0,0.4-0.1,0.9-0.2,1.5c0,0-0.1,0-0.1,0c0,0,0,0,0,0
		c-1.7-0.1-3.6-0.2-5.5-0.3c0,0,0,0,0,0c-2-0.1-5.8-0.1-5.8-0.1c-1.9,0-3.9,0-5.9,0.1c0,0,0,0,0,0c-1.9,0.1-3.8,0.2-5.5,0.3
		c0,0,0,0,0,0c0,0-0.1,0-0.1,0c-0.1-0.6-0.2-1.1-0.2-1.5c0-0.7,0.2-1.3,0.2-1.3s0.5,0,0.6-0.1c2.5-0.3,3.9-0.8,5-1.3
		c1-0.5,1.6-1.3,1.6-2.5c0-0.1,0-0.1,0-0.2V7h-8.1c-1.6,0-3,0.2-4.1,0.5c-1.1,0.3-2.1,0.9-2.9,1.5c-0.8,0.7-1.5,1.6-2.1,2.7
		c-0.6,1.1-2.2,4.8-2.2,4.8s-2.3-0.6-2.6-0.7c0.6-1.9,3.1-12.8,3.1-12.8s6.3,0.4,7.2,0.4C206.9,3.5,237,3.5,237.8,3.4z"/>
	<g>
		<path class="st0" d="M87.3,97.7l-0.9,2c-1.7,0.9-3.2,1.5-4.5,1.8c-1.3,0.3-3,0.5-5,0.5c-2.9,0-5.4-0.5-7.6-1.4
			c-1.7-0.7-3.2-1.7-4.4-2.9c-1.2-1.2-2.1-2.5-2.8-3.9c-1-2.1-1.5-4.4-1.5-6.9c0-4.2,1.4-7.7,4.4-10.4c2.9-2.7,7-4,12.3-4
			c1.8,0,3.4,0.1,4.9,0.4s3.1,0.7,5,1.4l0.1,0.3c-0.2,0.6-0.4,1.4-0.5,2.4c-0.2,1.5-0.3,2.9-0.4,4.2h-1.6c0-1.5-0.1-2.7-0.2-3.6
			c-0.9-0.9-1.9-1.6-3-2.1C80.5,75.2,79,75,77.3,75c-3.2,0-5.7,1-7.6,3c-1.9,2-2.8,4.8-2.8,8.4c0,2.2,0.3,4.1,1,5.7
			c0.6,1.6,1.5,3,2.6,4c1.1,1.1,2.1,1.8,3.2,2.3c1.5,0.6,3.2,1,5.3,1c1.4,0,2.7-0.2,3.9-0.5c1.2-0.3,2.6-0.8,4-1.6L87.3,97.7z"/>
	</g>
	<g>
		<path class="st0" d="M167.7,101.3v-1c0.1-0.1,0.3-0.2,0.6-0.3c0.5-0.3,1-0.6,1.4-0.9c0.1-1.8,0.2-4.7,0.2-8.8v-3.3
			c0-1.8,0-4.4-0.1-7.8c0-1.9-0.1-3.1-0.3-3.6c0-0.1-0.1-0.2-0.2-0.3c-0.1-0.1-0.3-0.2-0.5-0.2c-0.2-0.1-1.1-0.2-2.5-0.4v-1.6
			l7.3,0.1c0.9,0,2.5,0,4.9-0.1c1.7,0,3.1-0.1,4.1-0.1c2.4,0,4.3,0.1,5.7,0.4c1.4,0.3,2.7,0.8,3.7,1.4c1.1,0.6,2,1.4,2.7,2.3
			c0.7,0.9,1.3,1.8,1.7,2.8c0.6,1.7,1,3.6,1,5.6c0,2.6-0.5,4.9-1.4,6.9s-2.2,3.7-3.9,5.1c-1.6,1.4-3.4,2.3-5.4,2.9
			c-1.9,0.6-4.2,0.9-7,0.9l-6-0.1L167.7,101.3z M175.8,98.9c1.3,0.2,2.4,0.3,3.6,0.3c1.8,0,3.4-0.2,4.8-0.6c1-0.3,1.9-0.7,2.7-1.2
			c0.8-0.5,1.5-1.3,2.2-2.4c0.7-1,1.3-2.3,1.6-3.8c0.4-1.5,0.6-3,0.6-4.7c0-1.5-0.2-3-0.6-4.5c-0.4-1.4-1-2.7-1.9-3.8
			c-0.9-1.1-2-1.9-3.4-2.3c-1.4-0.5-3.4-0.7-6.2-0.7c-1,0-2.2,0.1-3.4,0.3c-0.1,1.9-0.2,5.5-0.2,10.8V91
			C175.6,95,175.6,97.6,175.8,98.9z"/>
	</g>
	<g>
		<path class="st0" d="M224.2,101.3v-1.1c0.8-0.4,1.5-0.8,2-1.2c0.1-0.6,0.1-1.5,0.2-2.7c0.1-2.3,0.2-4,0.2-5v-9.1
			c0-0.4,0-1.7-0.1-3.9c0-1.5-0.1-2.4-0.3-2.8c-0.1-0.1-0.2-0.2-0.3-0.3c-0.4-0.2-1.3-0.3-2.9-0.4v-1.7l4.7,0.1c0.9,0,1.8,0,2.7,0
			c1.8,0,3.9,0,6.2-0.1l4.1-0.1c0.5,0,1.5,0,2.9,0.1c0.1,0,0.4,0,0.7,0.1l0.1,0.3l-0.4,2.9c0,0.2-0.1,1.2-0.2,2.9h-1.6
			c0-1.6-0.1-2.6-0.2-2.9c-0.1-0.2-0.1-0.3-0.2-0.4c-0.2-0.1-0.7-0.2-1.6-0.3c-1.3-0.1-2.6-0.2-3.9-0.2c-1.2,0-2.4,0-3.7,0.1
			c-0.2,1.5-0.3,3.5-0.3,5.8v4.1c0.9,0.1,1.9,0.1,2.9,0.1c0.3,0,1.4,0,3.4-0.1c0.7,0,1.2-0.1,1.3-0.1c0.1-0.1,0.2-0.2,0.3-0.4
			c0.2-0.5,0.3-1.4,0.3-2.6h1.6l-0.1,4.4l0.1,4.4h-1.7c0-1.6-0.1-2.5-0.3-2.9c-0.2-0.3-0.5-0.4-0.9-0.5c-0.9-0.1-2.1-0.2-3.6-0.2
			c-1.3,0-2.4,0-3.2,0.1v8.6c0,1,0,1.8,0.1,2.5c1.1,0.1,2.4,0.1,3.9,0.1c1.5,0,2.8,0,4-0.1c1.2-0.1,2-0.2,2.3-0.4
			c0.1-0.1,0.2-0.2,0.3-0.4c0.2-0.6,0.5-1.9,0.8-3.7h1.7c-0.3,2.7-0.4,4.9-0.4,6.6l-0.3,0.3c-0.9,0.1-2.1,0.1-3.7,0.1l-3.3-0.1
			c-3.2,0-5.4-0.1-6.6-0.1C230.6,101.2,228.4,101.3,224.2,101.3z"/>
	</g>
	<g>
		<path class="st0" d="M270.7,101.3v-1.7c1.5-0.1,2.4-0.2,2.7-0.3c0.2-0.1,0.3-0.1,0.4-0.3c0.1-0.2,0.2-0.4,0.2-0.8
			c0.1-0.8,0.2-2.4,0.2-5c0-1.3,0.1-3.4,0.1-6.5c0-2.7,0-5.2-0.1-7.3c0-2.1-0.1-3.4-0.3-3.8c-0.1-0.2-0.1-0.3-0.3-0.4
			c-0.1-0.1-0.3-0.2-0.7-0.2c-0.9-0.1-1.7-0.2-2.4-0.3v-1.7c2.8,0.1,4.7,0.1,5.7,0.1c1.4,0,2.8,0,4.2-0.1l1.8,4l1.4,3l6.4,13.2
			c1.4-2.7,2.4-4.7,3.1-6.2l2.7-5.6c1.5-3.1,2.4-5,2.7-5.8c0.3-0.7,0.7-1.6,1.1-2.7c1.8,0.1,2.9,0.1,3.4,0.1l6-0.1v1.7h-0.3
			c-1.4,0-2.2,0.1-2.6,0.5s-0.5,1-0.5,1.9c0,1.1,0,2,0,2.5l-0.1,5.7v7.1c0,1.7,0,2.7,0,3c0.1,1.7,0.2,2.8,0.3,3.1
			c0,0.2,0.1,0.3,0.2,0.5c0.1,0.1,0.3,0.2,0.5,0.3c0.2,0.1,1,0.1,2.5,0.2v1.7l-6.4-0.1l-6.3,0.1v-1.7c1.7-0.1,2.6-0.2,2.9-0.3
			c0.2-0.1,0.4-0.5,0.5-1c0.1-0.5,0.2-2.2,0.2-5V78.7l-4.7,9.5l-2.2,4.7c-0.6,1.2-1.4,3-2.5,5.4c-0.7,1.4-1.2,2.6-1.6,3.5h-1.4
			c-0.5-1.1-1.2-2.7-2.1-4.6c-1.6-3.4-2.7-5.9-3.6-7.5l-5.3-10.8v9.9c0,1.7,0,3.6,0.1,5.9c0,2.3,0.1,3.6,0.2,3.9
			c0.1,0.3,0.1,0.5,0.3,0.7c0.1,0.1,0.3,0.2,0.6,0.3c0.3,0.1,1.1,0.2,2.5,0.3v1.7c-1.5-0.1-3-0.1-4.6-0.1
			C273.6,101.2,271.9,101.3,270.7,101.3z"/>
	</g>
	<g>
		<path class="st0" d="M349.2,86.5l2.5-4.1c0.4-0.7,1.7-3,3.8-6.8c0.7-1.3,1.2-2.1,1.4-2.5h3.2V74c-1.6,2.2-3.4,4.8-5.3,7.7
			s-3,4.9-3.5,5.7c-0.3,0.6-0.5,1.1-0.6,1.5c-0.1,0.3-0.1,0.8-0.1,1.5v3.4c0,1.7,0,3,0.1,3.7c0.1,0.8,0.2,1.3,0.3,1.4
			c0.1,0.2,0.3,0.3,0.6,0.4c0.3,0.1,1.2,0.1,2.7,0.2v1.8c-2.6-0.1-4.9-0.1-7-0.1c-2,0-4.1,0-6.1,0.1v-1.8c1.5-0.1,2.4-0.1,2.7-0.2
			c0.3-0.1,0.4-0.2,0.5-0.3c0.1-0.1,0.2-0.5,0.2-1.2c0.1-1.5,0.1-2.8,0.1-3.9v-3.8c0-0.3-0.3-0.9-0.8-1.9c-1.3-2.3-2.6-4.6-4.1-6.8
			c-1.2-1.8-2.3-3.3-3.3-4.4c-0.7-0.7-1.2-1.2-1.4-1.3c-0.2-0.1-0.8-0.1-1.8-0.1V74l4.3-0.8c0.7-0.2,1.5-0.3,2.2-0.5
			c0.8,0.5,1.4,0.9,1.8,1.2s0.9,1,1.6,2c1,1.5,2,3.1,2.9,5C347.9,83.9,348.9,85.8,349.2,86.5z"/>
	</g>
	<path class="st0" d="M119,2.4"/>
	<path class="st0" d="M88.7,3.7"/>
	<path class="st0" d="M104.9,0"/>
	<path class="st0" d="M359.3,55.1"/>
	<path class="st0" d="M322.4,10.1"/>
	<path class="st0" d="M356.7,55.1"/>
	<path class="st0" d="M5.5,102.2c0,0-0.1-1.2-0.1-1.3c0-1.1,0-1.2,0.3-1.3l2.7-0.3c0,0,0.3-0.7,0.5-1.1l10.5-26.5l0.5,0
		c0.1,0,0.2,0,0.3,0c0.4,0,0.9,0,0.9,0l10.7,27.7l2.5,0.3c0,0,0.3,0.1,0.3,0.6c0,0.3-0.3,1.8-0.3,1.8l-2.8-0.2
		c-0.1,0-3.8-0.4-11.9-0.4c0,0,0,0-0.1,0C13.5,101.5,5.5,102.2,5.5,102.2z M19.1,80.7l-6.8,17.4c-0.1,0.1-0.2,0.6-0.3,1.1
		c1.4-0.1,4.3-0.4,6.6-0.4c2.4,0,5.7,0.2,7.3,0.3L19.1,80.7z"/>
	<path class="st0" d="M111.5,102.2c0,0-0.1-1.2-0.1-1.3c0-1.1,0-1.2,0.3-1.3l2.7-0.3c0,0,0.3-0.7,0.5-1.1l10.5-26.5l0.5,0
		c0.1,0,0.2,0,0.3,0c0.4,0,0.9,0,0.9,0l10.7,27.7l2.5,0.3c0,0,0.3,0.1,0.3,0.6c0,0.3-0.3,1.8-0.3,1.8l-2.8-0.2
		c-0.1,0-3.8-0.4-11.9-0.4c0,0,0,0-0.1,0C119.5,101.5,111.5,102.2,111.5,102.2z M125.1,80.7l-6.8,17.4c-0.1,0.1-0.2,0.6-0.3,1.1
		c1.4-0.1,4.3-0.4,6.6-0.4c2.4,0,5.7,0.2,7.3,0.3L125.1,80.7z"/>
	<path class="st0" d="M26.6,20.1l13.3,35.9c-13.9-1.3-27.2,0.2-27.2,0.2L26.6,20.1z M30.6,2.6h-3.3L5.8,56.6l-5,0.5
		c-0.9,0.2-0.8,1-0.8,1l0.2,3.2c0,0,19-1.4,26.3-1.4s29.8,1.2,29.8,1.2l0.7-2.4c0.4-1.7-1.2-1.6-1.2-1.6l-4.3-0.5L30.6,2.6z"/>
	<path class="st0" d="M154.7,19.7l13.3,35.9c-13.9-1.3-27.2,0.2-27.2,0.2L154.7,19.7z M158.7,2.2h-3.3l-21.5,54.1l-5,0.5
		c-0.9,0.2-0.8,1-0.8,1l0.2,3.2c0,0,19-1.4,26.3-1.4s29.8,1.2,29.8,1.2l0.7-2.4c0.4-1.7-1.2-1.6-1.2-1.6l-4.3-0.5L158.7,2.2z"/>
	<path class="st0" d="M283.7,19.7L297,55.6c-13.9-1.3-27.2,0.2-27.2,0.2L283.7,19.7z M287.7,2.2h-3.3l-21.5,54.1l-5,0.5
		c-0.9,0.2-0.8,1-0.8,1l0.2,3.2c0,0,19-1.4,26.3-1.4c7.3,0,29.8,1.2,29.8,1.2l0.7-2.4c0.4-1.7-1.2-1.6-1.2-1.6l-4.3-0.5L287.7,2.2z"
		/>
	<path class="st0" d="M356.1,60"/>
	<path class="st0" d="M7.4,122.3"/>
</g>
</svg>
