<?xml version="1.0" encoding="utf-8"?>
<!-- Generator: Adobe Illustrator 25.2.3, SVG Export Plug-In . SVG Version: 6.00 Build 0)  -->
<svg version="1.1" id="phone" xmlns="http://www.w3.org/2000/svg" xmlns:xlink="http://www.w3.org/1999/xlink" x="0px" y="0px"
	 viewBox="0 0 104.6 105" style="enable-background:new 0 0 104.6 105;" xml:space="preserve">
<style type="text/css">
	.st0{fill:#FFFFFF;}
</style>
<g>
	<g>
		<path class="st0" d="M94.1,18.8H13c-4.8,0-8.7,3.9-8.7,8.7v50.1c0,4.8,3.9,8.7,8.7,8.7h81.1c4.8,0,8.7-3.9,8.7-8.7V27.4
			C102.8,22.6,98.9,18.8,94.1,18.8z M93,24.5l-1.2,1L57,54.5c-2,1.7-4.9,1.7-6.9,0l-34.9-29l-1.2-1H93z M10.1,28.7l28.4,23.6
			L10.1,71.2V28.7z M94.1,80.4H13c-1.4,0-2.6-1-2.8-2.3l33-21.9l3.3,2.8c2.1,1.7,4.6,2.6,7.1,2.6s5.1-0.9,7.1-2.6l3.3-2.8l33,21.9
			C96.7,79.5,95.5,80.4,94.1,80.4z M97,71.2L68.6,52.3L97,28.7V71.2z"/>
	</g>
</g>
</svg>
