<?xml version="1.0" encoding="utf-8"?>
<!-- Generator: Adobe Illustrator 25.2.3, SVG Export Plug-In . SVG Version: 6.00 Build 0)  -->
<svg version="1.1" id="Layer_1" xmlns="http://www.w3.org/2000/svg" xmlns:xlink="http://www.w3.org/1999/xlink" x="0px" y="0px"
	 viewBox="0 0 263.6 40.2" style="enable-background:new 0 0 263.6 40.2;" xml:space="preserve">
<style type="text/css">
	.st0{fill:#FFFFFF;}
</style>
<g>
	<path class="st0" d="M243.5,40.2H20.1C9,40.2,0,31.2,0,20.1C0,9,9,0,20.1,0h223.4c11.1,0,20.1,9,20.1,20.1
		C263.6,31.2,254.6,40.2,243.5,40.2z M20.1,1C9.6,1,1,9.6,1,20.1c0,10.5,8.6,19.1,19.1,19.1h223.4c10.5,0,19.1-8.6,19.1-19.1
		C262.6,9.6,254,1,243.5,1H20.1z"/>
</g>
<g>
	<g>
	</g>
	<g>
		<g>
			<path class="st0" d="M36.1,14.4c-0.8-0.7-1.8-1.1-2.8-1.4c-0.6-0.1-1.2-0.2-1.8-0.2h-1.4h-6.4h-1.4c-0.6,0-1.2,0.1-1.8,0.2
				c-1,0.3-2,0.7-2.8,1.4c-1.7,1.4-2.6,3.4-2.6,5.5c0,2.1,1,4.2,2.6,5.5c0.8,0.7,1.8,1.1,2.8,1.4c0.6,0.1,1.2,0.2,1.8,0.2h1.4h6.4
				h1.4c0.6,0,1.2-0.1,1.8-0.2c1-0.3,2-0.7,2.8-1.4c1.7-1.4,2.6-3.4,2.6-5.5C38.8,17.8,37.8,15.8,36.1,14.4 M33,21.9
				c-0.3,0.2-0.7,0.4-1.1,0.4c-0.4,0.1-0.7,0.1-1.1,0.1h-7.7c-0.4,0-0.7,0-1.1-0.1c-0.4-0.1-0.7-0.2-1.1-0.4c-0.6-0.4-1-1.1-1-1.9
				c0-0.8,0.4-1.5,1-1.9c0.3-0.2,0.7-0.4,1.1-0.4c0.4-0.1,0.7-0.1,1.1-0.1h7.7c0.4,0,0.7,0,1.1,0.1c0.4,0.1,0.7,0.2,1.1,0.4
				c0.6,0.4,1,1.1,1,1.9C34,20.8,33.6,21.5,33,21.9"/>
		</g>
		<g>
			<path class="st0" d="M54.2,26.8c4,0,6.9-2.9,6.9-6.8c0-3.9-2.9-6.8-6.9-6.8c-4,0-6.9,2.9-6.9,6.8C47.3,23.8,50.3,26.8,54.2,26.8
				 M54.2,23.7c-2.2,0-3.6-1.6-3.6-3.7c0-2.2,1.4-3.8,3.6-3.8c2.2,0,3.6,1.6,3.6,3.8C57.8,22.1,56.4,23.7,54.2,23.7 M72.9,22.4
				c-0.6,0.7-1.6,1.3-2.8,1.3c-2.2,0-3.6-1.6-3.6-3.7c0-2.2,1.4-3.8,3.6-3.8c1.2,0,2.1,0.5,2.8,1.3l2.3-2.3c-1.2-1.3-2.9-2.1-5-2.1
				c-4,0-6.9,2.9-6.9,6.8c0,3.9,2.9,6.8,6.9,6.8c2.1,0,3.9-0.8,5-2.1L72.9,22.4z M86.2,26.6h3.2V13.3h-3.3v7.6
				c0,1.7-1.2,2.9-2.8,2.9c-1.6,0-2.6-1.2-2.6-2.9v-7.6h-3.3v8.1c0,3.2,2.4,5.3,5.1,5.3c1.6,0,2.9-0.7,3.7-1.6L86.2,26.6L86.2,26.6z
				 M96.5,8.5h-3.3v18h3.3V8.5z M109,26.6h3.2V13.3h-3.3v7.6c0,1.7-1.2,2.9-2.8,2.9c-1.6,0-2.6-1.2-2.6-2.9v-7.6h-3.3v8.1
				c0,3.2,2.4,5.3,5.1,5.3c1.6,0,2.9-0.7,3.7-1.6V26.6z M116.7,22.1l-2,2.1c1.5,1.7,3.6,2.5,6.1,2.5c3.2,0,5.7-1.6,5.7-4.2
				c0-2.4-1.7-3.8-4.4-4l-1.5-0.1c-1.3-0.1-2.1-0.5-2.1-1.3c0-0.8,0.8-1.2,2.3-1.2c1.6,0,2.7,0.6,3.5,1.6l2-2.1
				c-1.3-1.5-3.2-2.2-5.3-2.2c-3.4,0-5.5,1.7-5.5,4.1c0,2.2,1.6,3.7,4.5,4l1.6,0.1c1.3,0.1,1.9,0.6,1.9,1.3c0,0.9-1,1.3-2.4,1.3
				C119.1,24.1,117.7,23.4,116.7,22.1"/>
		</g>
		<g>
			<rect x="137.9" y="13.4" class="st0" width="1.6" height="13.2"/>
		</g>
		<g>
			<path class="st0" d="M142.4,24.5c-0.3-0.6-0.4-1.4-0.4-2.3h1.7c0,0.6,0.1,1.2,0.3,1.7c0.5,1,1.5,1.6,3.2,1.6
				c1.6,0,2.7-0.5,3.1-1.4c0.1-0.3,0.2-0.6,0.2-1c0-0.4-0.1-0.6-0.2-0.9c-0.5-1.1-2.1-1.4-3.9-1.9c-1.8-0.4-3.3-1-3.9-2.3
				c-0.2-0.4-0.3-0.8-0.3-1.4c0-0.5,0.1-1,0.3-1.5c0.6-1.4,2.2-2.2,4.3-2.2c2.2,0,3.6,0.9,4.3,2.3c0.3,0.6,0.4,1.3,0.4,2.1h-1.6
				c0-0.6-0.1-1.1-0.3-1.6c-0.4-0.9-1.4-1.5-2.8-1.5c-1.4,0-2.4,0.5-2.8,1.4c-0.1,0.3-0.2,0.5-0.2,0.9s0,0.6,0.1,0.8
				c0.4,1,2,1.3,3.8,1.8c1.9,0.5,3.5,1,4.1,2.4c0.2,0.4,0.3,0.9,0.3,1.5c0,0.6-0.1,1.1-0.3,1.6c-0.6,1.5-2.4,2.3-4.7,2.3
				C144.5,26.9,143,26,142.4,24.5"/>
		</g>
		<g>
			<polygon class="st0" points="165.1,13.4 160.1,26.6 158.4,26.6 153.4,13.4 155.1,13.4 159.3,24.7 163.5,13.4 			"/>
		</g>
		<g>
			<path class="st0" d="M170.6,13.4h4.6c2,0,3.4,0.6,4,1.9c0.2,0.5,0.3,1.1,0.3,1.7c0,0.7-0.1,1.3-0.3,1.8c-0.6,1.3-2,1.9-4,1.9h-3
				v5.9h-1.6V13.4z M174.9,19.3c1.4,0,2.4-0.3,2.8-1.2c0.1-0.3,0.2-0.7,0.2-1.1c0-0.4-0.1-0.8-0.2-1.1c-0.4-0.9-1.4-1.2-2.8-1.2
				h-2.7v4.6L174.9,19.3L174.9,19.3z"/>
		</g>
		<g>
			<path class="st0" d="M189.5,23.1h-6.2l-1.2,3.4h-1.6l4.8-13.2h2.4l4.8,13.2h-1.6L189.5,23.1z M189,21.8l-2.6-7.3h0l-2.6,7.3H189z
				"/>
		</g>
		<g>
			<path class="st0" d="M197.7,20.6h-2v5.9h-1.6V13.4h4.9c2.1,0,3.5,0.6,4,1.9c0.2,0.5,0.3,1,0.3,1.7c0,0.6-0.1,1.2-0.3,1.7
				c-0.5,1.2-1.7,1.9-3.5,2l4.6,5.9h-1.9L197.7,20.6z M195.7,19.3h2.9c1.6,0,2.5-0.4,2.9-1.2c0.1-0.3,0.2-0.7,0.2-1.1
				c0-0.4-0.1-0.8-0.2-1.1c-0.4-0.9-1.3-1.2-2.9-1.2h-2.9L195.7,19.3L195.7,19.3z"/>
		</g>
		<g>
			<polygon class="st0" points="208.2,14.8 204.7,14.8 204.7,13.4 213.2,13.4 213.2,14.8 209.8,14.8 209.8,26.6 208.2,26.6 			"/>
		</g>
		<g>
			<polygon class="st0" points="215.1,13.4 216.8,13.4 223.9,24.3 223.9,13.4 225.4,13.4 225.4,26.6 223.7,26.6 216.7,15.7 
				216.7,26.6 215.1,26.6 			"/>
		</g>
		<g>
			<polygon class="st0" points="228.3,13.4 236.2,13.4 236.2,14.8 229.9,14.8 229.9,19.2 236.1,19.2 236.1,20.6 229.9,20.6 
				229.9,25.2 236.2,25.2 236.2,26.6 228.3,26.6 			"/>
		</g>
		<g>
			<path class="st0" d="M242.2,20.6h-2v5.9h-1.6V13.4h4.9c2.1,0,3.5,0.6,4,1.9c0.2,0.5,0.3,1,0.3,1.7c0,0.6-0.1,1.2-0.3,1.7
				c-0.5,1.2-1.7,1.9-3.5,2l4.6,5.9h-1.9L242.2,20.6z M240.2,19.3h2.9c1.6,0,2.5-0.4,2.9-1.2c0.1-0.3,0.2-0.7,0.2-1.1
				c0-0.4-0.1-0.8-0.2-1.1c-0.4-0.9-1.3-1.2-2.9-1.2h-2.9L240.2,19.3L240.2,19.3z"/>
		</g>
	</g>
</g>
</svg>
