<?xml version="1.0" encoding="utf-8"?>
<!-- Generator: Adobe Illustrator 25.2.3, SVG Export Plug-In . SVG Version: 6.00 Build 0)  -->
<svg version="1.1" id="phone" xmlns="http://www.w3.org/2000/svg" xmlns:xlink="http://www.w3.org/1999/xlink" x="0px" y="0px"
	 viewBox="0 0 104.6 105" style="enable-background:new 0 0 104.6 105;" xml:space="preserve">
<style type="text/css">
	.st0{fill:#FFFFFF;}
</style>
<g>
	<path class="st0" d="M21.2,69.8c10.4,12.4,22.8,22.1,37,29c5.4,2.6,12.7,5.6,20.7,6.1c0.5,0,1,0,1.5,0c5.4,0,9.8-1.9,13.3-5.7
		c0,0,0.1-0.1,0.1-0.1c1.3-1.5,2.7-2.9,4.2-4.4c1-1,2.1-2,3.1-3c4.6-4.8,4.6-11,0-15.6L88,63c-2.2-2.3-4.9-3.5-7.7-3.5
		c-2.8,0-5.5,1.2-7.7,3.5l-7.8,7.8c-0.7-0.4-1.5-0.8-2.2-1.1c-0.9-0.4-1.7-0.8-2.4-1.3C53.2,63.9,46.7,58,40.6,50.4
		c-3.1-3.9-5.2-7.2-6.7-10.6c2-1.8,4-3.8,5.8-5.7c0.7-0.7,1.3-1.3,2-2c2.3-2.3,3.6-5.1,3.6-7.8s-1.2-5.5-3.6-7.8L35.2,10
		c-0.8-0.8-1.5-1.5-2.2-2.3c-1.4-1.5-2.9-3-4.4-4.4C26.4,1.2,23.7,0,21,0c-2.8,0-5.4,1.2-7.7,3.4l-8.1,8.1c-3,3-4.6,6.5-5,10.7
		c-0.4,5.2,0.5,10.7,3,17.4C6.9,49.9,12.7,59.5,21.2,69.8z"/>
</g>
</svg>
